<?xml version="1.0" encoding="utf-8"?>
<!-- Generator: Adobe Illustrator 22.0.1, SVG Export Plug-In . SVG Version: 6.00 Build 0)  -->
<svg version="1.1" id="圖層_1" xmlns="http://www.w3.org/2000/svg" xmlns:xlink="http://www.w3.org/1999/xlink" x="0px" y="0px"
	 viewBox="0 0 82 82" style="enable-background:new 0 0 82 82;" xml:space="preserve">
<style type="text/css">
	.st0{fill:#FFFFFF;}
</style>
<path class="st0" d="M80.5,41c0-4-9.6-6.4-26.5-6.6L35,7.6c-0.9-1.3-2.4-2.1-4.1-2.1h-0.7l10.4,29.2c-9.8,0.4-21.9,1.3-30,2.7
	l-3.8-5.3l0,0c-1-1.3-2.5-2.1-4.1-2.1H2l3.1,8.6c-2.3,0.7-3.6,1.5-3.6,2.4c0,0.9,1.5,1.7,3.9,2.4L2,52.8h0.7c1.6,0,3.1-0.8,4.1-2.1
	l4.3-6c8.1,1.4,19.9,2.2,29.5,2.6L30.2,76.5h0.7c1.7,0,3.2-0.8,4.1-2.1l19-26.8C70.9,47.4,80.5,45,80.5,41z"/>
</svg>
