<?xml version="1.0" encoding="utf-8"?>
<!-- Generator: Adobe Illustrator 22.0.1, SVG Export Plug-In . SVG Version: 6.00 Build 0)  -->
<svg version="1.1" id="圖層_1" xmlns="http://www.w3.org/2000/svg" xmlns:xlink="http://www.w3.org/1999/xlink" x="0px" y="0px"
	 viewBox="0 0 82 82" style="enable-background:new 0 0 82 82;" xml:space="preserve">
<style type="text/css">
	.st0{fill:#FFFFFF;}
</style>
<g>
	<path class="st0" d="M15.3,74.4c0,2.8,2.8,5,6.3,5c3.5,0,6.3-2.2,6.3-5v-3.5H15.3V74.4z"/>
	<path class="st0" d="M54.2,74.4c0,2.8,2.8,5,6.3,5c3.5,0,6.3-2.2,6.3-5v-3.5H54.2V74.4z"/>
	<path class="st0" d="M74,38.1h-0.4l-6.5-25.2c-0.4-1.7-1.9-2.8-3.5-2.8H53.5l-2.8-7.5H31.3l-2.8,7.5H18.4c-1.6,0-3.1,1.2-3.5,2.8
		L8.4,38.1H8c-3.3,0-6,2.7-6,6v17.3c0,3.3,2.7,6,6,6h66c3.3,0,6-2.7,6-6V44.1C80,40.8,77.3,38.1,74,38.1z M15.2,34.9l4.5-17.6
		c0.3-1.1,1.2-1.9,2.3-1.9h38c1.1,0,2,0.8,2.3,1.9l4.5,17.6c0.4,1.6-0.7,3.2-2.3,3.2h-47C15.9,38.1,14.8,36.5,15.2,34.9z M20.3,56.8
		c-2.1,0-3.9-1.7-3.9-3.9s1.7-3.9,3.9-3.9s3.9,1.7,3.9,3.9S22.5,56.8,20.3,56.8z M63,56.8c-2.1,0-3.9-1.7-3.9-3.9S60.9,49,63,49
		s3.9,1.7,3.9,3.9S65.2,56.8,63,56.8z"/>
</g>
</svg>
