<?xml version="1.0" encoding="utf-8"?>
<!-- Generator: Adobe Illustrator 22.0.1, SVG Export Plug-In . SVG Version: 6.00 Build 0)  -->
<svg version="1.1" id="圖層_1" xmlns="http://www.w3.org/2000/svg" xmlns:xlink="http://www.w3.org/1999/xlink" x="0px" y="0px"
	 viewBox="0 0 82 82" style="enable-background:new 0 0 82 82;" xml:space="preserve">
<style type="text/css">
	.st0{fill:#FFFFFF;}
</style>
<g>
	<path class="st0" d="M69,23.6c0-3.6-3-6.6-6.6-6.6h-7.4v-5.7c0-2.8-2.2-5-5-5H32.1c-2.8,0-5,2.2-5,5V17h-7.4C16,17,13,20,13,23.6
		v8.1c8.2-3.9,18.3-7.1,28-7.1c9.6,0,19.8,3.2,28,7.1V23.6z M34.8,9.4h12.4c1.4,0,2.5,1.1,2.5,2.5c0,1.4-1.1,2.5-2.5,2.5H34.8
		c-1.4,0-2.5-1.1-2.5-2.5C32.2,10.6,33.4,9.4,34.8,9.4z"/>
	<g>
		<path class="st0" d="M2.4,48.6c0,2.9,7.8,15.3,11.9,19c6.7,6,9.1,6.5,22,6.6c1.2,0,2.3-1,2.3-2.3V31.5c0-1.4-1.2-2.5-2.5-2.3
			C19.4,31.1,2.4,44.1,2.4,48.6z"/>
		<path class="st0" d="M43.5,31.5v40.3c0,1.3,1,2.3,2.3,2.3c13,0,16.3-0.5,22-6.6c3.8-4.1,11.9-16.1,11.9-19
			c-0.1-4.5-17-17.5-33.6-19.4C44.7,29,43.5,30.1,43.5,31.5z"/>
	</g>
</g>
</svg>
