<?xml version="1.0" encoding="utf-8"?>
<!-- Generator: Adobe Illustrator 22.0.1, SVG Export Plug-In . SVG Version: 6.00 Build 0)  -->
<svg version="1.1" id="圖層_1" xmlns="http://www.w3.org/2000/svg" xmlns:xlink="http://www.w3.org/1999/xlink" x="0px" y="0px"
	 viewBox="0 0 82 82" style="enable-background:new 0 0 82 82;" xml:space="preserve">
<style type="text/css">
	.st0{fill:#FFFFFF;}
</style>
<rect x="37.6" y="41.5" class="st0" width="6.7" height="35.9"/>
<path class="st0" d="M55.8,80H26.2c-1.2,0-2.1-0.9-2.1-2.1v-2.3c0-1.2,0.9-2.1,2.1-2.1h29.6c1.2,0,2.1,0.9,2.1,2.1v2.3
	C57.9,79.1,57,80,55.8,80z"/>
<path class="st0" d="M41,15.7c9.2,0,17.9,0.8,25.5,2.3c0.2-2.2,0.3-4.5,0.3-6.8s-0.2-4.5-0.5-6.6C58.8,2.9,50.2,2,41,2
	S23.2,2.9,15.6,4.5c-0.3,2.2-0.5,4.4-0.5,6.6c0,2.3,0.1,4.6,0.3,6.8C23.1,16.5,31.8,15.7,41,15.7z"/>
<path class="st0" d="M41,20.6c-9.4,0-18,1.2-24.7,3.1C19,38.3,27,48.8,41,48.8l0,0c13.9,0,22-10.5,24.7-25.1
	C58.9,21.8,50.4,20.6,41,20.6z"/>
</svg>
