<?xml version="1.0" encoding="utf-8"?>
<!-- Generator: Adobe Illustrator 22.0.1, SVG Export Plug-In . SVG Version: 6.00 Build 0)  -->
<svg version="1.1" id="圖層_1" xmlns="http://www.w3.org/2000/svg" xmlns:xlink="http://www.w3.org/1999/xlink" x="0px" y="0px"
	 viewBox="0 0 82 82" style="enable-background:new 0 0 82 82;" xml:space="preserve">
<style type="text/css">
	.st0{fill:#FFFFFF;}
</style>
<path class="st0" d="M65.3,2H16.3c-3.5,0-6.2,2.7-6.2,6.2v53c0,3.5,2.7,6.2,6.2,6.2h5.8l-5.2,10.6c-0.4,1,0.2,2.1,1.3,2.1h3.7h38.1
	h3.7c1.2,0,1.7-1.2,1.3-2.1l-5.2-10.6h5.8c3.5,0,6.2-2.7,6.2-6.2V8.4C71.4,4.9,68.7,2,65.3,2z M28.9,7.2h23.7c1.3,0,2.5,1.2,2.5,2.5
	s-1,2.5-2.3,2.5H28.9c-1.3,0-2.5-1.2-2.5-2.5S27.5,7.2,28.9,7.2z M17.1,53.2c0-1.9,1.5-3.7,3.7-3.7c1.9,0,3.7,1.5,3.7,3.7
	c0,1.9-1.5,3.7-3.7,3.7C18.9,56.9,17.1,55.2,17.1,53.2z M57,73.6c0.6,1-0.2,2.3-1.3,2.3H26c-1.2,0-1.9-1.2-1.3-2.3l2.9-6.4h26.6
	L57,73.6z M60.8,56.9c-1.9,0-3.7-1.5-3.7-3.7c0-1.9,1.5-3.7,3.7-3.7c1.9,0,3.7,1.5,3.7,3.7C64.5,55.2,62.8,56.9,60.8,56.9z
	 M64.5,37.8c0,1.3-1.2,2.5-2.5,2.5H19.6c-1.3,0-2.5-1.2-2.5-2.5V21.3c0-1.3,1.2-2.5,2.5-2.5H62c1.3,0,2.5,1.2,2.5,2.5V37.8z"/>
</svg>
