<?xml version="1.0" encoding="utf-8"?>
<!-- Generator: Adobe Illustrator 22.0.1, SVG Export Plug-In . SVG Version: 6.00 Build 0)  -->
<svg version="1.1" id="圖層_1" xmlns="http://www.w3.org/2000/svg" xmlns:xlink="http://www.w3.org/1999/xlink" x="0px" y="0px"
	 viewBox="0 0 82 82" style="enable-background:new 0 0 82 82;" xml:space="preserve">
<style type="text/css">
	.st0{fill:#FFFFFF;}
</style>
<g>
	<path class="st0" d="M69.8,19.9h-7.3v-5.2c0-3.2-2.6-5.8-5.8-5.8H25.3c-3.2,0-5.8,2.6-5.8,5.8v5.2h-7.3C6.6,19.9,2,24.5,2,30.1
		v32.7c0,5.7,4.6,10.3,10.2,10.3h57.6c5.6,0,10.2-4.6,10.2-10.3V30.1C80,24.5,75.4,19.9,69.8,19.9z M41,66
		c-10.7,0-19.4-8.7-19.4-19.5C21.6,35.7,30.3,27,41,27c10.7,0,19.4,8.7,19.4,19.5C60.4,57.2,51.7,66,41,66z"/>
	<ellipse class="st0" cx="41" cy="46.5" rx="10.6" ry="10.7"/>
</g>
</svg>
