<?xml version="1.0" encoding="utf-8"?>
<!-- Generator: Adobe Illustrator 22.0.1, SVG Export Plug-In . SVG Version: 6.00 Build 0)  -->
<svg version="1.1" id="圖層_1" xmlns="http://www.w3.org/2000/svg" xmlns:xlink="http://www.w3.org/1999/xlink" x="0px" y="0px"
	 viewBox="0 0 40 40" style="enable-background:new 0 0 40 40;" xml:space="preserve">
<style type="text/css">
	.st0{fill:#FFFFFF;}
</style>
<g>
	<path class="st0" d="M35.1,1.6l3.3,3.3c1.1,1.1,1.1,2.8,0,3.9L16.3,31l-7.3-7.3L31.1,1.6C32.2,0.5,34,0.5,35.1,1.6z"/>
	<path class="st0" d="M0.9,37.8c-0.4,0.9,0.4,1.8,1.3,1.3l2.6-1.2c-0.3-0.5-0.8-1.1-1.2-1.5c-0.5-0.5-1.1-0.9-1.6-1.2L0.9,37.8z"/>
	<path class="st0" d="M3.1,32.9L3,33.2c0.9,0.3,1.6,0.9,2.3,1.6c0.7,0.7,1.2,1.4,1.5,2.3l0.3-0.2l5.7-2.5c0.8-0.3,1-1.3,0.4-1.9
		l-2.8-3l-3-3C7,26.1,6,26.4,5.6,27.1L3.1,32.9z"/>
</g>
</svg>
