<?xml version="1.0" encoding="utf-8"?>
<!-- Generator: Adobe Illustrator 23.0.2, SVG Export Plug-In . SVG Version: 6.00 Build 0)  -->
<svg version="1.1" id="圖層_1" xmlns="http://www.w3.org/2000/svg" xmlns:xlink="http://www.w3.org/1999/xlink" x="0px" y="0px"
	 viewBox="0 0 40 40" style="enable-background:new 0 0 40 40;" xml:space="preserve">
<style type="text/css">
	.st0{fill:#308CFE;}
</style>
<g>
	<path class="st0" d="M34.5,3.1l3,3c1,1,1,2.6,0,3.6L17.3,30l-6.7-6.7L30.9,3.1C31.9,2.1,33.5,2.1,34.5,3.1z"/>
	<path class="st0" d="M3.3,36.2c-0.4,0.8,0.4,1.6,1.2,1.2l2.4-1.1c-0.3-0.5-0.7-1-1.1-1.4c-0.5-0.5-1-0.8-1.5-1.1L3.3,36.2z"/>
	<path class="st0" d="M5.3,31.7L5.2,32c0.8,0.3,1.5,0.8,2.1,1.5c0.6,0.6,1.1,1.3,1.4,2.1L9,35.4l5.2-2.3c0.7-0.3,0.9-1.2,0.4-1.7
		L12,28.7L9.3,26c-0.5-0.5-1.4-0.2-1.7,0.4L5.3,31.7z"/>
</g>
</svg>
