<?xml version="1.0" encoding="utf-8"?>
<!-- Generator: Adobe Illustrator 23.0.2, SVG Export Plug-In . SVG Version: 6.00 Build 0)  -->
<svg version="1.1" id="圖層_1" xmlns="http://www.w3.org/2000/svg" xmlns:xlink="http://www.w3.org/1999/xlink" x="0px" y="0px"
	 viewBox="0 0 40 40" style="enable-background:new 0 0 40 40;" xml:space="preserve">
<style type="text/css">
	.st0{fill:#308CFE;}
	.st1{fill:#FFFFFF;}
</style>
<circle class="st0" cx="20" cy="20" r="19"/>
<g>
	<path class="st1" d="M27.5,14.7L14.7,27.5c-0.6,0.6-1.5,0.6-2.2,0l-0.1-0.1c-0.6-0.6-0.6-1.5,0-2.2l12.9-12.8
		c0.6-0.6,1.5-0.6,2.2,0l0.1,0.1C28.2,13.1,28.2,14.1,27.5,14.7z"/>
	<path class="st1" d="M27.5,25.4L14.7,12.5c-0.6-0.6-1.5-0.6-2.2,0l0,0.1c-0.6,0.6-0.6,1.5,0,2.2l12.9,12.9c0.6,0.6,1.5,0.6,2.2,0
		l0.1-0.1C28.2,26.9,28.2,25.9,27.5,25.4z"/>
</g>
</svg>
