<?xml version="1.0" encoding="utf-8"?>
<!-- Generator: Adobe Illustrator 23.0.2, SVG Export Plug-In . SVG Version: 6.00 Build 0)  -->
<svg version="1.1" id="圖層_1" xmlns="http://www.w3.org/2000/svg" xmlns:xlink="http://www.w3.org/1999/xlink" x="0px" y="0px"
	 viewBox="0 0 40 40" style="enable-background:new 0 0 40 40;" xml:space="preserve">
<style type="text/css">
	.st0{fill:#308CFE;}
</style>
<g>
	<path class="st0" d="M37.7,7.5L7.5,37.6C6.1,39,4,39,2.3,37.6l-0.2-0.2c-1.4-1.4-1.4-3.5,0-5.2L32.5,2c1.4-1.4,3.5-1.4,5.2,0
		l0.2,0.2C39.3,3.7,39.3,6,37.7,7.5z"/>
	<path class="st0" d="M37.7,32.6L7.5,2.3C6.1,0.9,4,0.9,2.3,2.3v0.2C0.9,3.9,0.9,6,2.3,7.7l30.4,30.4c1.4,1.4,3.5,1.4,5.2,0l0.2-0.2
		C39.3,36.2,39.3,33.8,37.7,32.6z"/>
</g>
</svg>
