<?xml version="1.0" encoding="utf-8"?>
<!-- Generator: Adobe Illustrator 22.0.1, SVG Export Plug-In . SVG Version: 6.00 Build 0)  -->
<svg version="1.1" id="圖層_1" xmlns="http://www.w3.org/2000/svg" xmlns:xlink="http://www.w3.org/1999/xlink" x="0px" y="0px"
	 viewBox="0 0 55.8 36.2" style="enable-background:new 0 0 55.8 36.2;" xml:space="preserve">
<style type="text/css">
	.st0{fill:#FFFFFF;}
</style>
<g>
	<g>
		<path class="st0" d="M27.9,25.8c5.2,0,9.8-0.7,13.3-1.7c0.8-1.8,1.3-3.9,1.3-6C42.5,10,36,3.5,27.9,3.5S13.2,10,13.2,18.1
			c0,2.1,0.5,4.2,1.3,6C18.1,25.2,22.7,25.8,27.9,25.8z"/>
		<path class="st0" d="M27.9,28.8c-4,0-7.7-0.4-10.9-1c2.7,3,6.6,4.9,10.9,4.9c4.4,0,8.3-1.9,10.9-4.9
			C35.5,28.5,31.9,28.8,27.9,28.8z"/>
	</g>
	<g>
		<path class="st0" d="M11.5,23c-3.3-1.4-5.2-3.2-5.2-4.9s1.9-3.5,5.2-4.9c0.4-1.4,1-2.6,1.7-3.8c-6.1,1.9-9.9,5.1-9.9,8.7
			c0,3.7,3.8,6.8,9.9,8.7C12.5,25.6,11.9,24.4,11.5,23z"/>
		<path class="st0" d="M42.6,9.4c0.7,1.2,1.3,2.5,1.7,3.8c3.3,1.4,5.2,3.2,5.2,4.9s-1.9,3.5-5.2,4.9c-0.4,1.4-1,2.6-1.7,3.8
			c6.1-1.9,9.9-5.1,9.9-8.7S48.7,11.3,42.6,9.4z"/>
	</g>
</g>
</svg>
