<?xml version="1.0" encoding="utf-8"?>
<!-- Generator: Adobe Illustrator 22.0.1, SVG Export Plug-In . SVG Version: 6.00 Build 0)  -->
<svg version="1.1" id="圖層_1" xmlns="http://www.w3.org/2000/svg" xmlns:xlink="http://www.w3.org/1999/xlink" x="0px" y="0px"
	 viewBox="0 0 40 40" style="enable-background:new 0 0 40 40;" xml:space="preserve">
<style type="text/css">
	.st0{fill:none;stroke:#308CFE;stroke-width:2;stroke-linecap:round;stroke-miterlimit:10;}
</style>
<path class="st0" d="M31.4,32.2H9.3c-1.9,0-3.4-1.5-3.4-3.4v-15c0-0.6,0.4-1,1-1h26.9c0.6,0,1,0.4,1,1v14.9
	C34.8,30.6,33.3,32.2,31.4,32.2z"/>
<path class="st0" d="M20,32.5v2.3c0,1.5,1.2,2.7,2.7,2.7h7.6"/>
<g>
	<path class="st0" d="M14.7,12.8h-4.1c-0.9,0-1.7-0.5-1.7-1.1V5.6C9,5,9.7,4.5,10.6,4.5h4.1c0.9,0,1.7,0.5,1.7,1.1v6.2
		C16.4,12.3,15.6,12.8,14.7,12.8z"/>
	<path class="st0" d="M29.4,12.8h-4.1c-0.9,0-1.7-0.5-1.7-1.1V5.6c0-0.6,0.8-1.1,1.7-1.1h4.1C30.3,4.5,31,5,31,5.6v6.2
		C31,12.3,30.3,12.8,29.4,12.8z"/>
</g>
</svg>
