<?xml version="1.0" encoding="utf-8"?>
<!-- Generator: Adobe Illustrator 22.0.1, SVG Export Plug-In . SVG Version: 6.00 Build 0)  -->
<svg version="1.1" id="圖層_1" xmlns="http://www.w3.org/2000/svg" xmlns:xlink="http://www.w3.org/1999/xlink" x="0px" y="0px"
	 viewBox="0 0 24 24" style="enable-background:new 0 0 24 24;" xml:space="preserve">
<style type="text/css">
	.st0{fill:#308CFE;}
</style>
<g>
	<path class="st0" d="M6.8,18.1c0,0.6,0.6,1,1.2,1s1.3-0.4,1.3-1v-0.8H6.8V18.1z"/>
	<path class="st0" d="M14.8,18.1c0,0.6,0.6,1,1.2,1c0.8,0,1.2-0.4,1.2-1v-0.8h-2.6L14.8,18.1L14.8,18.1z"/>
	<path class="st0" d="M18.9,10.7L18.9,10.7l-1.4-5.2c-0.1-0.3-0.4-0.5-0.8-0.5H7.4c-0.4,0-0.7,0.3-0.8,0.6l-1.3,5.2H5.2
		C4.5,10.8,4,11.4,4,12v3.5c0,0.7,0.6,1.2,1.2,1.2h13.5c0.7,0,1.2-0.6,1.2-1.2V12C20,11.2,19.5,10.7,18.9,10.7z M6.7,10.1l0.9-3.6
		C7.7,6.2,7.9,6,8.1,6h7.8c0.3,0,0.4,0.2,0.5,0.4l0.9,3.6c0.1,0.4-0.2,0.7-0.5,0.7H7.2C6.9,10.7,6.7,10.4,6.7,10.1z M7.8,14.5
		c-0.4,0-0.8-0.4-0.8-0.8c0-0.5,0.4-0.8,0.8-0.8s0.8,0.4,0.8,0.8C8.6,14.1,8.2,14.5,7.8,14.5z M16.6,14.5c-0.4,0-0.8-0.4-0.8-0.8
		c0-0.5,0.4-0.8,0.8-0.8c0.4,0,0.8,0.4,0.8,0.8C17.4,14.1,17,14.5,16.6,14.5z"/>
</g>
</svg>
