<?xml version="1.0" encoding="utf-8"?>
<!-- Generator: Adobe Illustrator 23.0.2, SVG Export Plug-In . SVG Version: 6.00 Build 0)  -->
<svg version="1.1" id="圖層_1" xmlns="http://www.w3.org/2000/svg" xmlns:xlink="http://www.w3.org/1999/xlink" x="0px" y="0px"
	 viewBox="0 0 36 24" style="enable-background:new 0 0 36 24;" xml:space="preserve">
<style type="text/css">
	.st0{fill:#C8313E;}
	.st1{fill:#4AA657;}
	.st2{fill:#FFFFFF;}
	.st3{fill-rule:evenodd;clip-rule:evenodd;fill:#C8313E;}
</style>
<g>
	<rect x="0" y="0" class="st0" width="36" height="24"/>
	<rect x="0" y="16" class="st1" width="36" height="8"/>
</g>
<rect x="0" y="0" class="st2" width="6.2" height="24"/>
<g id="a">
	<path id="b" class="st3" d="M1.1,0h0.8v0.4h0.3v0.4h0.3v0.4h0.3v0.4h0.3V2H2.7v0.4H2.4v0.4H2.1v0.4H1.9v0.4H1.6v0.4H1.3V3.5H1.1
		V3.1H0.8V2.8H0.5V2.4H0.3V2H0V1.6h0.3V1.2h0.3V0.8h0.3V0.4h0.3L1.1,0z M1.3,0.8h0.3v0.4h0.3v0.4h0.3V2H1.9v0.4H1.6v0.4H1.3V2.4H1.1
		V2H0.8V1.6h0.3V1.2h0.3V0.8z M1.3,1.6h0.3V2H1.3V1.6z M0,0.4h0.3v0.4H0V0.4z M0,2.8h0.3v0.4H0V2.8z M2.9,0h0.3v0.8H2.9V0z M2.9,2.8
		h0.3v0.8H2.9V2.8z M0.5,3.5h0.3v0.4h0.3v0.4h0.3v0.4H1.1v0.4H0.8v0.4H0.5V5.1H0.3V4.7H0V4.3h0.3V3.9h0.3V3.5z M0.5,4.3h0.3v0.4H0.5
		V4.3z M2.1,3.5h0.3v0.4h0.3v0.4h0.3v0.4H2.7v0.4H2.4v0.4H2.1V5.1H1.9V4.7H1.6V4.3h0.3V3.9h0.3V3.5z M2.1,4.3h0.3v0.4H2.1V4.3z
		 M0,5.9h0.3v0.4H0V5.9z M2.9,5.5h0.3v0.8H2.9L2.9,5.5z M0,7.1h0.3V6.7h0.3V6.3h0.3V5.9h0.3V5.5h0.3V5.1h0.3v0.4h0.3v0.4h0.3v0.4
		h0.3v0.4h0.3v0.4h0.3v0.4h0.3V9H2.9v0.4H2.7v0.4H2.4v0.4H2.1v0.4H1.9V11H1.6v1.2H1.1v-0.4H0.8v-0.4H0.5V11H0.3v-0.4H0V9.4h0.3v0.4
		h0.3v0.4h0.3v0.4h0.3v-0.4h0.3V9.8h0.3V9.4h0.3V9h0.3V8.7h0.3V8.3H2.1V7.9H1.9V7.5H1.1v0.4h0.5v0.4H1.3v0.4H1.1V9H0.8V8.7H0.5V8.3
		H0.3V7.9H0L0,7.1z M0,8.7h0.3V9H0V8.7z M2.9,9.8h0.3v0.4H2.9L2.9,9.8z M2.4,10.6h0.3V11h0.3v0.4h0.3l0,0.8H2.9v-0.4H2.7v-0.4H2.4
		V10.6z M1.9,11.8h0.3v0.4H1.9V11.8z"/>
	<g transform="matrix(-1 0 0 1 1000 0)">
		<path class="st3" d="M5.1,0H4.3v0.4H4v0.4H3.7v0.4H3.5v0.4H3.2V2h0.3v0.4h0.3v0.4H4v0.4h0.3v0.4h0.3v0.4h0.3V3.5h0.3V3.1h0.3V2.8
			h0.3V2.4h0.3V2h0.3V1.6H5.9V1.2H5.6V0.8H5.4V0.4H5.1L5.1,0z M4.8,0.8H4.5v0.4H4.3v0.4H4V2h0.3v0.4h0.3v0.4h0.3V2.4h0.3V2h0.3V1.6
			H5.1V1.2H4.8V0.8z M4.8,1.6H4.5V2h0.3V1.6z M6.2,0.4H5.9v0.4h0.3V0.4z M6.2,2.8H5.9v0.4h0.3V2.8z M3.2,0H2.9v0.8h0.3V0z M3.2,2.8
			H2.9v0.8h0.3V2.8z M5.6,3.5H5.4v0.4H5.1v0.4H4.8v0.4h0.3v0.4h0.3v0.4h0.3V5.1h0.3V4.7h0.3V4.3H5.9V3.9H5.6V3.5z M5.6,4.3H5.4v0.4
			h0.3V4.3z M4,3.5H3.7v0.4H3.5v0.4H3.2v0.4h0.3v0.4h0.3v0.4H4V5.1h0.3V4.7h0.3V4.3H4.3V3.9H4V3.5z M4,4.3H3.7v0.4H4V4.3z M6.2,5.9
			H5.9v0.4h0.3V5.9z M3.2,5.5H2.9v0.8h0.3L3.2,5.5z M6.2,7.1H5.9V6.7H5.6V6.3H5.4V5.9H5.1V5.5H4.8V5.1H4.5v0.4H4.3v0.4H4v0.4H3.7
			v0.4H3.5v0.4H3.2v0.4H2.9V9h0.3v0.4h0.3v0.4h0.3v0.4H4v0.4h0.3V11h0.3v1.2h0.5v-0.4h0.3v-0.4h0.3V11h0.3v-0.4h0.3V9.4H5.9v0.4H5.6
			v0.4H5.4v0.4H5.1v-0.4H4.8V9.8H4.5V9.4H4.3V9H4V8.7H3.7V8.3H4V7.9h0.3V7.5h0.8v0.4H4.5v0.4h0.3v0.4h0.3V9h0.3V8.7h0.3V8.3h0.3V7.9
			h0.3L6.2,7.1z M6.2,8.7H5.9V9h0.3V8.7z M3.2,9.8H2.9v0.4h0.3L3.2,9.8z M3.7,10.6H3.5V11H3.2v0.4H2.9l0,0.8h0.3v-0.4h0.3v-0.4h0.3
			V10.6z M4.3,11.8H4v0.4h0.3V11.8z"/>
	</g>
</g>
<g transform="matrix(1 0 0 -1 0 4500)">
	<g>
		<path class="st3" d="M1.1,24h0.8v-0.4h0.3v-0.4h0.3v-0.4h0.3v-0.4h0.3V22H2.7v-0.4H2.4v-0.4H2.1v-0.4H1.9v-0.4H1.6v-0.4H1.3v0.4
			H1.1v0.4H0.8v0.4H0.5v0.4H0.3V22H0v0.4h0.3v0.4h0.3v0.4h0.3v0.4h0.3L1.1,24z M1.3,23.2h0.3v-0.4h0.3v-0.4h0.3V22H1.9v-0.4H1.6
			v-0.4H1.3v0.4H1.1V22H0.8v0.4h0.3v0.4h0.3V23.2z M1.3,22.4h0.3V22H1.3V22.4z M0,23.6h0.3v-0.4H0V23.6z M0,21.2h0.3v-0.4H0V21.2z
			 M2.9,24h0.3v-0.8H2.9V24z M2.9,21.2h0.3v-0.8H2.9V21.2z M0.5,20.5h0.3v-0.4h0.3v-0.4h0.3v-0.4H1.1v-0.4H0.8v-0.4H0.5v0.4H0.3v0.4
			H0v0.4h0.3v0.4h0.3V20.5z M0.5,19.7h0.3v-0.4H0.5V19.7z M2.1,20.5h0.3v-0.4h0.3v-0.4h0.3v-0.4H2.7v-0.4H2.4v-0.4H2.1v0.4H1.9v0.4
			H1.6v0.4h0.3v0.4h0.3V20.5z M2.1,19.7h0.3v-0.4H2.1V19.7z M0,18.1h0.3v-0.4H0V18.1z M2.9,18.5h0.3v-0.8H2.9L2.9,18.5z M0,16.9h0.3
			v0.4h0.3v0.4h0.3v0.4h0.3v0.4h0.3v0.4h0.3v-0.4h0.3v-0.4h0.3v-0.4h0.3v-0.4h0.3v-0.4h0.3v-0.4h0.3V15H2.9v-0.4H2.7v-0.4H2.4v-0.4
			H2.1v-0.4H1.9V13H1.6v-1.2H1.1v0.4H0.8v0.4H0.5V13H0.3v0.4H0v1.2h0.3v-0.4h0.3v-0.4h0.3v-0.4h0.3v0.4h0.3v0.4h0.3v0.4h0.3V15h0.3
			v0.4h0.3v0.4H2.1v0.4H1.9v0.4H1.1v-0.4h0.5v-0.4H1.3v-0.4H1.1V15H0.8v0.4H0.5v0.4H0.3v0.4H0L0,16.9z M0,15.3h0.3V15H0V15.3z
			 M2.9,14.2h0.3v-0.4H2.9L2.9,14.2z M2.4,13.4h0.3V13h0.3v-0.4h0.3l0-0.8H2.9v0.4H2.7v0.4H2.4V13.4z M1.9,12.2h0.3v-0.4H1.9V12.2z"
			/>
		<g transform="matrix(-1 0 0 1 1000 0)">
			<path class="st3" d="M5.1,24H4.3v-0.4H4v-0.4H3.7v-0.4H3.5v-0.4H3.2V22h0.3v-0.4h0.3v-0.4H4v-0.4h0.3v-0.4h0.3v-0.4h0.3v0.4h0.3
				v0.4h0.3v0.4h0.3v0.4h0.3V22h0.3v0.4H5.9v0.4H5.6v0.4H5.4v0.4H5.1L5.1,24z M4.8,23.2H4.5v-0.4H4.3v-0.4H4V22h0.3v-0.4h0.3v-0.4
				h0.3v0.4h0.3V22h0.3v0.4H5.1v0.4H4.8V23.2z M4.8,22.4H4.5V22h0.3V22.4z M6.2,23.6H5.9v-0.4h0.3V23.6z M6.2,21.2H5.9v-0.4h0.3
				V21.2z M3.2,24H2.9v-0.8h0.3V24z M3.2,21.2H2.9v-0.8h0.3V21.2z M5.6,20.5H5.4v-0.4H5.1v-0.4H4.8v-0.4h0.3v-0.4h0.3v-0.4h0.3v0.4
				h0.3v0.4h0.3v0.4H5.9v0.4H5.6V20.5z M5.6,19.7H5.4v-0.4h0.3V19.7z M4,20.5H3.7v-0.4H3.5v-0.4H3.2v-0.4h0.3v-0.4h0.3v-0.4H4v0.4
				h0.3v0.4h0.3v0.4H4.3v0.4H4V20.5z M4,19.7H3.7v-0.4H4V19.7z M6.2,18.1H5.9v-0.4h0.3V18.1z M3.2,18.5H2.9v-0.8h0.3L3.2,18.5z
				 M6.2,16.9H5.9v0.4H5.6v0.4H5.4v0.4H5.1v0.4H4.8v0.4H4.5v-0.4H4.3v-0.4H4v-0.4H3.7v-0.4H3.5v-0.4H3.2v-0.4H2.9V15h0.3v-0.4h0.3
				v-0.4h0.3v-0.4H4v-0.4h0.3V13h0.3v-1.2h0.5v0.4h0.3v0.4h0.3V13h0.3v0.4h0.3v1.2H5.9v-0.4H5.6v-0.4H5.4v-0.4H5.1v0.4H4.8v0.4H4.5
				v0.4H4.3V15H4v0.4H3.7v0.4H4v0.4h0.3v0.4h0.8v-0.4H4.5v-0.4h0.3v-0.4h0.3V15h0.3v0.4h0.3v0.4h0.3v0.4h0.3L6.2,16.9z M6.2,15.3
				H5.9V15h0.3V15.3z M3.2,14.2H2.9v-0.4h0.3L3.2,14.2z M3.7,13.4H3.5V13H3.2v-0.4H2.9l0-0.8h0.3v0.4h0.3v0.4h0.3V13.4z M4.3,12.2H4
				v-0.4h0.3V12.2z"/>
		</g>
	</g>
</g>
</svg>
