<?xml version="1.0" encoding="utf-8"?>
<!-- Generator: Adobe Illustrator 23.0.2, SVG Export Plug-In . SVG Version: 6.00 Build 0)  -->
<svg version="1.1" id="圖層_1" xmlns="http://www.w3.org/2000/svg" xmlns:xlink="http://www.w3.org/1999/xlink" x="0px" y="0px"
	 viewBox="0 0 40 40" style="enable-background:new 0 0 40 40;" xml:space="preserve">
<style type="text/css">
	.st0{fill:#308CFE;}
</style>
<g>
	<g>
		<path class="st0" d="M17.2,33.4c-4.2,0-8.3-1.6-11.5-4.8c-6.3-6.3-6.3-16.7,0-23c6.3-6.3,16.7-6.3,23,0c6.3,6.3,6.3,16.7,0,23
			C25.5,31.8,21.3,33.4,17.2,33.4z M17.2,5.1c-3.1,0-6.2,1.2-8.5,3.5c-4.7,4.7-4.7,12.3,0,17s12.3,4.7,17,0s4.7-12.3,0-17
			C23.3,6.3,20.2,5.1,17.2,5.1z"/>
	</g>
	<g>
		<path class="st0" d="M26.6,29l8.4,8.4c0.9,0.9,2.3,0.9,3.2,0s0.9-2.3,0-3.2l-8.4-8.4L26.6,29z"/>
	</g>
</g>
</svg>
