<?xml version="1.0" encoding="utf-8"?>
<!-- Generator: Adobe Illustrator 23.0.2, SVG Export Plug-In . SVG Version: 6.00 Build 0)  -->
<svg version="1.1" id="圖層_1" xmlns="http://www.w3.org/2000/svg" xmlns:xlink="http://www.w3.org/1999/xlink" x="0px" y="0px"
	 viewBox="0 0 36 24" style="enable-background:new 0 0 36 24;" xml:space="preserve">
<style type="text/css">
	.st0{fill:#DE2910;}
	.st1{fill:#FFDE00;}
</style>
<rect class="st0" width="36" height="24"/>
<path id="a" class="st1" d="M3.9,8.9l0.8-2.5L2.6,4.9l2.6,0L6,2.4l0.8,2.5l2.6,0L7.3,6.4l0.8,2.5L6,7.4L3.9,8.9L3.9,8.9z"/>
<g transform="matrix(.31284 .1151 -.1151 .31284 901.67 686.25)">
	<path class="st1" d="M11,11.5l0.5-0.7l-0.5-0.7l0.8,0.3l0.5-0.7l0,0.9l0.8,0.3l-0.8,0.2l0,0.9l-0.5-0.7L11,11.5L11,11.5z"/>
</g>
<g transform="matrix(.33309 -.012796 .012796 .33309 1027.4 539.84)">
	<path class="st1" d="M13.7,9.4L14,8.6l-0.7-0.5l0.9,0l0.2-0.8L14.7,8l0.9,0l-0.7,0.5l0.3,0.8l-0.7-0.5L13.7,9.4L13.7,9.4z"/>
</g>
<g transform="matrix(.29883 -.14769 .14769 .29883 976.3 324.36)">
	<path class="st1" d="M14.2,6l-0.1-0.9L13.2,5L14,4.6l-0.1-0.9l0.6,0.6L15.2,4l-0.4,0.8l0.6,0.6l-0.9-0.1L14.2,6L14.2,6z"/>
</g>
<g transform="matrix(.30707 .12971 -.12971 .30707 910.78 -18.568)">
	<path class="st1" d="M11,3l0.6-0.7l-0.4-0.7l0.8,0.3l0.6-0.7l-0.1,0.9l0.8,0.3l-0.8,0.2l-0.1,0.9l-0.4-0.7L11,3L11,3z"/>
</g>
</svg>
