<?xml version="1.0" encoding="utf-8"?>
<!-- Generator: Adobe Illustrator 22.0.1, SVG Export Plug-In . SVG Version: 6.00 Build 0)  -->
<svg version="1.1" id="圖層_1" xmlns="http://www.w3.org/2000/svg" xmlns:xlink="http://www.w3.org/1999/xlink" x="0px" y="0px"
	 viewBox="0 0 60 60" style="enable-background:new 0 0 60 60;" xml:space="preserve">
<style type="text/css">
	.st0{fill:#FFDB00;enable-background:new    ;}
	.st1{fill:#FFFF00;}
</style>
<path class="st0" d="M53.2,23.6C53.2,23.5,53.2,23.5,53.2,23.6c0-0.5,0-1,0-1.4l0,0c0-0.5-0.1-1.1-0.1-1.6c0-0.1,0-0.2,0-0.3
	c0-0.2-0.1-0.5-0.1-0.7c0-0.3-0.1-0.5-0.1-0.8c0-0.1-0.1-0.2-0.1-0.4c-0.1-0.4-0.2-0.8-0.3-1.2c-0.1-0.2-0.1-0.4-0.2-0.6
	c0-0.1-0.1-0.2-0.1-0.3c-0.1-0.2-0.2-0.5-0.2-0.7c-0.1-0.4-0.3-0.7-0.4-1.1c-0.1-0.2-0.2-0.5-0.3-0.7c-0.1-0.1-0.1-0.3-0.2-0.4
	c-0.1-0.1-0.2-0.3-0.2-0.4c-0.2-0.4-0.5-0.8-0.7-1.3c-0.1-0.2-0.3-0.5-0.4-0.7c-0.3-0.4-0.6-0.8-0.9-1.2c-0.1-0.1-0.2-0.3-0.3-0.4
	c0-0.1-0.1-0.1-0.1-0.2C48.3,9,48.2,8.8,48,8.7c-0.3-0.3-0.5-0.6-0.8-0.9c-0.2-0.2-0.4-0.4-0.5-0.5C46.3,7,46.2,6.8,46,6.6
	c-0.1-0.1-0.2-0.2-0.3-0.2c-0.3-0.3-0.6-0.5-0.9-0.8c-0.2-0.1-0.3-0.3-0.5-0.4C44.2,5.1,44.1,5.1,44,5c-0.2-0.1-0.4-0.3-0.6-0.4
	c-0.2-0.1-0.4-0.3-0.6-0.4C42.7,4.1,42.5,4,42.4,4c-0.2-0.1-0.4-0.2-0.5-0.3s-0.3-0.2-0.4-0.2c-0.3-0.1-0.6-0.3-0.8-0.4
	c-0.2,0-0.3-0.1-0.4-0.1c0,0-0.1,0-0.1-0.1c-0.4-0.2-0.8-0.3-1.3-0.5c-0.1,0-0.2,0-0.2-0.1c-0.1,0-0.2-0.1-0.4-0.1
	c-0.2-0.1-0.4-0.1-0.6-0.2c-0.3-0.1-0.5-0.1-0.8-0.2c-0.1,0-0.2-0.1-0.3-0.1s-0.1,0-0.2,0c-0.4-0.1-0.9-0.2-1.3-0.2
	c-0.1,0-0.2,0-0.3,0s-0.3,0-0.4,0c-0.2,0-0.5-0.1-0.7-0.1c-0.4,0-0.7,0-1.1,0c-0.1,0-0.3,0-0.4,0c-0.2,0-0.5,0-0.7,0s-0.5,0-0.7,0
	c-0.1,0-0.1,0-0.2,0c-0.2,0-0.3,0.1-0.5,0.1c-0.3,0-0.7,0.1-1,0.2c-0.1,0-0.1,0-0.2,0s-0.2,0.1-0.3,0.1c-0.5,0.1-1,0.2-1.5,0.4
	c-0.1,0-0.2,0-0.3,0.1c-0.1,0-0.3,0.1-0.4,0.1l-7,2.6c0.2-0.1,0.5-0.2,0.7-0.2c0.5-0.2,1-0.3,1.5-0.4c0.2,0,0.4-0.1,0.5-0.1
	c0.3-0.1,0.7-0.1,1-0.2c0.2,0,0.4-0.1,0.7-0.1c0.2,0,0.5,0,0.7,0c0.3,0,0.7,0,1,0c0.6,0,1.2,0,1.7,0.1c0.1,0,0.3,0,0.4,0
	c0.6,0.1,1.2,0.2,1.7,0.3c0.1,0,0.2,0.1,0.3,0.1c0.5,0.1,1,0.2,1.4,0.4c0.1,0,0.3,0.1,0.4,0.1c0.5,0.2,1.1,0.4,1.6,0.6
	c0.1,0,0.2,0.1,0.3,0.2c0.4,0.2,0.8,0.4,1.2,0.6c0.2,0.1,0.4,0.2,0.5,0.3c0.3,0.2,0.7,0.4,1,0.6c0.2,0.1,0.4,0.3,0.6,0.4
	c0.2,0.2,0.5,0.4,0.7,0.5c0.7,0.2,1,0.5,1.3,0.8c0.3,0.2,0.5,0.5,0.8,0.7c0.2,0.2,0.4,0.4,0.5,0.5c0.3,0.3,0.5,0.6,0.8,0.9
	c0.2,0.2,0.3,0.4,0.5,0.5c0.2,0.2,0.3,0.4,0.4,0.6c0.3,0.4,0.6,0.8,0.9,1.2c0.2,0.2,0.3,0.5,0.4,0.7c0.2,0.4,0.5,0.8,0.7,1.3
	c0.1,0.3,0.3,0.6,0.4,0.9c0.1,0.2,0.2,0.5,0.3,0.7c0.2,0.4,0.3,0.7,0.4,1.1c0.1,0.2,0.2,0.5,0.2,0.7c0.1,0.3,0.2,0.6,0.3,1
	s0.2,0.8,0.3,1.2c0.1,0.4,0.2,0.8,0.2,1.2c0,0.2,0.1,0.5,0.1,0.7c0.1,0.6,0.1,1.3,0.2,1.9c0,0.5,0,1,0,1.4c0,0.2,0,0.4,0,0.6
	c0,0.3,0,0.6-0.1,0.8c0,0.3-0.1,0.6-0.1,0.9c0,0.2,0,0.4-0.1,0.6c-0.1,0.5-0.2,1.1-0.3,1.6c0,0.1-0.1,0.2-0.1,0.3
	c-0.1,0.5-0.2,0.9-0.4,1.4c0,0.2-0.1,0.3-0.1,0.5c-0.2,0.6-0.4,1.1-0.6,1.7c0,0.1-0.1,0.2-0.1,0.3c-0.3,0.8-0.6,1.6-1,2.4
	c0,0.1-0.1,0.2-0.1,0.3c-0.5,1.1-1,2.2-1.6,3.2c0,0.1-0.1,0.1-0.1,0.2c-0.4,0.8-0.9,1.5-1.3,2.2c0,0,0,0,0,0.1
	c-0.5,0.7-0.9,1.5-1.4,2.2c-0.1,0.1-0.1,0.2-0.2,0.3c-0.4,0.6-0.8,1.2-1.2,1.8c-0.1,0.1-0.2,0.2-0.2,0.3c-0.4,0.6-0.8,1.1-1.2,1.7
	c-0.1,0.1-0.1,0.1-0.2,0.2c-0.4,0.5-0.8,1-1.2,1.5c-0.1,0.1-0.1,0.1-0.2,0.2c-0.4,0.5-0.8,1-1.2,1.4c-0.1,0.1-0.2,0.2-0.3,0.3
	c-0.2,0.3-0.5,0.5-0.7,0.8c-0.1,0.1-0.1,0.2-0.2,0.2c-0.3,0.3-0.6,0.6-0.8,0.9c-0.1,0.1-0.1,0.1-0.2,0.2c-0.2,0.2-0.4,0.5-0.6,0.7
	c-0.1,0.1-0.1,0.2-0.2,0.2c-0.2,0.2-0.3,0.4-0.5,0.5c-0.1,0.1-0.1,0.1-0.2,0.2c-0.2,0.2-0.4,0.4-0.6,0.6c0,0,0,0-0.1,0.1
	c-0.2,0.2-0.3,0.3-0.4,0.4l-0.1,0.1c-0.1,0.1-0.2,0.2-0.3,0.3c0,0,0,0-0.1,0.1s-0.1,0.1-0.2,0.2l7.1-2.6c0,0,0.1-0.1,0.2-0.2
	c0,0,0,0,0.1-0.1s0.2-0.2,0.3-0.3l0.1-0.1c0.1-0.1,0.3-0.3,0.4-0.4c0,0,0,0,0.1-0.1c0.2-0.2,0.4-0.4,0.6-0.6
	c0.1-0.1,0.1-0.1,0.2-0.2c0.2-0.2,0.3-0.3,0.5-0.5c0.1-0.1,0.1-0.2,0.2-0.2c0.2-0.2,0.4-0.4,0.6-0.7c0.1-0.1,0.1-0.1,0.2-0.2
	c0.3-0.3,0.5-0.6,0.8-0.9c0.1-0.1,0.1-0.2,0.2-0.2c0.2-0.3,0.5-0.5,0.7-0.8c0.1-0.1,0.1-0.1,0.1-0.2l0.1-0.1
	c0.4-0.5,0.8-0.9,1.2-1.4c0.1-0.1,0.1-0.1,0.2-0.2c0.4-0.5,0.8-1,1.2-1.5c0.1-0.1,0.1-0.1,0.2-0.2c0.4-0.5,0.8-1.1,1.2-1.7
	c0.1-0.1,0.2-0.2,0.3-0.4c0.4-0.6,0.8-1.2,1.2-1.8c0,0,0-0.1,0.1-0.1c0-0.1,0.1-0.1,0.1-0.2c0.5-0.7,0.9-1.4,1.4-2.2c0,0,0,0,0-0.1
	c0.4-0.7,0.9-1.5,1.3-2.2c0-0.1,0.1-0.1,0.1-0.2c0,0,0,0,0-0.1c0.6-1.1,1.1-2.1,1.6-3.2c0,0,0-0.1,0.1-0.1c0-0.1,0.1-0.1,0.1-0.2
	c0.4-0.8,0.7-1.6,1-2.4c0,0,0,0,0-0.1c0-0.1,0-0.1,0.1-0.2c0.2-0.6,0.4-1.1,0.6-1.7c0-0.1,0.1-0.2,0.1-0.3c0-0.1,0-0.1,0.1-0.2
	c0.1-0.5,0.3-0.9,0.4-1.4c0-0.1,0-0.2,0.1-0.3c0,0,0,0,0-0.1c0.1-0.5,0.2-1.1,0.3-1.6l0,0c0-0.2,0-0.4,0.1-0.5
	c0-0.3,0.1-0.6,0.1-0.9c0,0,0,0,0-0.1c0-0.3,0-0.5,0-0.8C53.2,24,53.2,23.8,53.2,23.6z"/>
<path class="st0" d="M34.4,34.9c-0.4,0-0.7,0-1.1-0.1c-0.1,0-0.2,0-0.3,0c-0.4,0-0.7-0.1-1.1-0.2c-0.1,0-0.1,0-0.2,0
	c-0.3-0.1-0.6-0.2-0.9-0.2c-0.1,0-0.2,0-0.2-0.1c-0.3-0.1-0.7-0.2-1-0.4c-0.1,0-0.1-0.1-0.2-0.1c-0.3-0.1-0.5-0.2-0.8-0.4
	c-0.1-0.1-0.2-0.1-0.3-0.2c-0.2-0.1-0.4-0.3-0.6-0.4c-0.1-0.1-0.3-0.2-0.4-0.3c-0.2-0.1-0.3-0.2-0.5-0.3c-0.2-0.2-0.4-0.3-0.6-0.5
	c-0.1-0.1-0.2-0.2-0.3-0.3c-0.5-0.4-0.9-0.9-1.3-1.4c-0.1-0.1-0.2-0.2-0.2-0.3c-0.2-0.3-0.4-0.5-0.6-0.8c-0.1-0.1-0.2-0.3-0.3-0.4
	c-0.2-0.3-0.3-0.5-0.4-0.8c-0.1-0.2-0.2-0.4-0.3-0.5c-0.1-0.1-0.1-0.3-0.2-0.4c-0.1-0.2-0.2-0.5-0.3-0.7c-0.1-0.1-0.1-0.3-0.2-0.4
	c-0.1-0.2-0.1-0.4-0.2-0.6s-0.1-0.5-0.2-0.7c-0.1-0.2-0.1-0.5-0.1-0.7c0-0.1-0.1-0.3-0.1-0.4C21,22.4,21,22,21,21.6c0-0.3,0-0.7,0-1
	c0-0.1,0-0.2,0-0.3c0-0.2,0-0.5,0-0.7c0-0.1,0-0.2,0-0.3c0-0.2,0.1-0.4,0.1-0.6c0-0.1,0-0.2,0.1-0.3c0-0.2,0.1-0.4,0.1-0.6
	c0-0.1,0-0.2,0.1-0.3c0.1-0.2,0.1-0.5,0.2-0.7c0-0.1,0-0.1,0.1-0.2c0.1-0.3,0.2-0.6,0.4-0.9c0.1-0.2,0.2-0.5,0.4-0.7
	c0-0.1,0.1-0.1,0.1-0.2c0.2-0.3,0.4-0.6,0.5-0.9c0-0.1,0.1-0.1,0.1-0.2c0.2-0.3,0.4-0.6,0.6-0.9c0.1-0.1,0.1-0.2,0.2-0.2
	c0.3-0.3,0.6-0.6,0.9-0.9c0.1-0.1,0.1-0.1,0.2-0.2c0.1-0.1,0.3-0.2,0.4-0.3c-1.4,0-2.9,0.3-4.2,0.8c-0.3,0.1-0.6,0.3-0.9,0.4
	c-0.1,0.1-0.3,0.1-0.4,0.2c-0.3,0.2-0.6,0.3-0.8,0.5c-0.1,0.1-0.2,0.1-0.3,0.2l0,0c-0.3,0.2-0.6,0.5-0.9,0.7
	c-0.1,0.1-0.1,0.1-0.2,0.2c-0.3,0.3-0.6,0.6-0.9,0.9c-0.1,0.1-0.2,0.2-0.3,0.4c-0.2,0.2-0.4,0.4-0.5,0.7c-0.1,0.2-0.2,0.3-0.3,0.5
	c-0.1,0.1-0.2,0.3-0.3,0.5s-0.2,0.4-0.3,0.6C15,17.8,15,17.9,14.9,18c-0.2,0.3-0.3,0.7-0.4,1v0.1c-0.1,0.3-0.2,0.6-0.3,1v0.1v0.1
	c-0.1,0.4-0.2,0.7-0.2,1.1l0,0c-0.1,0.4-0.1,0.7-0.1,1.1c0,0.1,0,0.1,0,0.2V23c0,0.4,0,0.8,0,1.2l0,0c0,0.4,0.1,0.8,0.1,1.2l0,0
	c0,0.2,0,0.3,0.1,0.4l0,0c0,0.2,0.1,0.5,0.1,0.7l0,0c0.1,0.3,0.1,0.5,0.2,0.7l0,0c0.1,0.2,0.1,0.4,0.2,0.6l0,0
	c0,0.2,0.1,0.3,0.2,0.4c0.1,0.2,0.2,0.5,0.3,0.7l0,0c0.1,0.1,0.1,0.3,0.2,0.4c0.1,0.2,0.2,0.4,0.3,0.5c0.1,0.3,0.3,0.5,0.4,0.8
	c0.1,0.1,0.2,0.3,0.3,0.4c0.2,0.3,0.4,0.5,0.6,0.8l0,0c0.1,0.1,0.2,0.2,0.2,0.3c0.4,0.5,0.9,1,1.3,1.4l0,0c0.1,0.1,0.2,0.2,0.3,0.3
	c0.2,0.2,0.4,0.3,0.6,0.5c0.2,0.1,0.3,0.2,0.5,0.3l0,0c0.1,0.1,0.3,0.2,0.4,0.3l0,0c0.2,0.1,0.4,0.3,0.6,0.4l0,0
	c0.1,0.1,0.2,0.1,0.3,0.2c0.3,0.1,0.5,0.3,0.8,0.4l0,0c0.1,0,0.1,0.1,0.2,0.1l0,0c0.3,0.1,0.7,0.3,1,0.4c0.1,0,0.2,0,0.2,0.1
	c0.3,0.1,0.6,0.2,0.9,0.2l0,0c0.1,0,0.1,0,0.2,0c0.4,0.1,0.7,0.1,1.1,0.2l0,0c0.1,0,0.2,0,0.3,0c0.4,0,0.7,0.1,1.1,0.1
	s0.8,0,1.2-0.1c0.1,0,0.2,0,0.2,0c0.3,0,0.6-0.1,0.9-0.1h0.1c0.3-0.1,0.6-0.2,0.9-0.2l0,0c0.1,0,0.1,0,0.2-0.1l0,0
	c1.3-0.4,2.6-1.1,3.7-2.1C34.5,34.9,34.4,34.9,34.4,34.9z"/>
<g>
	<path class="st1" d="M25.6,3.9c10.9,0,20,9.3,20.5,20.8c0.7,15.8-17.3,33-18.2,33.9c-1-0.8-20.4-16.9-21.1-33.9
		C6.3,13.2,14.7,3.9,25.6,3.9z M27,37.1c6.8,0,12.1-5.9,11.8-13.1s-6.1-13.1-12.9-13.1S13.7,16.8,14,24S20.1,37.1,27,37.1"/>
</g>
</svg>
