<?xml version="1.0" encoding="utf-8"?>
<!-- Generator: Adobe Illustrator 22.0.1, SVG Export Plug-In . SVG Version: 6.00 Build 0)  -->
<svg version="1.1" id="圖層_1" xmlns="http://www.w3.org/2000/svg" xmlns:xlink="http://www.w3.org/1999/xlink" x="0px" y="0px"
	 viewBox="0 0 82 82" style="enable-background:new 0 0 82 82;" xml:space="preserve">
<style type="text/css">
	.st0{fill:#FFFFFF;}
	.st1{opacity:0.5;}
	.st2{fill:url(#SVGID_1_);}
	.st3{fill:url(#SVGID_2_);}
</style>
<rect class="st0" width="82" height="82"/>
<g class="st1">
	
		<linearGradient id="SVGID_1_" gradientUnits="userSpaceOnUse" x1="6.7659" y1="37.1779" x2="71.1527" y2="36.9385" gradientTransform="matrix(1 0 0 -1 0 82)">
		<stop  offset="0" style="stop-color:#308CFE"/>
		<stop  offset="0.4708" style="stop-color:#62BCFF"/>
		<stop  offset="0.9991" style="stop-color:#308CFE"/>
	</linearGradient>
	<ellipse class="st2" cx="41" cy="44.9" rx="7.6" ry="7.7"/>
	
		<linearGradient id="SVGID_2_" gradientUnits="userSpaceOnUse" x1="6.7805" y1="41.1097" x2="71.1673" y2="40.8704" gradientTransform="matrix(1 0 0 -1 0 82)">
		<stop  offset="0" style="stop-color:#308CFE"/>
		<stop  offset="0.4708" style="stop-color:#62BCFF"/>
		<stop  offset="0.9991" style="stop-color:#308CFE"/>
	</linearGradient>
	<path class="st3" d="M61.7,25.8h-5.2v-3.7c0-2.3-1.9-4.2-4.2-4.2H29.7c-2.3,0-4.2,1.9-4.2,4.2v3.7h-5.2c-4,0-7.3,3.3-7.3,7.3v23.5
		c0,4.1,3.3,7.4,7.3,7.4h41.4c4,0,7.3-3.3,7.3-7.4V33.2C69,29.2,65.7,25.8,61.7,25.8z M41,59c-7.7,0-13.9-6.2-13.9-14
		s6.2-14,13.9-14s13.9,6.2,13.9,14C54.9,52.6,48.7,59,41,59z M57.6,33.6c-1.1,0-1.9-0.9-1.9-1.9c0-1.1,0.9-1.9,1.9-1.9
		c1.1,0,1.9,0.9,1.9,1.9C59.5,32.7,58.6,33.6,57.6,33.6z"/>
</g>
</svg>
