<?xml version="1.0" encoding="utf-8"?>
<!-- Generator: Adobe Illustrator 22.0.1, SVG Export Plug-In . SVG Version: 6.00 Build 0)  -->
<svg version="1.1" id="圖層_1" xmlns="http://www.w3.org/2000/svg" xmlns:xlink="http://www.w3.org/1999/xlink" x="0px" y="0px"
	 viewBox="0 0 24 24" style="enable-background:new 0 0 24 24;" xml:space="preserve">
<style type="text/css">
	.st0{fill:#308CFE;}
</style>
<path class="st0" d="M17,4h-10C6.3,4,5.7,4.6,5.7,5.3v10.9c0,0.8,0.6,1.3,1.3,1.3h1.2l-1,2.2C7,19.7,7.1,20,7.4,20h0.8H16h0.8
	c0.3,0,0.3-0.3,0.3-0.4l-1.1-2.2h1.2c0.8,0,1.3-0.6,1.3-1.3V5.3C18.2,4.6,17.7,4,17,4z M9.6,5.1h4.9c0.3,0,0.5,0.3,0.5,0.5
	c0,0.3-0.2,0.5-0.5,0.5H9.6c-0.3,0-0.5-0.3-0.5-0.5S9.2,5.1,9.6,5.1z M7.1,14.5c0-0.4,0.3-0.8,0.8-0.8c0.4,0,0.8,0.3,0.8,0.8
	c0,0.4-0.3,0.8-0.8,0.8C7.5,15.3,7.1,14.9,7.1,14.5z M15.3,18.7c0.1,0.2,0,0.5-0.3,0.5H9c-0.3,0-0.4-0.3-0.3-0.5l0.6-1.3h5.5
	L15.3,18.7z M16,15.3c-0.4,0-0.8-0.3-0.8-0.8s0.3-0.8,0.8-0.8s0.8,0.3,0.8,0.8C16.8,14.9,16.5,15.3,16,15.3z M16.8,11.3
	c0,0.3-0.3,0.5-0.5,0.5H7.6c-0.3,0-0.5-0.3-0.5-0.5V8c0-0.3,0.3-0.5,0.5-0.5h8.7c0.3,0,0.5,0.3,0.5,0.5V11.3z"/>
</svg>
