<?xml version="1.0" encoding="utf-8"?>
<!-- Generator: Adobe Illustrator 22.0.1, SVG Export Plug-In . SVG Version: 6.00 Build 0)  -->
<svg version="1.1" id="圖層_1" xmlns="http://www.w3.org/2000/svg" xmlns:xlink="http://www.w3.org/1999/xlink" x="0px" y="0px"
	 viewBox="0 0 40 40" style="enable-background:new 0 0 40 40;" xml:space="preserve">
<style type="text/css">
	.st0{fill:none;stroke:#308CFE;stroke-width:2;stroke-miterlimit:10;}
	.st1{fill:none;stroke:#308CFE;stroke-width:2;stroke-linejoin:round;stroke-miterlimit:8;}
	.st2{fill:none;stroke:#308CFE;stroke-width:2;stroke-linecap:round;stroke-miterlimit:10;}
</style>
<g>
	<path class="st0" d="M28.2,9.1c-0.1-3.6-3.8-6.5-8.4-6.5s-8.4,3-8.4,6.7"/>
	<path class="st1" d="M35.1,14.1H4.5c-1.1,0-2-0.9-2-2v-0.9c0-1.1,0.9-2,2-2H35c1.1,0,2,0.9,2,2v0.9C37.1,13.2,36.2,14.1,35.1,14.1z
		"/>
	<path class="st1" d="M35.1,37.4H4.5c-1.1,0-2-0.9-2-2v-0.9c0-1.1,0.9-2,2-2H35c1.1,0,2,0.9,2,2v0.9C37.1,36.5,36.2,37.4,35.1,37.4z
		"/>
	<rect x="6" y="14.1" class="st2" width="27.6" height="18.4"/>
	<line class="st1" x1="12" y1="17.1" x2="12" y2="17.1"/>
	<line class="st1" x1="12.9" y1="14.1" x2="12.9" y2="32.5"/>
	<line class="st1" x1="19.8" y1="14.1" x2="19.8" y2="32.5"/>
	<line class="st1" x1="26.7" y1="14.1" x2="26.7" y2="32.5"/>
</g>
</svg>
