<?xml version="1.0" encoding="utf-8"?>
<!-- Generator: Adobe Illustrator 23.0.2, SVG Export Plug-In . SVG Version: 6.00 Build 0)  -->
<svg version="1.1" id="圖層_1" xmlns="http://www.w3.org/2000/svg" xmlns:xlink="http://www.w3.org/1999/xlink" x="0px" y="0px"
	 viewBox="0 0 36 24" style="enable-background:new 0 0 36 24;" xml:space="preserve">
<style type="text/css">
	.st0{fill-rule:evenodd;clip-rule:evenodd;fill:#FFFFFF;}
	.st1{fill-rule:evenodd;clip-rule:evenodd;fill:#0032AF;}
	.st2{fill-rule:evenodd;clip-rule:evenodd;fill:#C80000;}
	.st3{fill-rule:evenodd;clip-rule:evenodd;fill:#FAC800;}
</style>
<g>
	<path class="st0" d="M0,0h36v24H0L0,0z"/>
	<g transform="matrix(.84131 0 0 .84131 97.874 59.609)">
		<path class="st1" d="M-116.3-70.8h42.7v14.2h-23.5L-116.3-70.8z"/>
		<path class="st2" d="M-116.3-42.4h42.7v-14.2h-23.5L-116.3-42.4z"/>
	</g>
	<g>
		<g>
			<path class="st3" d="M7.7,12c0,1.2-1,2.2-2.2,2.2s-2.2-1-2.2-2.2s1-2.2,2.2-2.2S7.7,10.8,7.7,12z"/>
			<g transform="matrix(.23408 0 0 .23408 308.5 203.44)">
				<path class="st3" d="M-1293.9-826.3l-1.3,0l-1.2-10.4l1.8-2.2l1.8,2.2L-1293.9-826.3L-1293.9-826.3z"/>
				<path class="st3" d="M-1292.3-836.5l1.2,0.7l-1.8,9.6l-1-0.2L-1292.3-836.5L-1292.3-836.5z"/>
				<path class="st3" d="M-1296.7-836.5l-1.2,0.7l1.8,9.6l1-0.2L-1296.7-836.5L-1296.7-836.5z"/>
			</g>
			<g transform="matrix(.23408 0 0 -.23408 308.5 563.56)">
				<path class="st3" d="M-1293.9,2347.6l-1.3,0l-1.2-10.4l1.8-2.2l1.8,2.2L-1293.9,2347.6L-1293.9,2347.6z"/>
				<path class="st3" d="M-1292.3,2337.4l1.2,0.7l-1.8,9.6l-1-0.2L-1292.3,2337.4L-1292.3,2337.4z"/>
				<path class="st3" d="M-1296.7,2337.4l-1.2,0.7l1.8,9.6l1-0.2L-1296.7,2337.4L-1296.7,2337.4z"/>
			</g>
			<g transform="matrix(0 .23408 .23408 0 79.793 426.58)">
				<path class="st3" d="M-1770.9-326.4l-1.3,0l-1.2-10.4l1.8-2.2l1.8,2.2L-1770.9-326.4L-1770.9-326.4z"/>
				<path class="st3" d="M-1769.3-336.5l1.2,0.7l-1.8,9.6l-1-0.2L-1769.3-336.5L-1769.3-336.5z"/>
				<path class="st3" d="M-1773.7-336.5l-1.2,0.7l1.8,9.6l1-0.2L-1773.7-336.5L-1773.7-336.5z"/>
			</g>
			<g transform="matrix(0 .23408 -.23408 0 443.56 426.58)">
				<path class="st3" d="M-1770.9,1862.7l-1.3,0l-1.2-10.4l1.8-2.2l1.8,2.2L-1770.9,1862.7L-1770.9,1862.7z"/>
				<path class="st3" d="M-1769.3,1852.5l1.2,0.7l-1.8,9.6l-1-0.2L-1769.3,1852.5L-1769.3,1852.5z"/>
				<path class="st3" d="M-1773.7,1852.5l-1.2,0.7l1.8,9.6l1-0.2L-1773.7,1852.5L-1773.7,1852.5z"/>
			</g>
			<g transform="matrix(.16552 .16552 -.16552 .16552 425.22 287.49)">
				<path class="st3" d="M-2099.3,426.8l-1.3,0l-1.2-10.4l1.8-2.2l1.8,2.2L-2099.3,426.8L-2099.3,426.8z"/>
				<path class="st3" d="M-2097.7,416.6l1.2,0.7l-1.8,9.6l-1-0.2L-2097.7,416.6L-2097.7,416.6z"/>
				<path class="st3" d="M-2102.1,416.6l-1.2,0.7l1.8,9.6l1-0.2L-2102.1,416.6L-2102.1,416.6z"/>
			</g>
			<g transform="matrix(-.16552 .16552 .16552 .16552 102.08 287.49)">
				<path class="st3" d="M-539.9-1132.7l-1.3,0l-1.2-10.4l1.8-2.2l1.8,2.2L-539.9-1132.7L-539.9-1132.7z"/>
				<path class="st3" d="M-538.3-1142.8l1.2,0.7l-1.8,9.6l-1-0.2L-538.3-1142.8L-538.3-1142.8z"/>
				<path class="st3" d="M-542.7-1142.8l-1.2,0.7l1.8,9.6l1-0.2L-542.7-1142.8L-542.7-1142.8z"/>
			</g>
			<g transform="matrix(-.16552 -.16552 .16552 -.16552 100.08 478.09)">
				<path class="st3" d="M1694.5,1113.3l-1.3,0l-1.2-10.4l1.8-2.2l1.8,2.2L1694.5,1113.3L1694.5,1113.3z"/>
				<path class="st3" d="M1696,1103.2l1.2,0.7l-1.8,9.6l-1-0.2L1696,1103.2L1696,1103.2z"/>
				<path class="st3" d="M1691.6,1103.2l-1.2,0.7l1.8,9.6l1-0.2L1691.6,1103.2L1691.6,1103.2z"/>
			</g>
			<g transform="matrix(.16552 -.16552 -.16552 -.16552 421.98 478.09)">
				<path class="st3" d="M150.3,2657.5l-1.3,0l-1.2-10.4l1.8-2.2l1.8,2.2L150.3,2657.5L150.3,2657.5z"/>
				<path class="st3" d="M151.9,2647.3l1.2,0.7l-1.8,9.6l-1-0.2L151.9,2647.3L151.9,2647.3z"/>
				<path class="st3" d="M147.5,2647.3l-1.2,0.7l1.8,9.6l1-0.2L147.5,2647.3L147.5,2647.3z"/>
			</g>
		</g>
		<g>
			<path class="st3" d="M3.1,5.2L2,4.9L1.4,5.8L1.3,4.7l-1-0.3l1-0.4l0-1.1l0.7,0.8l1-0.3L2.4,4.3L3.1,5.2L3.1,5.2z"/>
			<path class="st3" d="M2.8,20.9l-1-0.5l-0.8,0.7L1.1,20l-0.9-0.6l1.1-0.2l0.3-1.1l0.5,1l1.1-0.1l-0.8,0.8L2.8,20.9L2.8,20.9z"/>
			<path class="st3" d="M13.7,13.5l-0.9-0.6l-0.9,0.6l0.3-1l-0.8-0.7l1.1,0l0.4-1l0.4,1l1.1,0.1l-0.9,0.7L13.7,13.5L13.7,13.5z"/>
		</g>
	</g>
</g>
</svg>
