<?xml version="1.0" encoding="utf-8"?>
<!-- Generator: Adobe Illustrator 22.0.1, SVG Export Plug-In . SVG Version: 6.00 Build 0)  -->
<svg version="1.1" id="圖層_1" xmlns="http://www.w3.org/2000/svg" xmlns:xlink="http://www.w3.org/1999/xlink" x="0px" y="0px"
	 viewBox="0 0 36 24" style="enable-background:new 0 0 36 24;" xml:space="preserve">
<style type="text/css">
	.st0{fill:#F7E017;}
	.st1{fill:#FFFFFF;}
	.st2{fill:#CF1126;}
</style>
<g>
	<rect class="st0" width="36" height="24"/>
	<path class="st1" d="M0,1.7v10.7l36,5v-5.7L0,1.7z"/>
	<path d="M0,7.3v5l36,10v-5L0,7.3z"/>
	<g>
		<g>
			<path class="st2" d="M17.4,17.2c-0.5-0.1-0.9-0.2-1.2-0.4c-0.1,0-0.1-0.1-0.1-0.1c0,0,0,0,0,0.1c0,0.2-0.1,0.2-0.2,0.3
				c-0.2,0-0.4,0-0.6-0.2c-0.2-0.2-0.4-0.3-0.6-0.3c-0.2,0-0.4,0-0.5,0c-0.1,0-0.2,0.1-0.2,0.1c0,0-0.1,0-0.1,0c0,0,0-0.2,0-0.2
				c0-0.1,0.1-0.1,0.2-0.2c0.1,0,0.1,0,0.1-0.1c0,0,0-0.1,0-0.1c-0.1-0.1,0-0.2,0.1-0.3c0.1-0.1,0.3-0.1,0.5,0c0,0,0.1,0,0.1,0
				c0,0,0,0-0.1-0.1c-0.1-0.1-0.1-0.2-0.1-0.3c0-0.2,0.2-0.3,0.3-0.3c0.1,0,0.2,0,0.5,0.2c0.6,0.6,1.3,0.9,2.2,1c0.2,0,0.6,0,0.9,0
				c0.7-0.1,1.5-0.5,2-1c0.2-0.2,0.2-0.2,0.4-0.2c0.1,0,0.2,0,0.3,0.1c0.1,0.1,0.1,0.2,0.1,0.3c0,0.1,0,0.1-0.1,0.2
				c-0.1,0.1-0.1,0.1,0.1,0.1c0.2-0.1,0.4,0,0.5,0.1c0.1,0.1,0.1,0.2,0,0.4c0,0.1-0.1,0.1-0.1,0.1c0,0,0,0,0.1,0
				c0.1,0,0.2,0.1,0.2,0.3c0,0.1,0,0.1,0,0.1c0,0-0.1,0-0.1,0c-0.2-0.1-0.3-0.1-0.5-0.1c-0.2,0-0.2,0-0.3,0
				c-0.2,0.1-0.3,0.2-0.5,0.3c-0.2,0.1-0.3,0.2-0.4,0.2c-0.1,0-0.2,0-0.3-0.1c0,0,0-0.1,0-0.2c0-0.1,0-0.1,0-0.1c0,0-0.1,0-0.1,0.1
				c-0.2,0.1-0.3,0.2-0.5,0.2C18.9,17.2,18,17.3,17.4,17.2L17.4,17.2z"/>
			<path class="st2" d="M17.7,16.1c-1-0.1-1.9-0.6-2.4-1.4c-0.6-0.8-0.8-1.9-0.6-2.9c0.1-0.5,0.3-0.9,0.6-1.2
				c-0.3,0.6-0.4,1.2-0.2,1.9c0.2,1.2,1.3,2.3,2.5,2.5c0.5,0.1,1,0,1.5-0.2c1-0.4,1.8-1.4,1.9-2.5c0.1-0.6,0-1.2-0.3-1.8
				c0.2,0.1,0.3,0.4,0.5,0.6c0.4,0.8,0.4,1.7,0.2,2.5c-0.3,1.1-1.1,2-2.2,2.3C18.7,16.1,18.2,16.2,17.7,16.1L17.7,16.1z"/>
			<g id="hand">
				<path class="st2" d="M12.8,14.7c-0.1,0-0.1,0.1-0.1,0.1c0,0.1,0.1,0.1,0.2,0.1c0.2,0.1,0.4,0.1,0.5,0.1c-0.1,0,0,0,0,0
					c0.1,0,0.3,0,0.4-0.1c0.1,0,0.2-0.1,0.2-0.1c0-0.1,0-0.1-0.1-0.1c-0.1,0-0.1,0.1-0.2,0.1c-0.2,0-0.3,0.1-0.5,0.1
					c-0.1,0-0.2-0.1-0.4-0.1C12.9,14.8,12.8,14.8,12.8,14.7L12.8,14.7z"/>
				<path class="st2" d="M12.9,14.5c-0.1,0-0.1,0.1-0.1,0.1c0,0.1,0.1,0.1,0.2,0.1c0.1,0.1,0.3,0.1,0.4,0.1c-0.1,0,0,0,0,0
					c0.1,0,0.2,0,0.4-0.1c0.1,0,0.2-0.1,0.2-0.1c0,0,0-0.1,0-0.1c0,0-0.1,0-0.1,0c-0.2,0.1-0.3,0.1-0.5,0.1c-0.1,0-0.2-0.1-0.3-0.1
					C12.9,14.5,12.9,14.5,12.9,14.5L12.9,14.5z"/>
				<path class="st2" d="M13,14.2c-0.1,0-0.1,0.1-0.1,0.1c0,0,0,0.1,0.1,0.1c0.1,0.1,0.3,0.1,0.5,0.1c-0.1,0,0.1,0,0,0
					c0.1,0,0.2,0,0.3-0.1c0.1,0,0.1-0.1,0.2-0.1c0,0,0-0.1,0-0.1c0,0-0.1,0-0.1,0c-0.1,0.1-0.3,0.1-0.4,0.1c-0.1,0-0.2,0-0.3-0.1
					C13,14.3,13,14.2,13,14.2L13,14.2z"/>
				<path class="st2" d="M12,10.6c-0.1,0.1,0,0.2,0,0.3c0,0.3,0.1,0.7,0.2,1c0.2,0.3,0.5,0.5,0.7,0.7c0.1,0.1,0,0.3,0.1,0.4
					c0,0.4,0,0.8,0,1.2c0.2,0.1,0.4,0.2,0.6,0.1c0.1,0,0.3,0,0.4-0.2c0-0.7,0-1.3,0-2c-0.1-0.2-0.3-0.3-0.4-0.4
					c-0.1-0.1-0.2-0.3-0.4-0.4c-0.1-0.1-0.3-0.2-0.2,0c0.1,0.2,0.2,0.3,0.2,0.5c0,0.1,0.1,0.3,0,0.3c-0.1-0.1-0.2-0.2-0.3-0.2
					c-0.1-0.1-0.3-0.1-0.3-0.3c0-0.2-0.1-0.4-0.3-0.5C12.3,10.9,12.2,10.7,12,10.6L12,10.6L12,10.6L12,10.6z"/>
				<path class="st2" d="M12.3,10.6c-0.1,0-0.1,0.1,0,0.2c0,0.1,0,0.2,0,0.3c0.1,0.2,0.2,0.3,0.3,0.5c0,0.1,0.1,0.1,0.1,0.1
					c0.1,0.1,0.3,0.1,0.4,0.2c0,0,0,0.1,0,0c0-0.1,0-0.1-0.1-0.2c-0.1-0.1-0.2-0.1-0.3-0.2c0-0.1-0.1-0.2-0.1-0.3
					c-0.1-0.1-0.1-0.2-0.2-0.2C12.4,11,12.4,10.8,12.3,10.6C12.4,10.6,12.3,10.6,12.3,10.6L12.3,10.6z"/>
				<path class="st2" d="M12.5,10.7c-0.1,0,0,0.1,0,0.1c0,0.1,0,0.2,0,0.3c0.1,0.1,0.2,0.2,0.2,0.3c0,0.1,0.1,0.1,0.1,0.2
					c0.1,0,0.1,0.1,0.2,0.1c0-0.1-0.1-0.1-0.1-0.2c0-0.1-0.1-0.1-0.1-0.2c-0.1-0.1-0.1-0.2-0.1-0.3C12.7,10.9,12.6,10.8,12.5,10.7
					C12.5,10.7,12.5,10.7,12.5,10.7L12.5,10.7z"/>
				<path class="st2" d="M12.7,10.7C12.7,10.7,12.7,10.7,12.7,10.7c-0.1,0.1,0,0.1,0,0.1c0,0.1,0,0.2,0,0.3c0,0.1,0,0.1,0.1,0.2
					c0,0,0-0.1,0.1-0.1c0,0,0,0,0,0c0-0.1,0-0.2-0.1-0.4C12.8,10.8,12.8,10.7,12.7,10.7C12.7,10.7,12.7,10.7,12.7,10.7L12.7,10.7z"
					/>
			</g>
			<g transform="matrix(-1,0,0,1,1440,0)">
				<g id="hand_1_">
					<path class="st2" d="M23.2,14.7c0.1,0,0.1,0.1,0.1,0.1c0,0.1-0.1,0.1-0.2,0.1c-0.2,0.1-0.4,0.1-0.5,0.1c0.1,0,0,0,0,0
						c-0.1,0-0.3,0-0.4-0.1c-0.1,0-0.2-0.1-0.2-0.1c0-0.1,0-0.1,0.1-0.1c0.1,0,0.1,0.1,0.2,0.1c0.2,0,0.3,0.1,0.5,0.1
						c0.1,0,0.2-0.1,0.4-0.1C23.1,14.8,23.2,14.8,23.2,14.7L23.2,14.7z"/>
					<path class="st2" d="M23.1,14.5c0.1,0,0.1,0.1,0.1,0.1c0,0.1-0.1,0.1-0.2,0.1c-0.1,0.1-0.3,0.1-0.4,0.1c0.1,0,0,0,0,0
						c-0.1,0-0.2,0-0.4-0.1c-0.1,0-0.2-0.1-0.2-0.1c0,0,0-0.1,0-0.1c0,0,0.1,0,0.1,0c0.2,0.1,0.3,0.1,0.5,0.1c0.1,0,0.2-0.1,0.3-0.1
						C23.1,14.5,23.1,14.5,23.1,14.5L23.1,14.5z"/>
					<path class="st2" d="M23,14.2c0.1,0,0.1,0.1,0.1,0.1c0,0,0,0.1-0.1,0.1c-0.1,0.1-0.3,0.1-0.5,0.1c0.1,0-0.1,0,0,0
						c-0.1,0-0.2,0-0.3-0.1c-0.1,0-0.1-0.1-0.2-0.1c0,0,0-0.1,0-0.1c0,0,0.1,0,0.1,0c0.1,0.1,0.3,0.1,0.4,0.1c0.1,0,0.2,0,0.3-0.1
						C23,14.3,23,14.2,23,14.2L23,14.2z"/>
					<path class="st2" d="M24,10.6c0.1,0.1,0,0.2,0,0.3c0,0.3-0.1,0.7-0.2,1c-0.2,0.3-0.5,0.5-0.7,0.7c-0.1,0.1,0,0.3-0.1,0.4
						c0,0.4,0,0.8,0,1.2c-0.2,0.1-0.4,0.2-0.6,0.1c-0.1,0-0.3,0-0.4-0.2c0-0.7,0-1.3,0-2c0.1-0.2,0.3-0.3,0.4-0.4
						c0.1-0.1,0.2-0.3,0.4-0.4c0.1-0.1,0.3-0.2,0.2,0c-0.1,0.2-0.2,0.3-0.2,0.5c0,0.1-0.1,0.3,0,0.3c0.1-0.1,0.2-0.2,0.3-0.2
						c0.1-0.1,0.3-0.1,0.3-0.3c0-0.2,0.1-0.4,0.3-0.5C23.7,10.9,23.8,10.7,24,10.6L24,10.6L24,10.6L24,10.6z"/>
					<path class="st2" d="M23.7,10.6c0.1,0,0.1,0.1,0,0.2c0,0.1,0,0.2,0,0.3c-0.1,0.2-0.2,0.3-0.3,0.5c0,0.1-0.1,0.1-0.1,0.1
						c-0.1,0.1-0.3,0.1-0.4,0.2c0,0,0,0.1,0,0c0-0.1,0-0.1,0.1-0.2c0.1-0.1,0.2-0.1,0.3-0.2c0-0.1,0.1-0.2,0.1-0.3
						c0.1-0.1,0.1-0.2,0.2-0.2C23.6,11,23.6,10.8,23.7,10.6C23.6,10.6,23.7,10.6,23.7,10.6L23.7,10.6z"/>
					<path class="st2" d="M23.5,10.7c0.1,0,0,0.1,0,0.1c0,0.1,0,0.2,0,0.3c-0.1,0.1-0.2,0.2-0.2,0.3c0,0.1-0.1,0.1-0.1,0.2
						c-0.1,0-0.1,0.1-0.2,0.1c0-0.1,0.1-0.1,0.1-0.2c0-0.1,0.1-0.1,0.1-0.2c0.1-0.1,0.1-0.2,0.1-0.3C23.3,10.9,23.4,10.8,23.5,10.7
						C23.5,10.7,23.5,10.7,23.5,10.7L23.5,10.7z"/>
					<path class="st2" d="M23.3,10.7C23.3,10.7,23.3,10.7,23.3,10.7c0.1,0.1,0,0.1,0,0.1c0,0.1,0,0.2,0,0.3c0,0.1,0,0.1-0.1,0.2
						c0,0,0-0.1-0.1-0.1c0,0,0,0,0,0c0-0.1,0-0.2,0.1-0.4C23.2,10.8,23.2,10.7,23.3,10.7C23.3,10.7,23.3,10.7,23.3,10.7L23.3,10.7z"
						/>
				</g>
			</g>
			<path class="st2" d="M17.9,14.9c-0.3,0-0.6-0.3-0.7-0.6c0-0.1,0.1,0,0.1,0c0.1,0,0.1,0.1,0.2,0.1c0.1,0,0.1,0.1,0.2,0.2
				c0,0,0.2,0.1,0.2,0c0-0.1-0.1-0.1,0-0.2c0-0.1,0.1-0.2,0.2-0.3c0.1,0,0.1,0.1,0.1,0.1c0.1,0.1,0.1,0.2,0.1,0.3c0,0-0.1,0.2,0,0.1
				c0.1,0,0.2-0.1,0.3-0.2c0.1-0.1,0.2-0.1,0.2-0.1c0,0,0.1-0.1,0.1,0c0,0.1-0.1,0.2-0.2,0.3c-0.1,0.1-0.3,0.2-0.5,0.3
				C18.1,14.9,18,14.9,17.9,14.9L17.9,14.9z"/>
			<path class="st2" d="M18.3,14.5c0-0.1,0-0.1,0-0.2c-0.1-0.1-0.1-0.2-0.2-0.3c-0.1,0-0.1,0.1-0.2,0.1c-0.1,0.1-0.2,0.2-0.2,0.4
				c0,0.1-0.1-0.1-0.1-0.1c-0.1-0.1-0.1-0.2-0.1-0.3c0-0.2,0-0.4,0.1-0.5c0-0.1,0.1-0.3,0.1-0.4c0-0.1,0-0.2-0.1-0.3
				c-0.1-0.1,0.1-0.1,0.1,0c0.1,0,0.1,0.1,0.2,0.1c0-0.1,0-0.1,0.1-0.2c0.1-0.1,0.1,0,0.1,0.1c0,0,0,0.2,0.1,0.2
				c0.1-0.1,0.1-0.2,0.2-0.2c0,0,0.1,0,0.1,0c-0.1,0.1-0.1,0.2-0.2,0.3c0,0.1,0,0.3,0.1,0.4c0.1,0.2,0.2,0.5,0.1,0.8
				C18.5,14.3,18.4,14.4,18.3,14.5C18.3,14.5,18.3,14.5,18.3,14.5L18.3,14.5z"/>
			<path class="st2" d="M18.2,12.7c0-0.1-0.1-0.1-0.1-0.2c-0.1,0-0.1,0.1-0.1,0.1c0,0.1-0.1,0.1-0.1,0.1c-0.1-0.1-0.1-0.2-0.1-0.3
				c0-0.2,0.1-0.4,0.1-0.5c0-0.1,0-0.2,0-0.3c0-0.1-0.1-0.2-0.2-0.3c0,0,0.1,0,0.1,0c0.1,0,0.1,0.1,0.2,0.1c0,0,0-0.1,0-0.1
				c0-0.1,0.1-0.1,0.1-0.1c0,0.1,0,0.2,0.1,0.2c0.1,0,0.1-0.1,0.1-0.1c0.1,0,0.1,0,0.2,0c0,0.1-0.1,0.1-0.1,0.1
				c-0.1,0.1-0.1,0.3-0.1,0.5c0,0.1,0.1,0.2,0.1,0.4c0,0.1,0,0.3,0,0.4C18.4,12.7,18.3,12.8,18.2,12.7
				C18.2,12.8,18.2,12.8,18.2,12.7L18.2,12.7z"/>
			<path class="st2" d="M17.8,11.2c-0.1-0.1-0.1-0.1-0.1-0.2c0-0.1,0-0.1,0.1-0.1c0.1-0.1,0-0.1,0-0.1c-0.1,0-0.2,0-0.2-0.1
				c0-0.1,0-0.1,0.1-0.2c0.1-0.1,0.1-0.1,0.1-0.1c0,0-0.1,0-0.2,0.2c-0.1,0.1-0.2,0.2-0.3,0.3c-0.2,0.2-0.5,0.2-0.6,0.1
				c-0.1-0.1-0.1-0.1,0-0.1c0,0,0.1-0.1,0.1-0.1c0.1-0.1,0.3-0.2,0.4-0.3c0.1,0,0.1-0.1,0.1-0.1c-0.1,0-0.3,0.2-0.5,0.3
				c-0.1,0-0.1,0.1-0.2,0.1c-0.1,0-0.3,0.1-0.3,0c-0.1,0-0.2-0.1-0.2-0.1c0,0,0,0,0.1,0c0,0,0.1-0.1,0.1-0.1
				c0.1-0.1,0.4-0.3,0.6-0.3c0.1,0,0,0,0,0c-0.1,0-0.4,0.1-0.6,0.3c-0.2,0.2-0.5,0.2-0.6,0c0,0,0-0.1,0-0.1c0,0,0.1,0,0.1,0
				c0.1,0,0.2-0.1,0.4-0.2c0.2-0.1,0.3-0.1,0.5-0.2c0.1,0,0.1,0,0-0.1c-0.1,0-0.2,0-0.5,0.2c-0.3,0.2-0.4,0.2-0.6,0.2
				c-0.1,0-0.2,0-0.4-0.2C15,10,14.9,9.8,14.9,9.7c0,0,0,0,0.1,0c0,0,0.2,0,0.3,0c0.2,0,0.3,0,0.4,0c0.2-0.1,0.4-0.2,0.6-0.3
				c0.3-0.2,0.6-0.3,0.9-0.3c0.3,0,0.5,0.1,0.7,0.2C17.9,9.4,18,9.4,18,9.4c0,0,0-0.1,0-0.2c0,0,0.1,0,0.1,0c0,0.2,0,0.2,0,0.2
				c0,0,0,0,0.1,0c0-0.1,0.1-0.2,0.2-0.2c0.2-0.1,0.6-0.1,0.9,0c0.1,0,0.3,0.1,0.4,0.2c0.1,0.1,0.4,0.3,0.6,0.3c0.2,0,0.5,0.1,0.6,0
				c0.1,0,0.1,0,0.1,0c0.1,0,0,0.2-0.2,0.3c-0.2,0.2-0.5,0.2-0.9,0c-0.2-0.1-0.5-0.2-0.5-0.1c0,0,0,0,0,0c0.1,0,0.2,0.1,0.5,0.2
				c0.2,0.1,0.4,0.2,0.5,0.2c0.1,0,0.1,0,0,0.1c-0.1,0.1-0.2,0.1-0.3,0.1c-0.1,0-0.2,0-0.3-0.1c-0.2-0.2-0.7-0.3-0.7-0.2
				c0,0,0,0,0.1,0c0.2,0,0.4,0.1,0.6,0.3c0.1,0,0.1,0.1,0.1,0.1c0,0,0,0,0,0.1c0,0.1-0.1,0.1-0.2,0.1c-0.1,0-0.2,0-0.4-0.1
				c-0.2-0.2-0.5-0.4-0.6-0.4c-0.1,0,0,0,0.1,0.1c0.1,0.1,0.3,0.2,0.4,0.3c0.1,0,0.1,0.1,0.1,0.1c0,0,0,0.1,0,0.1
				c-0.1,0.1-0.1,0.1-0.2,0.1c-0.2,0-0.4-0.1-0.6-0.4c-0.1-0.1-0.2-0.2-0.2-0.2c0,0,0,0,0.1,0.1c0.1,0.1,0.1,0.1,0.1,0.2
				c0,0.1-0.1,0.1-0.2,0.1c-0.1,0-0.1,0,0,0.1c0.1,0.1,0.1,0.3,0,0.4c0,0-0.1,0.1-0.1,0.1c0,0,0,0-0.1-0.1c-0.1-0.1-0.1-0.1-0.2,0
				C17.9,11.2,17.9,11.2,17.8,11.2C17.9,11.2,17.8,11.2,17.8,11.2L17.8,11.2z"/>
			<path class="st2" d="M18.2,8.8L18,8.9l-0.1-0.1v0.7l0.2,0V8.8z"/>
			<path class="st2" d="M17.4,8.1c0,0.3-0.1,0.6-0.2,0.8l0.3-0.3l0.2,0.2l0.2-0.2L18,8.9l0.2-0.2l0.2,0.2l0.2-0.2L19,8.9
				c-0.1-0.3-0.3-0.5-0.2-0.8C18.4,8.3,17.7,8.4,17.4,8.1L17.4,8.1z"/>
			<path class="st2" d="M17.9,7.9c-0.1,0-0.2,0-0.3,0c-0.1,0-0.1,0-0.2,0.1c0,0.2,1,0.3,1.3,0C18.6,8,18.6,8,18.5,8
				c-0.1,0-0.2,0-0.3,0c0,0.1,0,0.1,0,0.2l-0.2,0V7.9L17.9,7.9z"/>
			<path class="st2" d="M18.1,6.8l-0.2,0v1.2l0.2,0L18.1,6.8z"/>
			<path class="st2" d="M18.1,6.9l-0.1,0.6l0.6,0.3l-0.3-0.4l0.4-0.1L18.1,6.9z"/>
			<path class="st2" d="M18.1,6.7c-0.1,0-0.2,0-0.2,0.1s0.1,0.1,0.2,0.1c0.1,0,0.2,0,0.2-0.1S18.1,6.7,18.1,6.7z"/>
		</g>
		<g>
			<path class="st0" d="M17.8,17.1c0.1,0,0.2-0.1,0.2-0.2c0-0.1,0-0.1,0-0.1c0,0-0.1,0-0.1,0c0,0,0,0,0,0.1c0,0.1,0,0.2-0.3,0.2
				c0,0-0.1,0-0.2,0c-0.1,0-0.2,0-0.1,0c0,0,0,0,0.1,0C17.4,17.1,17.7,17.1,17.8,17.1L17.8,17.1z"/>
			<path class="st0" d="M18.3,17.1c0,0,0.1,0,0.1-0.1c0.1,0,0.1,0,0.1-0.1c0.1-0.1,0.1-0.2-0.1-0.4c-0.1-0.1-0.1-0.1-0.1,0
				c0,0.1,0,0.1,0,0.1c0,0,0.1,0,0.1,0.1c0.1,0.1,0,0.2-0.1,0.2C18.3,16.9,18.3,17,18.3,17.1C18.3,17,18.3,17.1,18.3,17.1
				C18.3,17.1,18.3,17.1,18.3,17.1L18.3,17.1z"/>
			<path class="st0" d="M18.1,16.9c0,0,0-0.1,0-0.3c0-0.1,0-0.2,0-0.2c0,0-0.1,0-0.1,0.1c0,0,0,0.1,0,0.1c0,0,0,0.1,0,0.3
				C18.1,17,18.1,17.1,18.1,16.9L18.1,16.9z"/>
			<path class="st0" d="M17.7,16.8c0,0,0-0.1,0-0.2c0-0.1,0-0.1,0-0.2c0-0.1,0-0.1-0.1-0.1l-0.1,0l0,0.1c0,0.1,0,0.3,0,0.4
				c0,0,0,0,0,0C17.7,16.9,17.7,16.9,17.7,16.8z"/>
			<path class="st0" d="M17.3,16.9c0.1-0.1,0.1-0.2,0.1-0.3c0-0.1,0-0.2,0-0.2c-0.1,0-0.1,0.1-0.1,0.2
				C17.4,16.6,17.4,16.7,17.3,16.9c-0.1,0-0.2,0-0.2-0.1c0-0.1-0.1-0.1-0.2,0c0,0-0.1,0-0.1,0c0-0.1-0.1,0-0.2,0
				c-0.1,0,0-0.1-0.1-0.1c-0.2,0-0.4,0-0.5-0.1c-0.1,0-0.1-0.1,0-0.2c0.1-0.1,0.1-0.2,0.2-0.3c0.1-0.1-0.1,0-0.1,0
				c-0.1,0,0,0.2-0.1,0.2c0,0.1-0.1,0.2-0.2,0.1c-0.1,0-0.2-0.1-0.3-0.2c-0.1,0,0,0.1,0,0.2c0.1,0.1,0.2,0.1,0.3,0.1
				c0.1,0,0.1,0.1,0.2,0.1c0.2,0.1,0.3,0.1,0.5,0.1c0.1,0,0,0.1,0.1,0.1c0,0,0.2,0,0.2,0c-0.1,0.1,0.1,0.1,0.1,0.1
				c0.1,0,0.2,0,0.2,0.1C17.1,17,17.2,17,17.3,16.9C17.3,16.9,17.3,16.9,17.3,16.9L17.3,16.9z"/>
			<path class="st0" d="M15.9,16.1c0,0,0.1-0.1,0.1-0.2c0-0.1,0.1-0.1,0.1-0.1c0,0,0-0.1-0.1-0.1c0,0-0.1,0-0.1,0.1
				C15.9,15.9,15.9,16.1,15.9,16.1C15.8,16.2,15.8,16.2,15.9,16.1C15.8,16.2,15.8,16.2,15.9,16.1L15.9,16.1z"/>
			<path class="st0" d="M14.9,15.6C14.8,15.6,14.8,15.6,14.9,15.6c0,0.1,0.1,0.1,0.1,0.2c0.1,0.1,0.1,0.2,0.3,0.2l0.1,0l0,0.1
				c0,0,0,0.1,0,0.1s0.1,0,0.1,0c0.1,0,0.2-0.1,0.2-0.2c0,0-0.1-0.1-0.1-0.1c0,0-0.1,0-0.1,0.1c-0.1,0.1-0.3,0.1-0.3,0
				C15,15.6,15,15.6,14.9,15.6L14.9,15.6z M15.5,15.8C15.6,15.8,15.6,15.8,15.5,15.8C15.5,15.9,15.5,15.9,15.5,15.8
				C15.5,15.8,15.5,15.8,15.5,15.8L15.5,15.8z"/>
			<path class="st0" d="M20.3,15.6C20.2,15.6,20.2,15.7,20.3,15.6c-0.1,0.1-0.1,0.3-0.1,0.3c0,0,0,0,0.1,0c0.1,0,0.1,0,0.1,0
				c0,0.1-0.2,0.3-0.3,0.4c0,0-0.1,0.1-0.1,0.1c0,0,0,0,0.1,0c0.1-0.1,0.2-0.2,0.3-0.3c0-0.1,0.1-0.1,0.1-0.3c0-0.1,0-0.2,0-0.2
				C20.4,15.6,20.4,15.6,20.3,15.6C20.3,15.6,20.3,15.6,20.3,15.6L20.3,15.6z M20.3,15.7C20.3,15.7,20.3,15.7,20.3,15.7
				c0,0.1,0,0.1,0,0.1c0,0,0,0-0.1,0C20.2,15.8,20.2,15.7,20.3,15.7L20.3,15.7z"/>
			<path class="st0" d="M19.5,16.8c0.1-0.1,0.2-0.2,0.3-0.3c0-0.1,0-0.1,0-0.1c0,0-0.1-0.1-0.1-0.1c0,0-0.1,0,0-0.1
				c0-0.1,0-0.2,0-0.2c0,0,0,0-0.1,0c0,0,0,0.1,0,0.1c0,0.1,0,0.1-0.1,0.2c0,0,0,0,0,0.1c0,0,0,0,0,0c0,0,0,0,0.1,0l0.1,0l0,0
				c0,0,0,0,0,0.1c0,0.1-0.3,0.2-0.4,0.3c-0.1,0-0.1,0-0.1,0c0,0,0,0,0-0.1c0,0,0-0.1,0-0.1c0-0.1,0-0.1-0.1,0c0,0.1-0.1,0.2,0,0.2
				c0,0,0.2,0.1,0.3,0.1C19.4,16.9,19.5,16.8,19.5,16.8L19.5,16.8z"/>
			<path class="st0" d="M20.5,16.3c0.1-0.1,0.1-0.2,0.1-0.4l0-0.1l0.1,0c0.1,0,0.2-0.1,0.2-0.2c0-0.1,0-0.1-0.1,0
				c0,0-0.1,0.1-0.2,0.1c0,0,0,0,0,0.2C20.5,16,20.5,16.1,20.5,16.3c-0.1,0.1-0.1,0.1-0.1,0.1C20.4,16.3,20.5,16.3,20.5,16.3z"/>
			<path class="st0" d="M19.5,16.2C19.5,16.1,19.4,16.1,19.5,16.2C19.4,16.1,19.4,16.2,19.5,16.2C19.4,16.2,19.5,16.2,19.5,16.2
				L19.5,16.2z"/>
			<path class="st0" d="M20.9,15.8C20.9,15.8,20.8,15.8,20.9,15.8C20.8,15.8,20.8,15.8,20.9,15.8C20.8,15.8,20.9,15.8,20.9,15.8
				L20.9,15.8z"/>
			<path class="st0" d="M19.2,14.8C19.2,14.8,19.2,14.9,19.2,14.8c-0.1,0.1-0.1,0.1-0.1,0.1c0.1,0.1,0.1,0.2,0.1,0.2
				c0,0.1,0.1,0.2,0,0.3c0,0,0,0.1-0.1,0.1c-0.1,0-0.2,0-0.2,0c-0.1,0-0.1,0.1-0.2,0.1c0,0,0-0.1-0.1-0.1c0,0,0,0.1,0,0.2
				c0,0,0,0,0,0h0.1c0,0,0,0.1,0,0.1c0,0,0.1,0,0.1,0c0,0,0.1-0.1,0.1-0.1c0,0,0.1,0,0.1-0.1c0.1,0,0.2-0.1,0.1-0.2
				c0-0.1-0.1-0.3-0.1-0.4C19.3,15,19.2,14.9,19.2,14.8C19.2,14.8,19.2,14.8,19.2,14.8L19.2,14.8z M19,15.7c0.1,0,0.1,0.1,0.1,0.1
				C19,15.8,19,15.8,19,15.7C18.9,15.7,18.9,15.6,19,15.7L19,15.7z"/>
			<path class="st0" d="M17.1,15.2C17.1,15.2,17.1,15.2,17.1,15.2c-0.2,0.1-0.2,0.2-0.1,0.3c0.1,0,0,0.1-0.1,0.1
				c-0.1,0.1-0.3,0.1-0.5,0c-0.1,0-0.1,0-0.1,0c0,0.1,0.1,0.1,0.2,0.1c0.1,0,0.3,0,0.4,0c0.1,0,0.1-0.1,0.2-0.1l0.1-0.1l0.1,0
				c0.1,0,0.1,0,0.1,0.1c0,0,0,0,0.1,0.1c0.1,0,0.1,0,0.2,0c0,0,0.1,0,0.1,0c0,0,0,0,0.2,0c0.2,0,0.2,0,0.3,0c0.1,0,0.1,0,0.2,0
				c0.1,0,0.3-0.1,0.3-0.2c0,0,0,0,0.1,0c0.1,0,0.1-0.1,0-0.1c-0.1,0-0.1,0-0.2,0c0,0-0.1,0-0.1,0c-0.1,0-0.1,0-0.1,0.1
				c0,0,0,0,0.1,0c0.1,0,0.1,0,0.1,0c0,0,0,0,0,0.1c0,0-0.2,0.1-0.2,0.1c0,0-0.1,0-0.1,0c-0.1,0-0.1,0-0.2,0c0,0,0,0-0.1,0l0,0
				l-0.1,0c-0.1,0-0.1,0-0.1,0c0,0,0,0-0.2,0c-0.1,0-0.2,0-0.2,0c0,0,0,0,0-0.1c0,0,0,0,0-0.1s0,0-0.1,0c-0.1,0-0.2,0-0.2-0.1
				C17.2,15.2,17.1,15.2,17.1,15.2L17.1,15.2z M17.1,15.3C17.1,15.3,17.1,15.3,17.1,15.3C17.1,15.3,17.1,15.3,17.1,15.3
				C17.1,15.4,17,15.4,17.1,15.3C17,15.3,17,15.3,17.1,15.3C17,15.3,17.1,15.3,17.1,15.3L17.1,15.3z"/>
			<path class="st0" d="M16.8,15.4c0.1-0.1,0.1-0.1,0.1-0.2c0-0.1,0-0.1,0-0.1c0,0-0.1,0-0.1,0.1C16.8,15.3,16.8,15.3,16.8,15.4
				c-0.1,0-0.3,0-0.3-0.1c0,0,0-0.1,0-0.1c0.1-0.1,0.1-0.1,0-0.1c-0.1,0.1-0.1,0.1-0.1,0c0,0,0-0.1-0.1-0.1c0,0,0,0,0,0.1
				c0,0,0,0.1,0,0.1c0,0-0.1,0-0.1-0.1c0,0,0.1-0.2,0.3-0.3c0.1-0.1,0.1-0.1,0.1-0.1s0,0-0.1,0c-0.1,0-0.1,0-0.1,0
				c0,0-0.1,0.1-0.2,0.2c-0.2,0.2-0.2,0.3-0.1,0.3c0.1,0,0.2,0,0.2,0l0.1,0v0.1c0,0.1,0,0.1,0.1,0.2C16.6,15.5,16.7,15.4,16.8,15.4
				L16.8,15.4z"/>
			<path class="st0" d="M20.7,14.1c-0.1,0,0,0.1,0,0.2c0,0.1-0.1,0.1-0.2,0.1c-0.1,0-0.2,0.1-0.2,0.2c0,0.1-0.1,0.2-0.1,0.1
				c0,0-0.1-0.1-0.2,0c0,0-0.1,0.1-0.1,0.2c0,0,0-0.1-0.1-0.1c-0.1,0-0.1,0.1,0,0.2c0,0.1,0.1,0.1,0,0.2c0,0.1-0.1,0.1-0.2,0.1
				c-0.1,0,0-0.1-0.1-0.2c0,0,0,0.1-0.1,0.1c0-0.1,0-0.1-0.1-0.2c-0.1,0-0.1,0.1-0.1,0.1c0.1,0.1,0.1,0.2,0.1,0.3c0,0,0,0.1,0,0.1
				c0-0.1,0-0.1,0-0.2c0.1,0,0.1,0,0.2,0c0.1,0,0.2-0.1,0.2-0.2c0-0.1,0-0.1,0-0.2c0.1,0,0.2,0,0.2,0c0,0.1,0,0.1,0,0.2
				c0,0.1-0.1,0.2-0.2,0.3c0,0,0,0.1,0,0.1c0.1-0.1,0.2-0.2,0.3-0.3c0-0.1,0-0.2,0-0.3c0-0.1,0.1-0.1,0.2-0.1c0.1,0,0.1-0.1,0.1-0.2
				c0-0.1,0.1-0.1,0.1-0.1c0.1,0,0.1-0.1,0.1-0.2C20.8,14.2,20.8,14.1,20.7,14.1L20.7,14.1z M20.4,14.6
				C20.5,14.6,20.4,14.7,20.4,14.6C20.4,14.6,20.4,14.6,20.4,14.6z M20.1,14.7C20.2,14.7,20.1,14.8,20.1,14.7
				C20,14.7,20,14.7,20.1,14.7z"/>
			<path class="st0" d="M16.1,15.3C16.1,15.3,16.1,15.3,16.1,15.3C16.1,15.3,16.1,15.3,16.1,15.3C16.1,15.3,16.1,15.3,16.1,15.3
				L16.1,15.3z"/>
			<path class="st0" d="M17.4,15.1C17.4,15.1,17.4,15.1,17.4,15.1C17.3,15.1,17.3,15.2,17.4,15.1C17.4,15.2,17.4,15.2,17.4,15.1z"/>
			<path class="st0" d="M15.8,14.4C15.8,14.4,15.7,14.4,15.8,14.4c-0.1,0.1-0.2,0.2-0.3,0.2c0,0-0.1,0-0.1,0c-0.1,0,0-0.1-0.1-0.1
				c0,0-0.1,0-0.1,0.1c0,0.1,0.1,0.1,0.1,0.1c0,0,0.1,0,0.1,0.1c0,0,0,0.1,0.1,0.1c0.1,0,0.1,0.1,0,0.1c0,0,0,0.1,0,0.2
				c0,0,0.1,0,0.1-0.1c0,0,0,0,0-0.1c0.1,0,0.2,0,0.3,0c0.1,0,0.1,0,0.2-0.1c0.1-0.1,0.1-0.1,0.2-0.2c0.1,0,0-0.1,0-0.1
				c0,0-0.1,0.1-0.1,0.1c-0.1,0.1-0.1,0.1-0.2,0.2c-0.1,0-0.1,0-0.2,0c0,0,0,0,0.1-0.1c0,0,0.1-0.1,0.1-0.1c0,0-0.1,0-0.1,0
				c-0.1,0-0.2,0.1-0.3,0.1c-0.1,0,0-0.1,0-0.1C15.7,14.6,15.8,14.5,15.8,14.4C15.8,14.4,15.9,14.4,15.8,14.4
				C15.9,14.4,15.8,14.4,15.8,14.4L15.8,14.4z M15.9,14.8C15.9,14.8,15.8,14.8,15.9,14.8C15.8,14.8,15.8,14.8,15.9,14.8
				C15.8,14.8,15.8,14.8,15.9,14.8L15.9,14.8z M15.7,14.9C15.8,14.9,15.8,14.9,15.7,14.9C15.7,14.9,15.7,14.9,15.7,14.9z"/>
			<path class="st0" d="M16.9,14.9C16.9,14.9,16.8,14.9,16.9,14.9C16.8,14.9,16.8,15,16.9,14.9C16.8,14.9,16.9,14.9,16.9,14.9z"/>
			<path class="st0" d="M19.7,14.7C19.7,14.6,19.6,14.6,19.7,14.7C19.6,14.7,19.6,14.7,19.7,14.7C19.6,14.7,19.7,14.7,19.7,14.7
				L19.7,14.7z"/>
			<path class="st0" d="M15.3,14.3c0,0,0,0,0-0.1c0-0.1,0-0.1,0-0.1c0.1,0,0.2,0.1,0.2,0.1c0,0,0,0.1,0,0.1c0,0,0,0.1,0,0.1
				c0,0,0.1-0.1,0.1-0.1c0,0-0.1-0.2-0.2-0.2c-0.1,0-0.1,0-0.2,0c-0.1,0-0.1,0-0.1,0.2c0,0.2,0,0.2-0.1,0.1
				c-0.1-0.1-0.1-0.2-0.1-0.3c0-0.2,0.1-0.2,0.2-0.2c0.1,0,0.1,0,0,0c-0.1,0-0.2,0.1-0.3,0.2c0,0.2,0.1,0.4,0.3,0.5
				C15.2,14.4,15.2,14.4,15.3,14.3z"/>
			<path class="st0" d="M20.5,14.1C20.5,14.1,20.5,14.1,20.5,14.1c0-0.1,0-0.1,0.1-0.1c0,0,0-0.1,0-0.1c0,0-0.1,0-0.1,0
				c0,0-0.1,0-0.1,0c0,0,0,0,0,0c0.1,0,0.1-0.1,0-0.1c-0.1,0-0.1,0-0.1,0.1c0,0.1,0,0.1,0,0.1C20.5,14,20.5,14.1,20.5,14.1
				C20.5,14.2,20.5,14.2,20.5,14.1L20.5,14.1z"/>
			<path class="st0" d="M21,14.1C21,14,21.1,14,21,14.1c0.1-0.1,0.1-0.1,0.1-0.2c0.1-0.1,0.1-0.2,0.1-0.3c0,0-0.1-0.1-0.2-0.2
				c-0.1-0.1-0.2-0.2-0.2-0.2c0,0,0,0.1,0,0.1c0.1,0,0.1,0,0.2,0.1c0.1,0.1,0.2,0.2,0.1,0.3c0,0.1-0.1,0-0.2-0.1
				c-0.1-0.1-0.1-0.1-0.1-0.1c0,0,0,0,0,0.1c0,0,0,0.1,0.1,0.1C21,13.9,21,14,21,14.1C20.9,14,20.9,14,21,14.1
				c-0.1,0-0.1-0.1-0.1-0.1c0-0.1-0.3-0.3-0.3-0.3c0,0,0,0,0,0.1c0,0,0,0.1,0,0.1c0,0,0.2,0.1,0.3,0.3C20.9,14.1,20.9,14.1,21,14.1
				C20.9,14.1,21,14.1,21,14.1L21,14.1z"/>
			<path class="st0" d="M21.2,13.5c0,0-0.3-0.4-0.3-0.4c0,0,0,0,0,0.1c0,0.1,0,0.1,0.1,0.1c0,0,0.1,0.1,0.2,0.1
				C21.2,13.5,21.2,13.5,21.2,13.5C21.2,13.5,21.2,13.5,21.2,13.5L21.2,13.5z"/>
			<path class="st0" d="M19.4,16.9C19.4,16.9,19.4,17,19.4,16.9C19.4,17,19.3,16.9,19.4,16.9C19.3,16.9,19.4,16.9,19.4,16.9
				C19.4,16.9,19.4,16.9,19.4,16.9z"/>
			<path class="st0" d="M19.6,16.9C19.6,16.9,19.6,16.9,19.6,16.9C19.5,16.9,19.5,16.9,19.6,16.9C19.5,16.8,19.5,16.8,19.6,16.9
				C19.6,16.8,19.6,16.8,19.6,16.9z"/>
		</g>
	</g>
</g>
</svg>
