<?xml version="1.0" encoding="utf-8"?>
<!-- Generator: Adobe Illustrator 23.0.2, SVG Export Plug-In . SVG Version: 6.00 Build 0)  -->
<svg version="1.1" id="圖層_1" xmlns="http://www.w3.org/2000/svg" xmlns:xlink="http://www.w3.org/1999/xlink" x="0px" y="0px"
	 viewBox="0 0 36 24" style="enable-background:new 0 0 36 24;" xml:space="preserve">
<style type="text/css">
	.st0{fill:#FFFFFF;}
	.st1{fill:#006600;}
	.st2{fill:#BB0000;}
</style>
<g>
	<rect class="st0" width="36" height="24"/>
	<rect width="36" height="7.2"/>
	<rect y="16.8" class="st1" width="36" height="7.2"/>
	<g id="c">
		<g>
			<path id="b" d="M13.7,19.1l0.3,0.2l7-12.1c0.4-0.1,0.6-0.5,0.9-0.9C22,6,22.6,5,22.8,3.6c-1,0.9-1.6,1.9-1.8,2.2
				c-0.2,0.4-0.5,0.8-0.3,1.2L13.7,19.1z"/>
		</g>
		<g>
			<path class="st0" d="M13.7,19.1l0.3,0.2l7-12.1c0.4-0.1,0.6-0.5,0.9-0.9C22,6,22.6,5,22.8,3.6c-1,0.9-1.6,1.9-1.8,2.2
				c-0.2,0.4-0.5,0.8-0.3,1.2L13.7,19.1z"/>
		</g>
	</g>
	<g transform="scale(-1,1)">
		<g>
			<g>
				<path d="M22.3,19.1L22,19.3L15,7.1c-0.4-0.1-0.6-0.5-0.9-0.9C14,6,13.4,5,13.2,3.6c1,0.9,1.6,1.9,1.8,2.2
					c0.2,0.4,0.4,0.8,0.3,1.2L22.3,19.1z"/>
			</g>
			<g>
				<path class="st0" d="M22.3,19.1L22,19.3L15,7.1c-0.4-0.1-0.6-0.5-0.9-0.9C14,6,13.4,5,13.2,3.6c1,0.9,1.6,1.9,1.8,2.2
					c0.2,0.4,0.4,0.8,0.3,1.2L22.3,19.1z"/>
			</g>
		</g>
	</g>
	<path class="st2" d="M0,8.4v7.2h15.1c0.5,1.2,2,3.6,2.9,3.6s2.4-2.4,2.9-3.6H36V8.4H20.9c-0.5-1.2-2-3.6-2.9-3.6s-2.4,2.4-2.9,3.6
		H0z"/>
	<path id="d" d="M20.9,15.6c0.4-1.2,0.8-2.4,0.8-3.6s-0.3-2.4-0.8-3.6c-0.5,1.2-0.8,2.4-0.8,3.6S20.4,14.4,20.9,15.6"/>
	<g transform="scale(-1,1)">
		<path d="M15.1,15.6c-0.4-1.2-0.8-2.4-0.8-3.6s0.3-2.4,0.8-3.6c0.5,1.2,0.8,2.4,0.8,3.6S15.6,14.4,15.1,15.6"/>
	</g>
	<g>
		<ellipse class="st0" cx="18" cy="12" rx="0.6" ry="0.9"/>
		<path id="a" class="st0" d="M18.1,12.9c0,0,0.6,1.2,0.6,3.2s-0.6,3.1-0.6,3.1V12.9z"/>
		<g transform="scale(-1)">
			<path class="st0" d="M17.9,11.1c0,0-0.6-1.2-0.6-3.2s0.6-3.1,0.6-3.1V11.1z"/>
		</g>
		<g transform="scale(-1,1)">
			<path class="st0" d="M17.9,12.9c0,0-0.6,1.2-0.6,3.2s0.6,3.1,0.6,3.1V12.9z"/>
		</g>
		<g transform="scale(1,-1)">
			<path class="st0" d="M18.1,11.1c0,0,0.6-1.2,0.6-3.2s-0.6-3.1-0.6-3.1V11.1z"/>
		</g>
	</g>
</g>
</svg>
