<?xml version="1.0" encoding="utf-8"?>
<!-- Generator: Adobe Illustrator 22.0.1, SVG Export Plug-In . SVG Version: 6.00 Build 0)  -->
<svg version="1.1" id="圖層_1" xmlns="http://www.w3.org/2000/svg" xmlns:xlink="http://www.w3.org/1999/xlink" x="0px" y="0px"
	 viewBox="0 0 36 24" style="enable-background:new 0 0 36 24;" xml:space="preserve">
<style type="text/css">
	.st0{fill:#CC0001;}
	.st1{fill:#FFFFFF;}
	.st2{fill:#010066;}
	.st3{fill:#FFCC00;}
</style>
<g>
	<rect id="red" y="0" class="st0" width="36" height="24"/>
	<rect id="white" y="22.3" class="st1" width="36" height="1.7"/>
	<g id="use3035" transform="translate(0,-200)">
		<rect id="white_1_" y="18.9" class="st1" width="36" height="1.7"/>
	</g>
	<g id="use3038" transform="translate(0,-400)">
		<rect id="white_2_" y="15.4" class="st1" width="36" height="1.7"/>
	</g>
	<g id="use3062" transform="translate(0,-600)">
		<rect id="white_3_" y="12" class="st1" width="36" height="1.7"/>
	</g>
	<g id="use3064" transform="translate(0,-800)">
		<rect id="white_4_" y="8.6" class="st1" width="36" height="1.7"/>
	</g>
	<g id="use3066" transform="translate(0,-1000)">
		<rect id="white_5_" y="5.1" class="st1" width="36" height="1.7"/>
	</g>
	<g id="use3068" transform="translate(0,-1200)">
		<rect id="white_6_" y="1.7" class="st1" width="36" height="1.7"/>
	</g>
	<rect id="blue" y="0" class="st2" width="18" height="13.7"/>
	<path id="path4945" class="st3" d="M7.4,3.3C5.3,3.3,3.5,5,3.5,7.1S5.3,11,7.4,11c0.8,0,1.5-0.2,2.1-0.6c-0.4,0.1-0.7,0.2-1.1,0.2
		c-1.9,0-3.4-1.5-3.4-3.4s1.5-3.4,3.4-3.4c0.4,0,0.8,0.1,1.2,0.2C9,3.5,8.2,3.3,7.4,3.3z"/>
	<path id="path4959" class="st3" d="M13.8,9.2l-1.6-0.9l0.5,1.7l-1.1-1.5l-0.3,1.8l-0.3-1.8L9.8,10l0.5-1.7L8.7,9.1l1.2-1.4L8,7.9
		l1.7-0.7L8,6.4l1.8,0.1L8.7,5.1L10.3,6L9.8,4.2l1.1,1.5l0.3-1.8l0.3,1.8l1.1-1.5L12.2,6l1.6-0.8l-1.2,1.4l1.8-0.1l-1.7,0.7l1.7,0.7
		l-1.8-0.1L13.8,9.2z"/>
</g>
</svg>
