<?xml version="1.0" encoding="utf-8"?>
<!-- Generator: Adobe Illustrator 23.0.2, SVG Export Plug-In . SVG Version: 6.00 Build 0)  -->
<svg version="1.1" id="圖層_1" xmlns="http://www.w3.org/2000/svg" xmlns:xlink="http://www.w3.org/1999/xlink" x="0px" y="0px"
	 viewBox="0 0 36 24" style="enable-background:new 0 0 36 24;" xml:space="preserve">
<style type="text/css">
	.st0{fill:#FFFFFF;}
	.st1{fill:#DC143C;}
	.st2{fill:#003893;}
</style>
<rect y="0.1" class="st0" width="36" height="23.9"/>
<g>
	<g>
		<polygon class="st1" points="17.8,11.4 0.2,0.4 0.2,6.3 0.2,11.4 0.2,23.9 17.8,23.9 5.3,11.4 		"/>
		<path class="st2" d="M18.2,24.1H0v-24l18.4,11.5H5.8L18.2,24.1z M0.3,23.7h17L4.9,11.2h12.3L0.3,0.7V23.7z"/>
	</g>
	<g>
		<path class="st0" d="M4.6,10.5C6.6,10.5,8.2,9,8.2,7C7.8,7.8,7.3,8.5,6.6,8.9L6.3,8.7l0.6-0.4L6.2,8l0.4-0.6L5.8,7.5l0.1-0.7
			L5.3,7.2L5.1,6.4L4.6,7L4.2,6.4L4,7.2L3.4,6.8l0.1,0.7L2.8,7.4L3.1,8L2.4,8.2L3,8.7L2.7,8.9C2,8.5,1.4,7.8,1.1,7
			C1.1,9,2.7,10.5,4.6,10.5L4.6,10.5z"/>
		<path class="st0" d="M2.9,15.7l-1.6-0.2l1,1.3l-1.5,0.6L2.3,18l-1,1.3l1.6-0.2l-0.2,1.6l1.3-1l0.6,1.5l0.6-1.5l1.3,1l-0.2-1.6
			l1.6,0.2L7,18l1.5-0.6L7,16.8l1-1.3l-1.6,0.2l0.2-1.6l-1.3,1l-0.6-1.5L4,15.1l-1.3-1L2.9,15.7L2.9,15.7z"/>
	</g>
</g>
</svg>
