<?xml version="1.0" encoding="utf-8"?>
<!-- Generator: Adobe Illustrator 23.0.2, SVG Export Plug-In . SVG Version: 6.00 Build 0)  -->
<svg version="1.1" id="圖層_1" xmlns="http://www.w3.org/2000/svg" xmlns:xlink="http://www.w3.org/1999/xlink" x="0px" y="0px"
	 viewBox="0 0 36 24" style="enable-background:new 0 0 36 24;" xml:space="preserve">
<style type="text/css">
	.st0{fill:#FFFFFF;}
	.st1{fill:none;stroke:#221E1F;stroke-miterlimit:10;}
	.st2{fill:#2E3091;}
	.st3{fill:#3853A3;}
	.st4{fill:#EC1B23;}
	.st5{fill:#221E1F;}
	.st6{fill:none;stroke:#65BB45;stroke-miterlimit:10;}
</style>
<rect class="st0" width="36" height="24"/>
<g>
	<path class="st2" d="M23,15.3c-1.8,2.7-5.5,3.5-8.3,1.7c-2.7-1.8-3.5-5.5-1.7-8.3"/>
	<path class="st3" d="M18,18c-1.1,0-2.3-0.3-3.3-1c-2.8-1.8-3.5-5.6-1.7-8.4l0.1,0.1c-1.8,2.7-1.1,6.4,1.6,8.2
		c2.7,1.8,6.4,1.1,8.2-1.6l0.1,0.1C21.9,17.1,19.9,18,18,18z"/>
	<path class="st4" d="M13,8.7c1.8-2.7,5.5-3.5,8.3-1.7c2.7,1.8,3.5,5.5,1.7,8.3"/>
	<path class="st4" d="M23,15.3L23,15.3c0.8-1.4,1.1-3,0.8-4.5c-0.3-1.6-1.2-2.9-2.5-3.8c-2.7-1.8-6.4-1.1-8.2,1.6L13,8.6
		c1.8-2.8,5.6-3.5,8.4-1.7C24.1,8.8,24.9,12.6,23,15.3z"/>
	<path class="st4" d="M17.2,7.8c1.4,0.9,1.7,2.8,0.8,4.2c-0.9,1.4-2.8,1.7-4.2,0.8c-1.4-0.9-1.7-2.8-0.8-4.2
		C13.9,7.3,15.8,6.9,17.2,7.8z"/>
	<path class="st4" d="M15.5,13.4c-0.6,0-1.2-0.2-1.7-0.5c-0.7-0.5-1.1-1.1-1.3-1.9c-0.2-0.8,0-1.6,0.5-2.3c0.9-1.4,2.8-1.8,4.2-0.8
		l0,0C18.6,8.7,19,10.6,18,12C17.4,12.9,16.5,13.4,15.5,13.4z M15.5,7.4c-0.9,0-1.9,0.5-2.4,1.3c-0.4,0.7-0.6,1.4-0.4,2.2
		c0.2,0.8,0.6,1.4,1.2,1.9c1.3,0.9,3.2,0.5,4.1-0.8c0.9-1.3,0.5-3.2-0.8-4.1l0,0C16.6,7.5,16.1,7.4,15.5,7.4z"/>
	<path class="st2" d="M22.2,11.2c1.4,0.9,1.7,2.8,0.8,4.2c-0.9,1.4-2.8,1.7-4.2,0.8c-1.4-0.9-1.7-2.8-0.8-4.2
		C18.9,10.6,20.8,10.2,22.2,11.2z"/>
	<path class="st2" d="M20.5,16.7c-0.6,0-1.2-0.2-1.7-0.5c-1.4-0.9-1.8-2.8-0.8-4.2c0.5-0.7,1.1-1.1,1.9-1.3c0.8-0.2,1.6,0,2.3,0.5
		l0,0c0.7,0.5,1.1,1.1,1.3,1.9c0.2,0.8,0,1.6-0.5,2.3c-0.5,0.7-1.1,1.1-1.9,1.3C20.9,16.7,20.7,16.7,20.5,16.7z M20.5,10.7
		c-0.9,0-1.9,0.5-2.4,1.3c-0.9,1.3-0.5,3.2,0.8,4.1c0.7,0.4,1.4,0.6,2.2,0.4c0.8-0.2,1.4-0.6,1.9-1.2c0.4-0.7,0.6-1.4,0.4-2.2
		c-0.2-0.8-0.6-1.4-1.2-1.9l0,0C21.6,10.9,21.1,10.7,20.5,10.7z"/>
	<rect x="7.1" y="6.2" transform="matrix(0.5504 -0.8349 0.8349 0.5504 -1.0405 11.4594)" class="st5" width="6" height="1"/>
	<path class="st5" d="M8.9,9.5L8,8.9l3.3-5.1l0.9,0.6L8.9,9.5z M8.1,8.9l0.7,0.5l3.2-4.9L11.4,4L8.1,8.9z"/>
	<rect x="5.9" y="5.4" transform="matrix(0.5504 -0.8349 0.8349 0.5504 -0.9188 10.0406)" class="st5" width="6" height="1"/>
	<path class="st5" d="M7.6,8.7L6.7,8.1L10.1,3L11,3.6L7.6,8.7z M6.9,8.1l0.7,0.5l3.2-4.9l-0.7-0.5L6.9,8.1z"/>
	<rect x="4.6" y="4.5" transform="matrix(0.5504 -0.8349 0.8349 0.5504 -0.7846 8.6023)" class="st5" width="6" height="1"/>
	<path class="st5" d="M6.4,7.9L5.5,7.3l3.3-5.1l0.9,0.6L6.4,7.9z M5.6,7.2l0.7,0.5l3.2-4.9L8.8,2.3L5.6,7.2z"/>
	<rect x="22.9" y="16.7" transform="matrix(0.5504 -0.8349 0.8349 0.5504 -2.7434 29.39)" class="st5" width="6" height="1"/>
	<path class="st5" d="M24.7,20.1l-0.9-0.6l3.3-5.1l0.9,0.6L24.7,20.1z M23.9,19.5l0.7,0.5l3.2-4.9l-0.7-0.5L23.9,19.5z"/>
	<rect x="22.9" y="16.7" transform="matrix(0.5504 -0.8349 0.8349 0.5504 -2.7435 29.3899)" class="st5" width="6" height="1"/>
	<path class="st5" d="M24.7,20.1l-0.9-0.6l3.3-5.1l0.9,0.6L24.7,20.1z M23.9,19.5l0.7,0.5l3.2-4.9l-0.7-0.5L23.9,19.5z"/>
	<polygon class="st0" points="26.2,17.7 25.3,17.2 25.6,16.8 26.5,17.3 	"/>
	<path class="st0" d="M26.2,17.8l-1-0.6l0.4-0.5l1,0.6L26.2,17.8z M25.4,17.2l0.8,0.5l0.3-0.3l-0.8-0.5L25.4,17.2z"/>
	<rect x="24.2" y="17.6" transform="matrix(0.5504 -0.8349 0.8349 0.5504 -2.8694 30.8119)" class="st5" width="6" height="1"/>
	<path class="st5" d="M26,20.9L25,20.3l3.3-5.1l0.9,0.6L26,20.9z M25.2,20.3l0.7,0.5l3.2-4.9l-0.7-0.5L25.2,20.3z"/>
	<polygon class="st0" points="27.5,18.6 26.6,18 26.9,17.6 27.8,18.1 	"/>
	<path class="st0" d="M27.5,18.6l-1-0.6l0.4-0.5l1,0.6L27.5,18.6z M26.6,18l0.8,0.5l0.3-0.3l-0.8-0.5L26.6,18z"/>
	<rect x="25.4" y="18.4" transform="matrix(0.5504 -0.8349 0.8349 0.5504 -3.0006 32.2357)" class="st5" width="6" height="1"/>
	<path class="st5" d="M27.2,21.7l-0.9-0.6l3.3-5.1l0.9,0.6L27.2,21.7z M26.4,21.1l0.7,0.5l3.2-4.9l-0.7-0.5L26.4,21.1z"/>
	<polygon class="st0" points="28.7,19.4 27.8,18.8 28.1,18.4 29.1,19 	"/>
	<path class="st0" d="M28.8,19.5l-1-0.6l0.4-0.5l1,0.6L28.8,19.5z M27.9,18.8l0.8,0.5L29,19l-0.8-0.5L27.9,18.8z"/>
	<rect x="7.1" y="16" transform="matrix(0.8342 -0.5514 0.5514 0.8342 -9.2008 7.3619)" class="st5" width="1" height="6"/>
	<path class="st5" d="M8.9,21.8l-3.4-5.1l0.9-0.6l3.4,5.1L8.9,21.8z M5.6,16.8l3.2,4.9l0.7-0.5l-3.2-4.9L5.6,16.8z"/>
	<rect x="8.4" y="15.1" transform="matrix(0.8342 -0.5514 0.5514 0.8342 -8.5237 7.921)" class="st5" width="1" height="6"/>
	<path class="st5" d="M10.1,21l-3.4-5.1l0.9-0.6l3.4,5.1L10.1,21z M6.9,15.9l3.2,4.9l0.7-0.5l-3.2-4.9L6.9,15.9z"/>
	<rect x="9.6" y="14.3" transform="matrix(0.8342 -0.5514 0.5514 0.8342 -7.8743 8.4652)" class="st5" width="1" height="6"/>
	<path class="st5" d="M11.4,20.2L8,15.1l0.9-0.6l3.4,5.1L11.4,20.2z M8.1,15.1l3.2,4.9l0.7-0.5l-3.2-4.9L8.1,15.1z"/>
	<polygon class="st0" points="8.3,18.2 9.2,17.6 9.5,18 8.6,18.7 	"/>
	<path class="st0" d="M8.6,18.8l-0.3-0.5l1-0.7l0.3,0.5L8.6,18.8z M8.4,18.2l0.2,0.4L9.4,18l-0.2-0.4L8.4,18.2z"/>
	<rect x="25.4" y="3.8" transform="matrix(0.8342 -0.5514 0.5514 0.8342 0.5662 15.4129)" class="st5" width="1" height="6"/>
	<path class="st5" d="M27.1,9.6l-3.4-5.1l0.9-0.6L28.1,9L27.1,9.6z M23.9,4.6l3.2,4.9L27.9,9l-3.2-4.9L23.9,4.6z"/>
	<polygon class="st0" points="25.4,6.9 26.2,6.2 26.5,6.7 25.6,7.3 	"/>
	<path class="st0" d="M25.6,7.4l-0.3-0.5l1-0.7l0.3,0.5L25.6,7.4z M25.4,6.9l0.2,0.4l0.8-0.6l-0.2-0.4L25.4,6.9z"/>
	<rect x="26.7" y="2.9" transform="matrix(0.8342 -0.5514 0.5514 0.8342 1.2432 15.9719)" class="st5" width="1" height="6"/>
	<path class="st5" d="M28.4,8.8l-3.4-5.1L26,3.1l3.4,5.1L28.4,8.8z M25.2,3.7l3.2,4.9l0.7-0.5l-3.2-4.9L25.2,3.7z"/>
	<rect x="27.9" y="2.1" transform="matrix(0.8342 -0.5514 0.5514 0.8342 1.8927 16.5161)" class="st5" width="1" height="6"/>
	<path class="st5" d="M29.6,7.9l-3.4-5.1l0.9-0.6l3.4,5.1L29.6,7.9z M26.4,2.9l3.2,4.9l0.7-0.5l-3.2-4.9L26.4,2.9z"/>
	<polygon class="st0" points="27.9,5.2 28.7,4.6 29,5 28.1,5.7 	"/>
	<path class="st0" d="M28.1,5.7l-0.3-0.5l1-0.7L29,5L28.1,5.7z M27.9,5.2l0.2,0.4L28.9,5l-0.2-0.4L27.9,5.2z"/>
	<path class="st0" d="M36,24H0V0h36V24z M0.1,23.9h35.8V0.1H0.1V23.9z"/>
</g>
</svg>
