<?xml version="1.0" encoding="utf-8"?>
<!-- Generator: Adobe Illustrator 23.0.2, SVG Export Plug-In . SVG Version: 6.00 Build 0)  -->
<svg version="1.1" id="圖層_1" xmlns="http://www.w3.org/2000/svg" xmlns:xlink="http://www.w3.org/1999/xlink" x="0px" y="0px"
	 viewBox="0 0 36 24" style="enable-background:new 0 0 36 24;" xml:space="preserve">
<style type="text/css">
	.st0{fill-rule:evenodd;clip-rule:evenodd;fill:#F31930;}
	.st1{fill:none;stroke:#000000;stroke-width:1.25;}
	.st2{fill-rule:evenodd;clip-rule:evenodd;fill:#FFFFFF;}
	.st3{fill-rule:evenodd;clip-rule:evenodd;fill:#F31830;}
</style>
<g>
	<path class="st0" d="M0,0h36v24H0V0z"/>
	<path class="st2" d="M18,11.8c0-3.3-2.7-5.9-6-5.9s-6,2.6-6,5.9s2.7,5.9,6,5.9S18,15.1,18,11.8z"/>
	<path class="st3" d="M18.3,11.8c0-2.6-2.1-4.7-4.8-4.7c-2.7,0-4.8,2.1-4.8,4.7c0,0,0,0,0,0c0,2.6,2.1,4.7,4.8,4.7
		S18.3,14.4,18.3,11.8C18.3,11.8,18.3,11.8,18.3,11.8z"/>
	<path class="st2" d="M19.2,9l0,2.2l-2,0.6l2,0.7l0,2l1.3-1.6l2,0.7l-1.1-1.7l1.4-1.7l-2.1,0.6C20.4,10.9,19.2,9,19.2,9z"/>
</g>
</svg>
