<?xml version="1.0" encoding="utf-8"?>
<!-- Generator: Adobe Illustrator 22.0.1, SVG Export Plug-In . SVG Version: 6.00 Build 0)  -->
<svg version="1.1" id="圖層_1" xmlns="http://www.w3.org/2000/svg" xmlns:xlink="http://www.w3.org/1999/xlink" x="0px" y="0px"
	 viewBox="0 0 82 82" style="enable-background:new 0 0 82 82;" xml:space="preserve">
<style type="text/css">
	.st0{fill:#FFFFFF;}
</style>
<g>
	<g>
		<path class="st0" d="M11.9,11.3c-2.3,0-4.2,1.9-4.2,4.2v27.2c0,8.8,6.6,15.9,14.7,15.9h29.9c8.1,0,14.7-7.1,14.7-15.9V15.5
			c0-2.3-1.9-4.2-4.2-4.2H11.9z"/>
	</g>
	<g>
		<path class="st0" d="M65.8,48.3h-0.2c-7.8,0-14.2-6.4-14.2-14.2v-3.4c0-7.8,6.4-14.2,14.2-14.2h0.2c7.8,0,14.2,6.4,14.2,14.2v3.4
			C80,41.9,73.6,48.3,65.8,48.3z M65.5,22c-4.8,0-8.7,3.9-8.7,8.7v3.4c0,4.8,3.9,8.7,8.7,8.7h0.2c4.8,0,8.7-3.9,8.7-8.7v-3.4
			c0-4.8-3.9-8.7-8.7-8.7C65.7,22,65.5,22,65.5,22z"/>
	</g>
	<g>
		<path class="st0" d="M69.2,70.7H5.6c-2,0-3.6-1.6-3.6-3.6v-0.6c0-2,1.6-3.6,3.6-3.6h63.6c2,0,3.6,1.6,3.6,3.6v0.6
			C72.8,69.1,71.2,70.7,69.2,70.7z"/>
	</g>
</g>
</svg>
