<?xml version="1.0" encoding="utf-8"?>
<!-- Generator: Adobe Illustrator 22.0.1, SVG Export Plug-In . SVG Version: 6.00 Build 0)  -->
<svg version="1.1" id="圖層_1" xmlns="http://www.w3.org/2000/svg" xmlns:xlink="http://www.w3.org/1999/xlink" x="0px" y="0px"
	 viewBox="0 0 24 24" style="enable-background:new 0 0 24 24;" xml:space="preserve">
<style type="text/css">
	.st0{fill:#308CFE;}
</style>
<g>
	<path class="st0" d="M17.8,8.6c0-0.8-0.6-1.4-1.4-1.4h-1.5V6c0-0.6-0.4-1-1-1h-3.7c-0.5,0-1,0.4-1,1v1.2H7.6
		c-0.8,0-1.4,0.6-1.4,1.4v1.7C7.9,9.4,10,8.7,12,8.7c2,0,4.1,0.7,5.8,1.4V8.6z M10.7,5.6h2.6c0.3,0,0.5,0.3,0.5,0.5
		s-0.3,0.5-0.5,0.5h-2.6c-0.3,0-0.5-0.3-0.5-0.5C10.2,5.8,10.4,5.6,10.7,5.6z"/>
	<g>
		<path class="st0" d="M4,13.7c0,0.6,1.6,3.1,2.5,3.9c1.4,1.3,1.9,1.4,4.5,1.4c0.3,0,0.5-0.2,0.5-0.5v-8.3c0-0.3-0.3-0.5-0.5-0.5
			C7.6,10.1,4,12.7,4,13.7z"/>
		<path class="st0" d="M12.5,10.2v8.3c0,0.3,0.2,0.5,0.5,0.5c2.6,0,3.3-0.1,4.5-1.4c0.8-0.9,2.5-3.3,2.5-3.9c0-0.9-3.5-3.6-6.9-4
			C12.8,9.7,12.5,9.8,12.5,10.2z"/>
	</g>
</g>
</svg>
