<?xml version="1.0" encoding="utf-8"?>
<!-- Generator: Adobe Illustrator 23.0.2, SVG Export Plug-In . SVG Version: 6.00 Build 0)  -->
<svg version="1.1" id="圖層_1" xmlns="http://www.w3.org/2000/svg" xmlns:xlink="http://www.w3.org/1999/xlink" x="0px" y="0px"
	 viewBox="0 0 36 24" style="enable-background:new 0 0 36 24;" xml:space="preserve">
<style type="text/css">
	.st0{fill:#FF0000;}
	.st1{fill-rule:evenodd;clip-rule:evenodd;}
</style>
<path class="st0" d="M36,0H0v24h36V0z"/>
<path class="st1" d="M19,18.6c-0.2-0.2-0.5-0.6-0.5-1c0-0.3,0.2-0.5,0.3-0.1c0.2,0.4,0.6,1,1.1,0.6c0.2-0.2,0.2-0.4-0.1-0.4
	c-0.4,0-0.6-0.2-0.8-0.8c0-0.3,0.1-0.3,0.3-0.1c0.2,0.3,0.7,0.7,1.2,0.4c0.3-0.1,0.4-0.4-0.1-0.4c-0.4,0-0.7-0.3-1-0.6
	c-0.2-0.2,0.1-0.4,0.2-0.3c0.1,0.1,0.3,0.3,0.5,0.4c0.2,0,0.4,0,0.7-0.1c0.3-0.2,0.2-0.4-0.2-0.5c-0.3,0-0.4,0.1-0.8-0.1
	c-0.6-0.4-1.1-1-1.2-1.7c-0.1-0.4,0.2-0.6,0.4-0.5c0.5,0.1,0.9,1.2,1.3,1.7c0.1,0.2,0.2,0.2,0.3,0.1c0.2-0.1,0.3-0.2,0.4-0.4
	c0,0,1.1,0.2,1.7,0.4l-0.7,0.2c-0.3-0.1-0.6,0-0.6,0.3c-0.2,0.2-0.2,0.4-0.1,0.5c0-0.1,0.1-0.3,0.2-0.3c0.3,0.1,0.6,0,0.6-0.3
	l0.8-0.3l0.8,0.5c0,0.3,0.3,0.4,0.6,0.3c0.1,0.1,0.2,0.2,0.3,0.4c0.1-0.2,0.1-0.4-0.1-0.5c0.1-0.3-0.3-0.6-0.7-0.4l-0.6-0.3l1,0
	c0.1,0.2,0.5,0.2,0.6,0c0.1,0,0.2,0,0.4,0.1c-0.1-0.2-0.2-0.3-0.4-0.3c-0.1-0.2-0.6-0.2-0.7,0l-1,0l0.6-0.4c0.2,0.1,0.5,0,0.6-0.3
	c0.1-0.1,0.2-0.2,0.4-0.1c-0.1-0.2-0.3-0.3-0.6-0.1c-0.3-0.2-0.6,0-0.6,0.2L23,15.1c-0.6-0.2-1.6-0.4-1.6-0.4
	c0.1-0.1,0.3-0.3,0.4-0.4c0-0.1,0-0.2-0.1-0.2c-0.9-0.2-1.5-0.6-1.8-1.5c-0.1-0.4,0.2-0.5,0.3-0.3c0.1,0.3,0.3,0.7,0.7,1
	c0.1,0.1,0.6,0,0.3-0.2c-0.3-0.2-0.4-0.3-0.5-0.9c0-0.3,0.3-0.4,0.4-0.1c0.2,0.5,0.2,0.8,0.5,1.1c0.2,0.3,0.5,0.4,0.7,0.4
	c0.3,0,0.5-0.3,0.2-0.5c-0.5-0.2-0.7-0.5-0.8-0.8c-0.1-0.5,0-0.7,0.3-0.5c0.4,0.5,1.2,1.3,1.6,1.7c0.5,0.3,1,0.4,1.4,0
	c0.2-0.3,0.2-0.6-0.2-0.5c-0.8,0.1-1.5-0.3-2.2-1.5c-0.1-0.3-0.2-0.6,0.1-0.3c0.3,0.5,0.8,0.9,1.3,1c0.5,0.2,0.9,0.1,1-0.1
	c0.2-0.2,0.1-0.6-0.2-0.5c-0.3,0.1-0.6,0.1-1,0c-0.4-0.1-0.8-0.5-1.2-1c-0.1-0.3-0.1-0.6,0.2-0.4c0.7,0.6,1.6,1.1,2,0.8
	c0.3-0.2,0.3-0.7-0.1-0.7c-0.8,0.1-1.2-0.1-2-0.8c-0.2-0.1-0.2-0.5,0.1-0.3c0.7,0.4,1.6,0.6,2,0.4c0.3-0.2,0.3-0.8-0.3-0.6
	c-0.4,0.3-0.9,0.3-1.9-0.4c-0.2-0.2-0.1-0.5,0.1-0.4c0.8,0.5,2,0.6,2.3-0.3c0.1-0.4-0.1-0.6-0.4-0.3c-0.7,0.6-1.5,0.3-1.9,0
	c-0.1-0.1-0.4-0.4,0-0.4c1,0.2,2.1,0,2.2-0.7c0.1-0.2-0.1-0.7-0.5-0.3c-0.5,0.5-1,0.5-1.7,0.5c-0.3-0.1-0.3-0.4-0.1-0.5
	c0.5,0,1-0.2,1.5-0.4c0.4-0.2,0.7-0.6,0.8-1c0.1-0.4-0.3-0.8-0.6-0.4c-0.3,0.6-1.1,1.2-2,1.3c0-0.1-0.2-0.3-0.3-0.2
	c-0.3,0.1-0.5,0.2-0.9,0.4c-0.7,0.3-0.9,0.5-0.9,1c0.1,0.6-0.4,0.9-0.7,0.8c-0.3-0.1-0.5-0.4-0.4-0.9c0-0.4,0.4-0.9,0.9-1.1
	c0.3-0.2,0.7-0.2,1.2-0.4C21.8,5.3,22,5.2,22,5c0,0-0.2,0.2-0.6,0.1c-0.2,0-0.3-0.1-0.3-0.2c0.1,0,0.3,0,0.5,0c0.3,0,0.9-0.1,1-0.4
	c0.1-0.2-0.1-0.3-0.3-0.1c-0.2,0.2-0.2,0.3-0.5,0.4c-0.2,0-0.4,0.1-0.6,0c0.1-0.2,0.4-0.3,0.6-0.3c0.1,0,0.1,0.1,0.2,0.2
	c0-0.3,0-0.6-0.7-0.4c0-0.2-0.4-0.3-0.7-0.3c-0.1,0-0.4,0.1-0.7,0.2c-0.3,0.1-0.7,0.2-1.1,0.2c0.2,0.2,0.3,0.2,0.5,0.4
	c-0.3,0.1-0.6,0.4-0.7,0.6c0,0,0.4,0,0.5,0c-0.4,0.1-0.6,0.2-0.8,0.4c0.1,0,0.2,0,0.2,0.1c0.1,0,0,0.1,0,0.1C18.5,6,18.1,6.4,18,6.5
	c-0.1-0.1-0.5-0.5-0.6-0.6c0,0-0.1-0.1,0-0.1c0.1,0,0.2,0,0.2-0.1c-0.2-0.2-0.4-0.3-0.8-0.4c0.1,0,0.5,0,0.5,0
	c-0.1-0.2-0.4-0.4-0.7-0.6c0.2-0.2,0.3-0.2,0.5-0.4c-0.4,0-0.7-0.1-1.1-0.2C15.8,4.1,15.5,4,15.4,4c-0.3,0-0.7,0.1-0.7,0.3
	C14,4.1,13.9,4.4,14,4.7c0.1-0.1,0.2-0.2,0.2-0.2c0.2,0,0.4,0.1,0.6,0.3c-0.3,0.1-0.4,0-0.6,0c-0.3-0.1-0.4-0.2-0.5-0.4
	c-0.1-0.2-0.3-0.1-0.3,0.1C13.5,5,14.1,5,14.3,5c0.2,0,0.4,0,0.5,0c0,0.1-0.2,0.1-0.3,0.2C14.2,5.2,14,5,14,5c0,0.1,0.2,0.3,0.5,0.3
	c0.5,0.1,1,0.2,1.2,0.4c0.4,0.2,0.8,0.7,0.9,1.1c0.1,0.5-0.1,0.8-0.4,0.9c-0.4,0.1-0.8-0.3-0.7-0.8c0.1-0.5-0.2-0.7-0.9-1
	c-0.3-0.1-0.6-0.3-0.9-0.4c-0.1-0.1-0.2,0.1-0.3,0.2c-0.9-0.1-1.6-0.7-2-1.3c-0.2-0.4-0.6,0-0.6,0.4c0.1,0.5,0.4,0.8,0.8,1
	c0.4,0.2,0.9,0.5,1.5,0.4c0.3,0.1,0.3,0.4-0.1,0.5c-0.7,0-1.2,0-1.7-0.5c-0.4-0.4-0.6,0.1-0.5,0.3c0.2,0.7,1.2,0.9,2.2,0.7
	c0.4-0.1,0.2,0.3,0,0.4c-0.4,0.3-1.2,0.6-1.9,0c-0.3-0.2-0.5,0-0.4,0.3c0.3,0.9,1.5,0.7,2.3,0.3c0.2-0.1,0.4,0.2,0.1,0.4
	c-1,0.7-1.5,0.7-1.9,0.4c-0.6-0.2-0.6,0.4-0.3,0.6c0.4,0.2,1.3,0.1,2-0.4c0.3-0.2,0.3,0.1,0.1,0.3c-0.8,0.7-1.1,0.9-2,0.8
	c-0.4,0-0.4,0.5-0.1,0.7c0.5,0.3,1.3-0.2,2-0.8c0.3-0.2,0.3,0.1,0.2,0.4c-0.4,0.5-0.8,0.9-1.2,1c-0.4,0.1-0.7,0.1-1,0
	c-0.3-0.1-0.4,0.3-0.2,0.5c0.2,0.1,0.5,0.2,1,0.1c0.5-0.2,1-0.6,1.3-1c0.3-0.3,0.3,0.1,0.1,0.3c-0.7,1.1-1.3,1.5-2.2,1.5
	c-0.4-0.1-0.5,0.2-0.2,0.5c0.4,0.4,0.9,0.3,1.4,0c0.4-0.4,1.2-1.3,1.6-1.7c0.3-0.2,0.4,0,0.3,0.5c-0.1,0.3-0.3,0.6-0.8,0.8
	c-0.4,0.2-0.1,0.5,0.2,0.5c0.1,0,0.4-0.2,0.7-0.4c0.3-0.3,0.3-0.6,0.5-1.1c0.2-0.3,0.4-0.1,0.4,0.1c-0.1,0.5-0.2,0.6-0.5,0.9
	c-0.3,0.2,0.2,0.3,0.3,0.2c0.4-0.3,0.6-0.7,0.7-1c0.1-0.2,0.4-0.1,0.3,0.3c-0.3,1-0.9,1.4-1.8,1.5c-0.1,0-0.2,0.1-0.1,0.2
	c0.1,0.1,0.3,0.3,0.4,0.4c0,0-1.1,0.3-1.6,0.4l-0.8-0.6c0.1-0.2-0.3-0.4-0.6-0.2c-0.3-0.1-0.4-0.1-0.6,0.1c0.2-0.1,0.3,0,0.4,0.1
	c0.1,0.2,0.4,0.4,0.6,0.3l0.6,0.4l-1,0c-0.1-0.3-0.6-0.3-0.7,0c-0.2,0-0.3,0.1-0.4,0.3c0.2-0.1,0.3-0.1,0.4-0.1
	c0.1,0.2,0.5,0.2,0.6,0l1,0L12,15.7c-0.3-0.2-0.8,0.1-0.7,0.4c-0.1,0.1-0.2,0.3-0.1,0.5c0-0.2,0.1-0.3,0.3-0.4
	c0.3,0.1,0.6,0,0.6-0.3l0.8-0.5l0.8,0.3c0,0.2,0.3,0.4,0.6,0.3c0.2,0,0.2,0.2,0.2,0.3c0.1-0.2,0.1-0.4-0.1-0.5
	c0-0.2-0.3-0.4-0.6-0.3l-0.7-0.2c0.6-0.2,1.7-0.4,1.7-0.4c0.2,0.1,0.3,0.3,0.4,0.4c0.1,0,0.2,0,0.3-0.1c0.4-0.6,0.7-1.6,1.3-1.7
	c0.2-0.1,0.4,0.1,0.4,0.5c-0.1,0.7-0.6,1.2-1.2,1.7c-0.3,0.2-0.5,0.1-0.8,0.1c-0.3,0-0.4,0.2-0.2,0.5c0.3,0.1,0.5,0.2,0.7,0.1
	c0.2,0,0.4-0.3,0.5-0.4c0.2-0.2,0.4,0,0.2,0.3c-0.3,0.4-0.6,0.6-1,0.6c-0.4,0.1-0.3,0.3-0.1,0.4c0.5,0.2,1-0.2,1.2-0.4
	c0.2-0.2,0.3-0.2,0.3,0.1c-0.2,0.6-0.4,0.8-0.8,0.8c-0.3,0-0.3,0.2-0.1,0.4c0.5,0.4,0.9-0.3,1.1-0.6c0.1-0.3,0.3-0.2,0.3,0.1
	c0,0.4-0.3,0.8-0.5,1c-0.2,0.2,1,1.4,1,1.4S19.2,18.8,19,18.6L19,18.6z M20.6,4.5c-0.2,0-0.3,0.1-0.3,0.1c0,0.1,0.1,0.1,0.3,0.1
	c0.2,0,0.3-0.1,0.3-0.2C20.9,4.5,20.8,4.5,20.6,4.5L20.6,4.5z M15.4,4.5c0.2,0,0.3,0.1,0.3,0.1c0,0.1-0.1,0.1-0.3,0.1
	c-0.2,0-0.3-0.1-0.3-0.2C15.1,4.5,15.2,4.5,15.4,4.5L15.4,4.5z"/>
</svg>
