<?xml version="1.0" encoding="utf-8"?>
<!-- Generator: Adobe Illustrator 23.0.2, SVG Export Plug-In . SVG Version: 6.00 Build 0)  -->
<svg version="1.1" id="圖層_1" xmlns="http://www.w3.org/2000/svg" xmlns:xlink="http://www.w3.org/1999/xlink" x="0px" y="0px"
	 viewBox="0 0 36 24" style="enable-background:new 0 0 36 24;" xml:space="preserve">
<style type="text/css">
	.st0{fill:#DE2910;}
	.st1{fill:#FFDE00;}
</style>
<rect class="st0" width="36" height="24"/>
<g transform="matrix(.31284 .1151 -.1151 .31284 901.67 686.25)">
	<path class="st1" d="M11,11.5l0.5-0.7L11,10.1l0.8,0.3l0.5-0.7l0,0.9l0.8,0.3l-0.8,0.2V12l-0.5-0.7L11,11.5L11,11.5z"/>
</g>
<g transform="matrix(.33309 -.012796 .012796 .33309 1027.4 539.84)">
	<path class="st1" d="M13.7,9.4L14,8.6l-0.7-0.5h0.9l0.2-0.8L14.7,8h0.9l-0.7,0.5l0.3,0.8l-0.7-0.5L13.7,9.4L13.7,9.4z"/>
</g>
<g transform="matrix(.29883 -.14769 .14769 .29883 976.3 324.36)">
	<path class="st1" d="M14.2,6l-0.1-0.9L13.2,5L14,4.6l-0.1-0.9l0.6,0.6L15.2,4l-0.4,0.8l0.6,0.6l-0.9-0.1L14.2,6L14.2,6z"/>
</g>
<g transform="matrix(.30707 .12971 -.12971 .30707 910.78 -18.568)">
	<path class="st1" d="M11,3l0.6-0.7l-0.4-0.7L12,1.9l0.6-0.7l-0.1,0.9l0.8,0.3l-0.8,0.2l-0.1,0.9L12,2.8L11,3L11,3z"/>
</g>
<g>
	<polygon class="st1" points="7.3,6.1 6.6,3.8 5.8,6.1 3.4,6.1 5.4,7.5 4.6,9.8 4.6,9.8 6.6,8.4 8.5,9.8 7.8,7.5 9.8,6.1 	"/>
	<polygon class="st1" points="12.6,10.5 12.1,11.2 11.3,10.9 11.7,11.6 11.3,12.2 11.3,12.2 12,12 12.5,12.6 12.5,11.8 13.3,11.6 
		12.5,11.3 	"/>
	<polygon class="st1" points="15.4,9 14.6,9 14.4,8.2 14.1,9 13.3,9 14,9.5 13.8,10.3 13.8,10.3 14.4,9.8 15.1,10.2 14.8,9.5 	"/>
	<polygon class="st1" points="14.1,6.3 14.2,7.1 14.2,7.1 14.6,6.4 15.4,6.5 14.8,5.9 15.2,5.2 14.5,5.6 13.9,5 14,5.8 13.3,6.1 	
		"/>
	<polygon class="st1" points="12.4,4.8 12.5,4 13.3,3.9 12.5,3.5 12.6,2.7 12.1,3.3 11.3,3 11.7,3.7 11.2,4.3 11.2,4.3 12,4.2 	"/>
</g>
</svg>
