<?xml version="1.0" encoding="utf-8"?>
<!-- Generator: Adobe Illustrator 22.0.1, SVG Export Plug-In . SVG Version: 6.00 Build 0)  -->
<svg version="1.1" id="圖層_1" xmlns="http://www.w3.org/2000/svg" xmlns:xlink="http://www.w3.org/1999/xlink" x="0px" y="0px"
	 viewBox="0 0 82 82" style="enable-background:new 0 0 82 82;" xml:space="preserve">
<style type="text/css">
	.st0{fill:#FFFFFF;}
</style>
<g>
	<polygon class="st0" points="48.3,39.4 50.7,35.1 45.8,35 44.8,30.2 41,33.2 37.2,30.2 36.2,35 31.3,35.1 33.7,39.4 30,42.6 
		34.5,44.4 33.8,49.2 38.4,47.7 41,51.9 43.6,47.7 48.2,49.2 47.5,44.4 52,42.6 	"/>
	<path class="st0" d="M41,58.5c-1.6,0-2.9,1.3-2.9,2.9v15.6c0,1.6,1.3,2.9,2.9,2.9s2.9-1.3,2.9-2.9V61.5
		C43.9,59.8,42.6,58.5,41,58.5z"/>
	<path class="st0" d="M77.1,38.1H61.5c-1.6,0-2.9,1.3-2.9,2.9s1.3,2.9,2.9,2.9h15.6c1.6,0,2.9-1.3,2.9-2.9S78.7,38.1,77.1,38.1z"/>
	<path class="st0" d="M41,23.5c1.6,0,2.9-1.3,2.9-2.9V4.9C43.9,3.3,42.6,2,41,2s-2.9,1.3-2.9,2.9v15.6C38.1,22.2,39.4,23.5,41,23.5z
		"/>
	<path class="st0" d="M23.5,41c0-1.6-1.3-2.9-2.9-2.9H4.9C3.3,38.1,2,39.4,2,41s1.3,2.9,2.9,2.9h15.6C22.2,43.9,23.5,42.6,23.5,41z"
		/>
	<path class="st0" d="M60.1,55.9c-1.1-1.1-3-1.1-4.1,0c-1.1,1.1-1.1,3,0,4.1l6.4,6.4c0.6,0.6,1.3,0.9,2.1,0.9s1.5-0.3,2.1-0.9
		c1.1-1.1,1.1-3,0-4.1L60.1,55.9z"/>
	<path class="st0" d="M58,26.9c0.7,0,1.5-0.3,2.1-0.9l6.4-6.4c1.1-1.1,1.1-3,0-4.1c-1.1-1.1-3-1.1-4.1,0l-6.4,6.4
		c-1.1,1.1-1.1,3,0,4.1C56.5,26.7,57.2,26.9,58,26.9z"/>
	<path class="st0" d="M19.7,15.5c-1.1-1.1-3-1.1-4.1,0c-1.1,1.1-1.1,3,0,4.1l6.4,6.4c0.6,0.6,1.3,0.9,2.1,0.9s1.5-0.3,2.1-0.9
		c1.1-1.1,1.1-3,0-4.1L19.7,15.5z"/>
	<path class="st0" d="M21.9,55.9l-6.4,6.4c-1.1,1.1-1.1,3,0,4.1c0.6,0.6,1.3,0.9,2.1,0.9s1.5-0.3,2.1-0.9l6.4-6.4
		c1.1-1.1,1.1-3,0-4.1C24.9,54.8,23.1,54.8,21.9,55.9z"/>
</g>
</svg>
