<?xml version="1.0" encoding="utf-8"?>
<!-- Generator: Adobe Illustrator 22.0.1, SVG Export Plug-In . SVG Version: 6.00 Build 0)  -->
<svg version="1.1" id="圖層_1" xmlns="http://www.w3.org/2000/svg" xmlns:xlink="http://www.w3.org/1999/xlink" x="0px" y="0px"
	 viewBox="0 0 40 40" style="enable-background:new 0 0 40 40;" xml:space="preserve">
<style type="text/css">
	.st0{fill:none;stroke:#767B82;stroke-width:0.75;stroke-miterlimit:10;}
	.st1{fill:#FFFFFF;stroke:#767B82;stroke-width:0.75;stroke-miterlimit:10;}
	.st2{fill:none;stroke:#767B82;stroke-width:0.75;stroke-linecap:round;stroke-miterlimit:10;}
	.st3{fill:#767B82;}
</style>
<g>
	<path class="st0" d="M27.3,30.3L8.5,26.6c-1.4-0.3-2.4-1.7-2.1-3.1L9.9,6c0.3-1.4,1.7-2.4,3.1-2.1l18.8,3.7
		c1.4,0.3,2.4,1.7,2.1,3.1l-3.4,17.5C30.1,29.6,28.7,30.5,27.3,30.3z"/>
	<path class="st1" d="M27.6,36.1L9.2,36.1c-1.7,0-3-1.3-3-3L6.1,9.5c0-1.7,1.3-3,3-3l18.4-0.1c1.7,0,3,1.3,3,3l0.1,23.7
		C30.6,34.7,29.3,36.1,27.6,36.1z"/>
	<g>
		<line class="st2" x1="9" y1="21.6" x2="27.7" y2="21.6"/>
		<line class="st2" x1="9" y1="26.2" x2="27.7" y2="26.2"/>
		<line class="st2" x1="9" y1="30.8" x2="27.7" y2="30.8"/>
	</g>
	<path class="st3" d="M18.4,13.6c-0.1-0.5-1.3-0.4-3.3,0.2l-3.2-2.5c-0.2-0.1-0.4-0.2-0.6-0.1l-0.1,0l2.2,3
		c-1.1,0.4-2.5,0.9-3.4,1.4l-0.6-0.5l0,0c-0.2-0.1-0.4-0.2-0.6-0.1l-0.1,0L9.5,16c-0.2,0.2-0.4,0.3-0.3,0.4s0.2,0.1,0.5,0.1
		l-0.1,1.2l0.1,0c0.2-0.1,0.3-0.2,0.4-0.4l0.3-0.9c1-0.1,2.4-0.4,3.5-0.7l-0.2,3.8l0.1,0c0.2-0.1,0.3-0.2,0.4-0.4l1.3-3.8
		C17.5,14.7,18.5,14.1,18.4,13.6z"/>
</g>
</svg>
