<?xml version="1.0" encoding="utf-8"?>
<!-- Generator: Adobe Illustrator 22.0.1, SVG Export Plug-In . SVG Version: 6.00 Build 0)  -->
<svg version="1.1" id="圖層_1" xmlns="http://www.w3.org/2000/svg" xmlns:xlink="http://www.w3.org/1999/xlink" x="0px" y="0px"
	 viewBox="0 0 82 82" style="enable-background:new 0 0 82 82;" xml:space="preserve">
<style type="text/css">
	.st0{fill:#FFFFFF;}
</style>
<g>
	<path class="st0" d="M15.1,70.3v4c0,3.1,2.8,5.7,6.3,5.7s6.3-2.5,6.3-5.7v-4H15.1z"/>
	<path class="st0" d="M54,70.3v4c0,3.1,2.8,5.7,6.3,5.7s6.3-2.5,6.3-5.7v-4H54z"/>
</g>
<path class="st0" d="M65.3,2.6h-49c-3.5,0-6.2,2.7-6.2,6.2v53c0,3.5,2.7,6.2,6.2,6.2h49.3c3.5,0,6.2-2.7,6.2-6.2V9
	C71.5,5.5,68.8,2.6,65.3,2.6z M32.5,8.9c0-1.1,0.9-2,2-2h13c1.1,0,2,0.9,2,2v1.6c0,1.1-0.9,2-2,2h-13c-1.1,0-2-0.9-2-2V8.9z
	 M20.8,57.5c-1.9,0-3.7-1.7-3.7-3.7c0-1.9,1.5-3.7,3.7-3.7c1.9,0,3.7,1.5,3.7,3.7C24.5,55.7,23,57.5,20.8,57.5z M60.8,57.5
	c-1.9,0-3.7-1.5-3.7-3.7c0-1.9,1.5-3.7,3.7-3.7c1.9,0,3.7,1.5,3.7,3.7C64.5,55.8,62.8,57.5,60.8,57.5z M64.5,38.4
	c0,1.3-1.2,2.5-2.5,2.5H19.6c-1.3,0-2.5-1.2-2.5-2.5V21.9c0-1.3,1.2-2.5,2.5-2.5H62c1.3,0,2.5,1.2,2.5,2.5V38.4z"/>
</svg>
