<?xml version="1.0" encoding="utf-8"?>
<!-- Generator: Adobe Illustrator 23.0.2, SVG Export Plug-In . SVG Version: 6.00 Build 0)  -->
<svg version="1.1" id="圖層_1" xmlns="http://www.w3.org/2000/svg" xmlns:xlink="http://www.w3.org/1999/xlink" x="0px" y="0px"
	 viewBox="0 0 36 24" style="enable-background:new 0 0 36 24;" xml:space="preserve">
<style type="text/css">
	.st0{fill:#CE1126;}
	.st1{fill:#FFFFFF;}
	.st2{fill:#009E60;}
</style>
<g>
	<rect class="st0" width="36" height="7.5"/>
	<rect y="7.4" class="st1" width="36" height="8.8"/>
	<rect y="16.2" width="36" height="7.8"/>
	<g transform="matrix(1.5656 0 0 1.7026 -158.74 -207.31)">
		<g transform="scale(2)">
			<path class="st2" d="M54.2,65.3L54.2,65.3l0-0.1l0.1-0.1l0.1,0.1l0.1,0.1l-0.1,0.1L54.2,65.3L54.2,65.3z M53.7,65.2
				C53.7,65.2,53.7,65.2,53.7,65.2c-0.1-0.1-0.1-0.1-0.1-0.1C53.7,65.1,53.8,65.2,53.7,65.2c0.2-0.1,0.2-0.3,0.1-0.4c0,0,0,0,0-0.1
				s0,0,0,0c0,0,0.1,0,0.1-0.1c0,0,0-0.1,0,0c0,0,0.1,0.1,0.1,0.2c0,0,0,0,0.1,0h0.1l0,0c0,0,0-0.1,0-0.1c0,0,0,0,0,0c0,0,0,0,0.1,0
				c0,0,0.1,0,0.1-0.1c0,0,0.1-0.1,0.1-0.1c0,0,0,0.1,0,0.2v0.2h1.3v-0.5l0,0l0,0l0,0l0,0v0.3H55c-0.3,0-0.6,0-0.6,0
				c0,0,0.3-0.4,0.3-0.4c0,0,0,0,0-0.1s0,0,0,0c0,0,0,0,0,0c0,0,0,0,0,0c0,0,0.1-0.1,0.2-0.3c0.1-0.2,0.2-0.3,0.2-0.3c0,0,0,0,0,0
				c0,0.1,0,0.1,0,0.2c0,0,0,0,0,0c0,0-0.1,0.1-0.3,0.4c-0.2,0.2-0.3,0.4-0.3,0.4c0,0,0.1,0,0.3,0h0.3l0-0.1c0-0.1,0-0.1,0-0.1
				c0,0,0.2-0.2,0.2-0.2c0,0,0.1,0,0.1,0.1l0.1,0.1V65h-1.8l0,0.1c0,0.1-0.1,0.1-0.1,0.2C53.9,65.3,53.8,65.3,53.7,65.2L53.7,65.2z
				 M56,64.4c0-0.4,0-0.6,0-0.6c0,0,0,0,0.1,0c0,0,0.1,0.1,0.1,0.1c0.1,0,0.1,0.1,0,0.1c-0.1,0-0.1,0-0.1,0.4v0.3h0.1
				c0.1,0,0.1,0,0.1,0c0.1,0,0.1,0,0,0c0,0,0,0.1,0,0.1l0,0.1l-0.2,0L56,65V64.4L56,64.4z"/>
			<path class="st2" d="M57.1,64.8c0-0.2,0-0.2,0.1-0.3c0,0,0.1-0.1,0.2-0.1l0.1,0l0-0.1c0-0.1,0-0.1,0-0.1c0,0,0,0,0-0.1
				c0,0,0.1-0.1,0.1-0.1c0,0,0.1-0.1,0.1-0.1c0,0,0,0.2,0,0.3v0.3h0.1v-0.4c0-0.3,0-0.4,0-0.4c0,0,0,0,0,0c0,0,0,0,0-0.1
				c0,0,0.1-0.1,0.1-0.1c0,0,0.1-0.1,0.1-0.1c0,0,0,0.2,0,0.5v0.5h0.1v-1l0,0c0,0,0,0,0,0s0,0,0.1-0.1s0.1-0.1,0.1-0.1
				c0.1-0.1,0.1-0.1,0.1,0.7V65h-1.1L57.1,64.8L57.1,64.8z M57.5,64.7L57.5,64.7L57.5,64.7c-0.1-0.1-0.1,0-0.1,0v0L57.5,64.7
				L57.5,64.7L57.5,64.7z M58.4,64.4c0-0.4,0-0.6,0-0.6c0,0,0,0,0.1,0c0,0,0.1,0.1,0.1,0.1c0.1,0,0.1,0.1,0,0.1
				c-0.1,0-0.1,0-0.1,0.4v0.3h0.1c0.1,0,0.1,0,0.1,0c0,0,0,0,0,0s0,0,0,0.1s0,0.1,0,0.1l0,0.1l-0.2,0l-0.2,0L58.4,64.4L58.4,64.4z
				 M57.5,63.8C57.5,63.8,57.5,63.8,57.5,63.8C57.5,63.8,57.5,63.8,57.5,63.8c0.1,0,0.1,0,0.2-0.1l0,0l0.1,0c0,0,0.1,0,0.1,0
				c0,0,0.1-0.1,0.1-0.1c0,0,0,0,0,0c0,0,0,0.1,0,0.1c0,0,0,0-0.1,0c0,0-0.1,0-0.1,0C57.7,63.9,57.6,63.9,57.5,63.8L57.5,63.8z
				 M57.7,63.7c0,0-0.1-0.1-0.1-0.1c0,0,0,0,0,0C57.6,63.5,57.7,63.5,57.7,63.7C57.7,63.7,57.7,63.7,57.7,63.7L57.7,63.7z"/>
		</g>
	</g>
</g>
</svg>
