<?xml version="1.0" encoding="utf-8"?>
<!-- Generator: Adobe Illustrator 23.0.2, SVG Export Plug-In . SVG Version: 6.00 Build 0)  -->
<svg version="1.1" id="圖層_1" xmlns="http://www.w3.org/2000/svg" xmlns:xlink="http://www.w3.org/1999/xlink" x="0px" y="0px"
	 viewBox="0 0 36 24" style="enable-background:new 0 0 36 24;" xml:space="preserve">
<style type="text/css">
	.st0{fill:#FE0000;}
	.st1{fill:#000095;}
	.st2{fill:#FFFFFF;}
</style>
<g>
	<rect class="st0" width="36" height="24"/>
	<rect class="st1" width="18" height="12"/>
</g>
<g>
	<path class="st2" d="M8.2,8.5L8.4,9l0.4,1.3L9.2,9l0.1-0.5C9.1,8.5,9,8.6,8.8,8.6C8.6,8.6,8.4,8.5,8.2,8.5z"/>
	<path class="st2" d="M9.9,8.8l1,1l-0.3-1.4l-0.1-0.5c-0.3,0.2-0.6,0.4-0.9,0.5L9.9,8.8z"/>
	<path class="st2" d="M11.2,6.8c-0.1,0.4-0.3,0.7-0.5,0.9l0.5,0.1l1.4,0.3l-1-1L11.2,6.8z"/>
	<path class="st2" d="M11.3,6.5l0.5-0.1L13.1,6l-1.3-0.4l-0.5-0.1c0,0.2,0.1,0.4,0.1,0.5C11.3,6.2,11.3,6.4,11.3,6.5z"/>
	<path class="st2" d="M11.5,4.9l1-1l-1.4,0.3l-0.5,0.1c0.2,0.3,0.4,0.6,0.5,0.9L11.5,4.9z"/>
	<path class="st2" d="M10.6,3.6l0.3-1.4l-1,1L9.6,3.6c0.4,0.1,0.7,0.3,0.9,0.5L10.6,3.6z"/>
	<path class="st2" d="M9.3,3.5L9.2,3L8.8,1.7L8.4,3L8.2,3.5c0.2,0,0.4-0.1,0.5-0.1C9,3.4,9.1,3.5,9.3,3.5z"/>
	<path class="st2" d="M7.6,3.2l-1-1l0.3,1.4l0.1,0.5C7.3,3.9,7.6,3.7,8,3.6L7.6,3.2z"/>
	<path class="st2" d="M6.4,4.2L5.1,3.9l1,1l0.3,0.3c0.1-0.4,0.3-0.7,0.5-0.9L6.4,4.2z"/>
	<path class="st2" d="M6.3,5.5L5.8,5.6L4.5,6l1.3,0.4l0.5,0.1c0-0.2-0.1-0.4-0.1-0.5C6.2,5.8,6.2,5.6,6.3,5.5z"/>
	<path class="st2" d="M6,7.1l-1,1l1.4-0.3l0.5-0.1C6.6,7.5,6.4,7.1,6.3,6.8L6,7.1z"/>
	<path class="st2" d="M6.9,8.4L6.6,9.7l1-1L8,8.4C7.6,8.3,7.3,8.1,7.1,7.9L6.9,8.4z"/>
</g>
<circle class="st2" cx="8.8" cy="6" r="1.9"/>
</svg>
