<?xml version="1.0" encoding="utf-8"?>
<!-- Generator: Adobe Illustrator 23.0.2, SVG Export Plug-In . SVG Version: 6.00 Build 0)  -->
<svg version="1.1" id="圖層_1" xmlns="http://www.w3.org/2000/svg" xmlns:xlink="http://www.w3.org/1999/xlink" x="0px" y="0px"
	 viewBox="0 0 36 24" style="enable-background:new 0 0 36 24;" xml:space="preserve">
<style type="text/css">
	.st0{fill:#FFFFFF;}
	.st1{fill:#FF0000;}
	.st2{fill:#12145B;}
	.st3{fill:#13135F;}
</style>
<rect class="st0" width="36" height="23.9"/>
<path class="st2" d="M2.1,0l13.1,8V0H2.1z"/>
<path class="st2" d="M34,24l-13.1-8v8H34z"/>
<path class="st2" d="M33.9,0l-13,7.9V0H33.9z"/>
<path class="st2" d="M2.1,24l13.1-8v8H2.1z"/>
<path class="st1" d="M16.3,0h3.4v24h-3.4V0z"/>
<polygon class="st1" points="0,1.4 0,2.8 10.7,9 13.1,9 "/>
<polygon class="st1" points="12.6,14.9 0,22.5 0,24 0.3,24 15.2,14.9 "/>
<polygon class="st3" points="0,14.9 0,20.2 9.1,14.9 "/>
<polygon class="st3" points="0,3.8 0,9 9.1,9 "/>
<polygon class="st1" points="36,21.1 25.4,14.9 23,14.9 36,22.5 "/>
<polygon class="st3" points="36,14.9 27,14.9 36,20.1 "/>
<polygon class="st3" points="36,3.8 27,9 36,9 "/>
<rect y="10.1" class="st1" width="36" height="3.9"/>
<polygon class="st1" points="36,0 35.7,0 20.9,9 23.6,9 36,1.5 "/>
</svg>
