<?xml version="1.0" encoding="utf-8"?>
<!-- Generator: Adobe Illustrator 22.0.1, SVG Export Plug-In . SVG Version: 6.00 Build 0)  -->
<svg version="1.1" id="圖層_1" xmlns="http://www.w3.org/2000/svg" xmlns:xlink="http://www.w3.org/1999/xlink" x="0px" y="0px"
	 viewBox="0 0 82 82" style="enable-background:new 0 0 82 82;" xml:space="preserve">
<style type="text/css">
	.st0{fill:#FFFFFF;}
</style>
<g>
	<path class="st0" d="M15.5,70.6c0,2.8,2.8,5,6.3,5c3.5,0,6.3-2.2,6.3-5v-3.5H15.5V70.6z"/>
	<path class="st0" d="M54.4,70.6c0,2.8,2.8,5,6.3,5c3.5,0,6.3-2.2,6.3-5v-3.5H54.4V70.6z"/>
	<path class="st0" d="M74,34.4h-0.4L67.1,9.2c-0.4-1.7-1.9-2.8-3.5-2.8H18.4c-1.6,0-3.1,1.2-3.5,2.8L8.4,34.4H8c-3.3,0-6,2.7-6,6
		v17.3c0,3.3,2.7,6,6,6h66c3.3,0,6-2.7,6-6V40.4C80,37.1,77.3,34.4,74,34.4z M15.2,31.1l4.5-17.6c0.3-1.1,1.2-1.9,2.3-1.9h38
		c1.1,0,2,0.8,2.3,1.9l4.5,17.6c0.4,1.6-0.7,3.2-2.3,3.2h-47C15.9,34.4,14.8,32.8,15.2,31.1z M20.3,53c-2.1,0-3.9-1.7-3.9-3.9
		s1.7-3.9,3.9-3.9s3.9,1.7,3.9,3.9S22.5,53,20.3,53z M63,53c-2.1,0-3.9-1.7-3.9-3.9s1.7-3.9,3.9-3.9s3.9,1.7,3.9,3.9S65.2,53,63,53z
		"/>
</g>
</svg>
