<?xml version="1.0" encoding="utf-8"?>
<!-- Generator: Adobe Illustrator 22.0.1, SVG Export Plug-In . SVG Version: 6.00 Build 0)  -->
<svg version="1.1" id="圖層_1" xmlns="http://www.w3.org/2000/svg" xmlns:xlink="http://www.w3.org/1999/xlink" x="0px" y="0px"
	 viewBox="0 0 82 82" style="enable-background:new 0 0 82 82;" xml:space="preserve">
<style type="text/css">
	.st0{fill:#FFFFFF;}
</style>
<g>
	<path class="st0" d="M74.3,37.4H7.5c-3.1,0-5.5,2.2-5.5,5.1v14.2h78V42.5C80,39.8,77.5,37.4,74.3,37.4z"/>
	<path class="st0" d="M2,63.3v2.2V66c0,1.5,1.2,2.7,2.7,2.7H9c1.5,0,2.7-1.2,2.7-2.7v-0.4h58.4V66c0,1.5,1.2,2.7,2.7,2.7h4.3
		c1.5,0,2.7-1.2,2.7-2.7v-0.4v-2.2v-1.9H2V63.3z"/>
	<path class="st0" d="M17.7,32.3v-6.1c0-1.2,1-2.2,2.2-2.2h14.2c1.2,0,2.2,1,2.2,2.2v6.1c0,0.1,0,0.4-0.1,0.6h8.4
		c0-0.1-0.1-0.3-0.1-0.6v-6.1c0-1.2,1-2.2,2.2-2.2H61c1.2,0,2.2,1,2.2,2.2v6.1c0,0.1,0,0.4-0.1,0.6h9.7v-1.6c0-9.9-8.1-18-18-18H26
		c-9.9,0-18,8.1-18,18v1.6h9.7C17.7,32.8,17.7,32.6,17.7,32.3z"/>
</g>
</svg>
