<?xml version="1.0" encoding="utf-8"?>
<!-- Generator: Adobe Illustrator 22.0.1, SVG Export Plug-In . SVG Version: 6.00 Build 0)  -->
<svg version="1.1" id="圖層_1" xmlns="http://www.w3.org/2000/svg" xmlns:xlink="http://www.w3.org/1999/xlink" x="0px" y="0px"
	 viewBox="0 0 36 24" style="enable-background:new 0 0 36 24;" xml:space="preserve">
<style type="text/css">
	.st0{fill:#FFFFFF;}
	.st1{fill:#FFDE00;}
	.st2{fill:#DE2910;}
</style>
<rect class="st0" width="36" height="24"/>
<g>
	<polygon class="st2" points="21.2,14.8 20.8,14.9 20.5,14.6 20.5,15.1 20.1,15.3 20.6,15.4 20.6,15.8 20.9,15.5 21.3,15.5 21,15.2 
			"/>
	<polygon class="st2" points="16.3,15.2 15.9,15.3 15.5,15 15.6,15.5 15.2,15.7 15.6,15.8 15.7,16.2 15.9,15.9 16.4,15.9 16.1,15.6 
			"/>
	<polygon class="st2" points="17.4,8 17.5,8.4 17.8,8 18.2,8.1 17.9,7.7 18.1,7.3 17.7,7.5 17.4,7.2 17.4,7.7 17,7.9 	"/>
	<path class="st2" d="M0,0v24h36V0H0z M19.7,5c-0.8,0.4-0.9,1.2-0.5,1.9c0.5,0.8,0,2.1-0.8,2.4c-1.1,0.5-1.3,1.7-0.6,2.4
		c-0.4-0.3-0.7-0.8-0.9-1.3c-0.2-0.7-0.1-1.5,0.3-2.2l-0.1-0.1c-0.4,0.7-0.5,1.5-0.3,2.3c0.1,0.5,0.4,1,0.8,1.3
		C13.9,9.8,15.8,4.7,19.7,5z M11.9,8.2c0.1,0.9,0.9,1.3,1.7,1c0.9-0.2,2,0.7,2.1,1.5c0.1,1.2,1.2,1.8,2.1,1.4
		c-0.4,0.3-0.9,0.5-1.5,0.4c-0.8,0-1.5-0.4-2-1l-0.1,0.1c0.5,0.6,1.3,1,2.1,1c0.5,0,1-0.1,1.4-0.3C14.7,15.2,10.4,11.9,11.9,8.2z
		 M12.5,16.7c0.9,0.1,1.5-0.4,1.5-1.3c0.1-1,1.3-1.7,2-1.5c1.1,0.2,2.1-0.6,2-1.6c0.2,0.5,0.2,1-0.1,1.6c-0.3,0.7-0.8,1.3-1.6,1.6
		l0,0.1c0.7-0.3,1.3-0.9,1.6-1.7c0.2-0.5,0.2-1,0.1-1.5C20,16.1,15.5,19.2,12.5,16.7z M20.7,18.6c0.4-0.8,0-1.5-0.8-1.8
		c-0.9-0.3-1.2-1.7-0.8-2.4c0.6-1,0.1-2.2-0.9-2.4c0.5,0,1,0.2,1.5,0.5c0.6,0.5,1,1.2,1,2l0.1,0c-0.1-0.8-0.4-1.5-1.1-2
		c-0.4-0.3-0.9-0.5-1.4-0.6C22.6,11.4,24,16.6,20.7,18.6z M23.2,11.6c-0.6,0.7-2,0.6-2.5,0c-0.8-0.9-2-0.7-2.5,0.1
		c0.1-0.5,0.5-0.9,1-1.3c0.6-0.4,1.4-0.6,2.2-0.4l0-0.1c-0.8-0.2-1.6-0.1-2.3,0.4c-0.4,0.3-0.8,0.7-1,1.1c0.7-4.1,6.1-3.9,7.1-0.1
		C24.5,10.8,23.7,10.9,23.2,11.6z"/>
	<polygon class="st2" points="13.8,11.7 14,11.3 14.4,11.3 14.2,11 14.3,10.6 13.9,10.8 13.6,10.5 13.6,10.9 13.3,11.1 13.7,11.2 	
		"/>
	<polygon class="st2" points="22.4,9.9 22,10.1 21.6,9.8 21.7,10.2 21.3,10.4 21.7,10.6 21.8,11 22,10.6 22.5,10.7 22.2,10.3 	"/>
</g>
</svg>
