<?xml version="1.0" encoding="utf-8"?>
<!-- Generator: Adobe Illustrator 22.0.1, SVG Export Plug-In . SVG Version: 6.00 Build 0)  -->
<svg version="1.1" id="圖層_1" xmlns="http://www.w3.org/2000/svg" xmlns:xlink="http://www.w3.org/1999/xlink" x="0px" y="0px"
	 viewBox="0 0 145.2 40" style="enable-background:new 0 0 145.2 40;" xml:space="preserve">
<style type="text/css">
	.st0{fill:#FFFFFF;}
	.st1{fill:#FFFFFF;stroke:#FFFFFF;stroke-miterlimit:10;}
</style>
<g>
	<g>
		<path class="st0" d="M29.8,27.7c5.2,0,9.8-0.7,13.3-1.7c0.8-1.8,1.3-3.9,1.3-6c0-8.1-6.5-14.6-14.6-14.6S15.2,11.9,15.2,20
			c0,2.1,0.5,4.2,1.3,6C20.1,27.1,24.6,27.7,29.8,27.7z"/>
		<path class="st0" d="M29.8,30.7c-4,0-7.7-0.4-10.9-1c2.7,3,6.6,4.9,10.9,4.9c4.4,0,8.3-1.9,10.9-4.9
			C37.5,30.4,33.8,30.7,29.8,30.7z"/>
	</g>
	<g>
		<path class="st0" d="M13.5,24.9c-3.3-1.4-5.2-3.2-5.2-4.9s1.9-3.5,5.2-4.9c0.4-1.4,1-2.6,1.7-3.8c-6.1,1.9-9.9,5.1-9.9,8.7
			c0,3.7,3.8,6.8,9.9,8.7C14.4,27.5,13.9,26.3,13.5,24.9z"/>
		<path class="st0" d="M44.5,11.3c0.7,1.2,1.3,2.5,1.7,3.8c3.3,1.4,5.2,3.2,5.2,4.9s-1.9,3.5-5.2,4.9c-0.4,1.4-1,2.6-1.7,3.8
			c6.1-1.9,9.9-5.1,9.9-8.7S50.6,13.2,44.5,11.3z"/>
	</g>
</g>
<g>
	<path class="st1" d="M70.7,32.2V12.5h-7.8v-2.3h18.7v2.3h-7.8v19.6h-3.1V32.2z"/>
	<path class="st1" d="M89.1,20.8c1.4-1.8,3.2-2.7,5.3-2.7c1.9,0,3.5,0.6,4.7,1.9s1.8,2.9,1.8,4.9c0,2.3-0.7,4.2-2.1,5.6
		s-3.1,2.2-5.2,2.2c-2.4,0-4.3-1-5.7-2.9s-2-4.7-2-8.1c0-4.7,1.2-8.1,3.6-10.2c1.3-1.2,3.1-1.8,5.4-1.8c1.3,0,3,0.3,4.9,0.8V13
		c-2.1-0.8-3.8-1.2-5.1-1.2C90.9,11.8,89.1,14.8,89.1,20.8z M98,25.4c0-1.6-0.4-2.9-1.1-3.8c-0.8-0.9-1.8-1.4-3.1-1.4
		c-1.2,0-2.3,0.4-3.2,1.2c-0.9,0.8-1.3,1.8-1.3,3c0,1.8,0.4,3.3,1.3,4.4c0.8,1.1,2,1.7,3.4,1.7c1.3,0,2.3-0.5,3-1.4
		C97.6,28.2,98,27,98,25.4z"/>
	<path class="st1" d="M111,32.2V12.4h-3.5v-1.8L114,10v22.2H111z"/>
	<path class="st1" d="M124.8,32.2v-2.6c0.9-2,2.6-4.2,5.2-6.5l1.7-1.5c2.2-2,3.2-3.9,3.2-5.8c0-1.2-0.4-2.2-1.1-2.9
		c-0.7-0.7-1.8-1.1-3-1.1c-1.5,0-3.3,0.6-5.4,1.8V11c2-0.9,3.9-1.4,5.8-1.4c2.1,0,3.7,0.6,5,1.7c1.2,1.1,1.9,2.6,1.9,4.4
		c0,1.3-0.3,2.5-0.9,3.5c-0.6,1-1.8,2.3-3.5,3.7l-1.1,1c-2.3,2-3.7,3.9-4.1,5.7h9.5v2.6H124.8z"/>
</g>
</svg>
