<?xml version="1.0" encoding="utf-8"?>
<!-- Generator: Adobe Illustrator 23.0.2, SVG Export Plug-In . SVG Version: 6.00 Build 0)  -->
<svg version="1.1" id="圖層_1" xmlns="http://www.w3.org/2000/svg" xmlns:xlink="http://www.w3.org/1999/xlink" x="0px" y="0px"
	 viewBox="0 0 36 24" style="enable-background:new 0 0 36 24;" xml:space="preserve">
<style type="text/css">
	.st0{fill:#DA2032;}
	.st1{fill:#0066B3;}
	.st2{fill:#FFD900;}
</style>
<path class="st0" d="M0,0h36v24H0V0z"/>
<path class="st1" d="M12,0h12v24H12V0z"/>
<g>
	<circle class="st2" cx="6" cy="9.6" r="1.6"/>
	<circle class="st0" cx="6" cy="8.9" r="1.8"/>
	<circle class="st2" cx="6" cy="9.2" r="1.2"/>
	<path class="st2" d="M2.7,11.6v7.2h1.5v-7.2H2.7z M7.8,11.6v7.2h1.5v-7.2H7.8z M4.5,12.8v0.6h3v-0.6H4.5z M4.5,17v0.6h3V17H4.5z
		 M4.5,11.6h3L6,12.5L4.5,11.6z M4.5,17.9h3L6,18.8L4.5,17.9z M5.2,6.9c0,0.4,0.3,0.8,0.8,0.8c0.4,0,0.8-0.3,0.8-0.8
		c0-0.3-0.2-0.3-0.2-0.5c0-0.1,0.1-0.3-0.1-0.5c0.1,0.2-0.1,0.2-0.1,0.4s0.1,0.2,0.1,0.3c0,0.1-0.1,0.2-0.2,0.2S6.1,6.8,6.1,6.8
		c0-0.2,0.2-0.3,0.2-0.5s0-0.3-0.2-0.5C6,5.5,5.8,5.4,6,5.2C5.8,5.3,5.9,5.6,5.9,5.8S5.7,6.1,5.7,6.3s0.1,0.3,0.1,0.4
		c0,0.1-0.1,0.2-0.2,0.2c-0.1,0-0.2-0.1-0.2-0.2c0-0.2,0.1-0.2,0.1-0.3c0-0.2-0.2-0.2-0.1-0.4C5.3,6.2,5.4,6.3,5.4,6.5
		C5.4,6.6,5.2,6.6,5.2,6.9L5.2,6.9z"/>
	<g>
		<g>
			<circle class="st2" cx="6" cy="15.2" r="1.6"/>
			<path class="st0" d="M6,16.8c-0.4,0-0.9-0.2-1.2-0.5c-0.3-0.3-0.5-0.7-0.5-1.2s0.2-0.9,0.5-1.2c0.3-0.3,0.7-0.5,1.2-0.5
				s0.9,0.2,1.2,0.5c0.3,0.3,0.5,0.7,0.5,1.2S7.5,16,7.2,16.3C6.9,16.7,6.4,16.8,6,16.8z M6,13.7c-0.8,0-1.5,0.7-1.5,1.5
				s0.7,1.5,1.5,1.5s1.5-0.7,1.5-1.5S6.8,13.7,6,13.7z"/>
		</g>
		<g>
			<path class="st2" d="M6,13.6c0.4,0,0.8,0.4,0.8,0.8S6.4,15.2,6,15.2S5.2,15.5,5.2,16c0,0.4,0.4,0.8,0.8,0.8"/>
			<path class="st0" d="M6,16.8c-0.5,0-0.9-0.4-0.9-0.9c0-0.5,0.4-0.9,0.9-0.9c0.4,0,0.7-0.3,0.7-0.7S6.4,13.7,6,13.7v-0.2
				c0.5,0,0.9,0.4,0.9,0.9S6.5,15.2,6,15.2c-0.4,0-0.7,0.3-0.7,0.7s0.3,0.7,0.7,0.7V16.8z"/>
		</g>
	</g>
	<g>
		<g>
			<circle class="st0" cx="6" cy="14.4" r="0.3"/>
		</g>
		<g>
			<circle class="st0" cx="6" cy="16" r="0.3"/>
		</g>
	</g>
</g>
</svg>
