<?xml version="1.0" encoding="utf-8"?>
<!-- Generator: Adobe Illustrator 22.0.1, SVG Export Plug-In . SVG Version: 6.00 Build 0)  -->
<svg version="1.1" id="圖層_1" xmlns="http://www.w3.org/2000/svg" xmlns:xlink="http://www.w3.org/1999/xlink" x="0px" y="0px"
	 viewBox="0 0 82 82" style="enable-background:new 0 0 82 82;" xml:space="preserve">
<style type="text/css">
	.st0{fill:#FFFFFF;}
</style>
<g>
	<path class="st0" d="M30.7,35.4C30.7,16.9,30,2,25.8,2S15.6,16.9,15.6,35.4s4.6,16.4,7.5,20.2c0.9,1.2,1,1.7,1,5.3V78
		c0,1.1,0.9,2,2,2h2.5c1.1,0,2-0.9,2-2V36.1l0,0C30.6,35.6,30.7,35.4,30.7,35.4z"/>
	<path class="st0" d="M66.4,27c0-8.5-1.3-16.2-3.3-22C62.8,4,62,3.2,61,3c-0.1,0-0.3-0.1-0.4-0.1v24.6c0,0.7-0.6,1.3-1.3,1.3l0,0
		c-0.7,0-1.3-0.6-1.3-1.3v-24c0-0.7-0.5-1.2-1.1-1.3c-0.1,0-0.1,0-0.2,0c-0.8-0.1-1.5,0.5-1.5,1.3v24c0,0.7-0.6,1.3-1.3,1.3l0,0
		c-0.7,0-1.3-0.6-1.3-1.3v-24c0-0.8-0.7-1.4-1.5-1.3c-0.1,0-0.1,0-0.2,0c-0.6,0.1-1.1,0.6-1.1,1.3v24c0,0.7-0.6,1.3-1.3,1.3l0,0
		c-0.7,0-1.3-0.6-1.3-1.3V2.8c-0.1,0-0.3,0.1-0.4,0.1c-1,0.3-1.8,1-2.1,2c-2,5.8-3.3,13.5-3.3,22c0,13.5,2.7,16.6,7.1,18.2
		c1.3,0.5,2.2,1.7,2.2,3.1c0,6.8,0,23.7,0,29.8c0,1.1,0.9,1.9,1.9,1.9h2.7c1,0,1.9-0.8,1.9-1.9V48.2c0-1.4,0.9-2.6,2.2-3.1
		C63.7,43.6,66.4,40.5,66.4,27z"/>
</g>
</svg>
