<?xml version="1.0" encoding="utf-8"?>
<!-- Generator: Adobe Illustrator 23.0.2, SVG Export Plug-In . SVG Version: 6.00 Build 0)  -->
<svg version="1.1" id="圖層_1" xmlns="http://www.w3.org/2000/svg" xmlns:xlink="http://www.w3.org/1999/xlink" x="0px" y="0px"
	 viewBox="0 0 36 24" style="enable-background:new 0 0 36 24;" xml:space="preserve">
<style type="text/css">
	.st0{fill-rule:evenodd;clip-rule:evenodd;fill:#FFFFFF;}
	.st1{fill-rule:evenodd;clip-rule:evenodd;fill:#329203;}
	.st2{fill-rule:evenodd;clip-rule:evenodd;fill:#E77300;}
	.st3{fill-rule:evenodd;clip-rule:evenodd;fill:#08399C;}
</style>
<g>
	<path class="st0" d="M0,0h36v24H0V0z"/>
	<path class="st1" d="M0,16h36v8H0V16z"/>
	<path class="st2" d="M0,0h36v8H0V0z"/>
	<g transform="matrix(.36664 0 0 .36664 398.44 219.6)">
		<path class="st3" d="M-1027.3-566.2c0-5.7-4.6-10.3-10.3-10.3c-5.7,0-10.3,4.6-10.3,10.3l0,0c0,5.7,4.6,10.3,10.3,10.3
			C-1031.9-555.9-1027.3-560.5-1027.3-566.2L-1027.3-566.2"/>
		<path class="st0" d="M-1028.7-568.5c0.1,0.2,0.1,0.3,0.1,0.5c-0.4,0.1-0.6,0.4-0.6,0.7c0,0.2,0.2,0.6,0.7,0.5c0,0.2,0,0.3,0,0.5
			c-1.5,0-3.1-0.1-4.7-0.2c-1.1-0.1-1.4,0.2-2,0.3c-0.7,0.1-1.2,0-2.6,0.1c1.4-0.3,1.9-0.4,2.5-0.6c0.6-0.1,0.8,0.1,2-0.3
			C-1031.7-567.6-1030.2-568.1-1028.7-568.5L-1028.7-568.5z"/>
		<path class="st0" d="M-1039.9-575.1c0.2-0.1,0.3-0.1,0.5-0.1c0.1,0.4,0.4,0.6,0.7,0.6c0.2,0,0.6-0.2,0.5-0.7c0.2,0,0.3,0,0.5,0
			c0,1.5-0.1,3.1-0.2,4.6c-0.1,1.1,0.2,1.4,0.2,2c0.1,0.7,0,1.2,0.1,2.6c-0.3-1.4-0.4-1.9-0.5-2.5c-0.1-0.6,0.1-0.8-0.3-2
			C-1039-572.1-1039.5-573.6-1039.9-575.1L-1039.9-575.1z"/>
		<path class="st0" d="M-1037.5-575.4c0.2,0,0.3,0,0.5,0c0,0.4,0.2,0.7,0.5,0.7c0.2,0,0.6-0.1,0.7-0.6c0.2,0,0.3,0.1,0.5,0.1
			c-0.4,1.5-0.9,3-1.4,4.4c-0.4,1-0.2,1.4-0.3,2c-0.1,0.7-0.3,1.2-0.6,2.5c0.1-1.4,0.1-1.9,0.1-2.6c0.1-0.6,0.3-0.8,0.2-2
			C-1037.4-572.3-1037.5-573.9-1037.5-575.4L-1037.5-575.4z"/>
		<path class="st0" d="M-1035.1-575.1c0.2,0.1,0.3,0.1,0.5,0.2c-0.1,0.4,0,0.7,0.3,0.8c0.2,0.1,0.6,0.1,0.8-0.4
			c0.2,0.1,0.3,0.1,0.5,0.2c-0.8,1.3-1.7,2.7-2.5,3.9c-0.6,0.9-0.5,1.3-0.8,1.8c-0.3,0.6-0.6,1-1.2,2.3c0.4-1.3,0.6-1.9,0.8-2.5
			c0.2-0.6,0.5-0.7,0.7-1.9C-1035.8-572-1035.5-573.6-1035.1-575.1L-1035.1-575.1z"/>
		<path class="st0" d="M-1032.9-574.1c0.2,0.1,0.3,0.2,0.4,0.3c-0.2,0.4-0.2,0.7,0.1,0.9c0.2,0.1,0.6,0.3,0.9-0.1
			c0.2,0.1,0.2,0.2,0.4,0.4c-1.1,1.1-2.3,2.2-3.4,3.1c-0.9,0.7-0.8,1.1-1.2,1.6c-0.4,0.5-0.8,0.9-1.8,1.9c0.8-1.2,1-1.7,1.4-2.2
			c0.4-0.5,0.7-0.5,1.2-1.6C-1034.4-571.4-1033.7-572.8-1032.9-574.1L-1032.9-574.1z"/>
		<path class="st0" d="M-1031-572.7c0.2,0.2,0.2,0.2,0.4,0.4c-0.3,0.3-0.3,0.7-0.2,0.9c0.2,0.2,0.5,0.4,0.9,0.1
			c0.1,0.2,0.2,0.3,0.3,0.4c-1.3,0.8-2.8,1.5-4.1,2.1c-1,0.5-1.1,0.9-1.6,1.2c-0.6,0.4-1,0.6-2.2,1.4c1-0.9,1.4-1.3,1.9-1.7
			c0.5-0.4,0.8-0.3,1.5-1.3C-1033.2-570.4-1032.1-571.6-1031-572.7L-1031-572.7z"/>
		<path class="st0" d="M-1029.6-570.7c0.1,0.2,0.1,0.3,0.2,0.5c-0.4,0.2-0.5,0.5-0.4,0.8c0.1,0.2,0.4,0.5,0.8,0.3
			c0.1,0.2,0.1,0.3,0.2,0.5c-1.5,0.4-3.1,0.7-4.6,1c-1.1,0.2-1.3,0.6-1.8,0.8c-0.6,0.2-1.2,0.3-2.5,0.7c1.2-0.6,1.7-0.9,2.3-1.2
			c0.6-0.2,0.8-0.1,1.8-0.8C-1032.2-569.1-1030.9-570-1029.6-570.7L-1029.6-570.7z"/>
		<path class="st0" d="M-1046.5-563.9c-0.1-0.2-0.1-0.3-0.1-0.5c0.4-0.1,0.6-0.4,0.6-0.7c0-0.2-0.2-0.6-0.7-0.5c0-0.2,0-0.3,0-0.5
			c1.5,0,3.1,0.1,4.6,0.2c1.1,0.1,1.4-0.2,2-0.2c0.7-0.1,1.2,0,2.6-0.1c-1.4,0.3-1.9,0.4-2.5,0.5c-0.6,0.1-0.8-0.1-2,0.3
			C-1043.5-564.8-1045-564.3-1046.5-563.9L-1046.5-563.9z"/>
		<path class="st0" d="M-1028.4-566.2c0,0.2,0,0.3,0,0.5c-0.4,0-0.7,0.2-0.7,0.5c0,0.2,0.1,0.6,0.6,0.7c0,0.2-0.1,0.3-0.1,0.5
			c-1.5-0.4-3-0.9-4.4-1.4c-1-0.4-1.4-0.1-2-0.2c-0.7-0.1-1.2-0.3-2.5-0.6c1.4,0.1,1.9,0,2.6,0.1c0.6,0.1,0.8,0.3,2,0.2
			C-1031.5-566.1-1029.9-566.2-1028.4-566.2L-1028.4-566.2z"/>
		<path class="st0" d="M-1028.7-563.8c-0.1,0.2-0.1,0.3-0.2,0.5c-0.4-0.1-0.7,0-0.8,0.3c-0.1,0.2-0.1,0.6,0.4,0.8
			c-0.1,0.2-0.1,0.3-0.2,0.5c-1.3-0.8-2.7-1.6-3.9-2.5c-0.9-0.6-1.3-0.5-1.8-0.7c-0.6-0.3-1-0.6-2.3-1.2c1.3,0.4,1.9,0.5,2.5,0.8
			c0.6,0.2,0.7,0.5,1.9,0.7C-1031.8-564.5-1030.2-564.2-1028.7-563.8L-1028.7-563.8z"/>
		<path class="st0" d="M-1029.6-561.6c-0.1,0.2-0.2,0.3-0.3,0.4c-0.4-0.2-0.7-0.2-0.9,0.1c-0.1,0.2-0.3,0.6,0.2,0.9
			c-0.1,0.2-0.2,0.2-0.4,0.4c-1.1-1.1-2.2-2.3-3.1-3.4c-0.7-0.9-1.1-0.8-1.6-1.2c-0.5-0.4-0.9-0.8-1.9-1.8c1.2,0.8,1.7,1,2.2,1.4
			c0.5,0.4,0.5,0.7,1.6,1.2C-1032.4-563.1-1031-562.4-1029.6-561.6L-1029.6-561.6z"/>
		<path class="st0" d="M-1031.1-559.7c-0.1,0.2-0.2,0.2-0.4,0.4c-0.3-0.3-0.7-0.3-0.9-0.2c-0.2,0.2-0.4,0.5-0.1,0.9
			c-0.2,0.1-0.3,0.2-0.4,0.3c-0.8-1.3-1.5-2.8-2.2-4.1c-0.5-1-0.9-1.1-1.2-1.6c-0.4-0.6-0.6-1-1.4-2.2c0.9,1,1.3,1.4,1.7,1.9
			c0.4,0.5,0.3,0.8,1.3,1.5C-1033.4-561.8-1032.2-560.8-1031.1-559.7L-1031.1-559.7z"/>
		<path class="st0" d="M-1033-558.2c-0.2,0.1-0.3,0.1-0.5,0.2c-0.2-0.4-0.5-0.5-0.8-0.4c-0.2,0.1-0.5,0.4-0.3,0.8
			c-0.2,0.1-0.3,0.1-0.5,0.2c-0.4-1.5-0.7-3.1-1-4.5c-0.2-1.1-0.6-1.3-0.8-1.8c-0.2-0.6-0.3-1.2-0.7-2.5c0.6,1.2,0.9,1.7,1.2,2.3
			c0.2,0.6,0.1,0.8,0.8,1.8C-1034.7-560.9-1033.8-559.6-1033-558.2L-1033-558.2z"/>
		<path class="st0" d="M-1035.2-557.3c-0.2,0.1-0.3,0.1-0.5,0.1c-0.1-0.4-0.4-0.6-0.7-0.6c-0.2,0-0.6,0.2-0.5,0.7
			c-0.2,0-0.3,0-0.5,0c0-1.5,0.1-3.1,0.2-4.7c0.1-1.1-0.2-1.4-0.3-2c-0.1-0.7,0-1.2-0.1-2.6c0.3,1.4,0.5,1.9,0.6,2.5
			c0.1,0.6-0.1,0.8,0.3,2C-1036.2-560.3-1035.6-558.8-1035.2-557.3L-1035.2-557.3z"/>
		<path class="st0" d="M-1037.6-557c-0.2,0-0.3,0-0.5,0c0-0.4-0.2-0.7-0.5-0.7c-0.2,0-0.6,0.1-0.7,0.6c-0.2,0-0.3-0.1-0.5-0.1
			c0.4-1.5,0.9-3,1.4-4.4c0.4-1,0.2-1.4,0.3-2c0.1-0.7,0.3-1.2,0.6-2.5c-0.1,1.4-0.1,1.9-0.1,2.6c-0.1,0.6-0.3,0.8-0.2,2
			C-1037.7-560.1-1037.6-558.5-1037.6-557L-1037.6-557z"/>
		<path class="st0" d="M-1040-557.3c-0.2-0.1-0.3-0.1-0.5-0.2c0.1-0.4,0-0.7-0.3-0.8c-0.2-0.1-0.6-0.1-0.8,0.4
			c-0.2-0.1-0.3-0.1-0.5-0.2c0.8-1.3,1.6-2.7,2.5-3.9c0.6-0.9,0.5-1.3,0.8-1.8c0.3-0.6,0.6-1,1.2-2.3c-0.4,1.3-0.6,1.9-0.8,2.5
			c-0.2,0.6-0.5,0.7-0.7,1.9C-1039.3-560.4-1039.6-558.8-1040-557.3L-1040-557.3z"/>
		<path class="st0" d="M-1042.2-558.3c-0.2-0.1-0.3-0.2-0.4-0.3c0.2-0.4,0.2-0.7-0.1-0.9c-0.2-0.1-0.6-0.3-0.9,0.1
			c-0.2-0.1-0.2-0.2-0.4-0.4c1.1-1.1,2.3-2.2,3.4-3.1c0.9-0.7,0.8-1.1,1.2-1.6c0.4-0.5,0.8-0.9,1.8-1.9c-0.8,1.2-1,1.7-1.4,2.2
			c-0.4,0.5-0.7,0.5-1.2,1.6C-1040.7-561-1041.5-559.6-1042.2-558.3L-1042.2-558.3z"/>
		<path class="st0" d="M-1044.1-559.8c-0.2-0.2-0.2-0.2-0.4-0.4c0.3-0.3,0.3-0.6,0.2-0.9c-0.2-0.2-0.5-0.4-0.9-0.1
			c-0.1-0.2-0.2-0.3-0.3-0.5c1.3-0.8,2.8-1.5,4.1-2.1c1-0.5,1.1-0.9,1.6-1.2c0.6-0.4,1-0.6,2.2-1.3c-1,0.9-1.4,1.3-1.9,1.7
			c-0.5,0.4-0.8,0.3-1.5,1.2C-1042-562-1043-560.8-1044.1-559.8L-1044.1-559.8z"/>
		<path class="st0" d="M-1045.6-561.7c-0.1-0.2-0.1-0.3-0.2-0.5c0.4-0.2,0.5-0.5,0.4-0.8c-0.1-0.2-0.4-0.5-0.8-0.3
			c-0.1-0.2-0.1-0.3-0.2-0.5c1.5-0.4,3.1-0.7,4.6-1c1.1-0.2,1.3-0.6,1.8-0.7c0.6-0.2,1.2-0.3,2.5-0.7c-1.2,0.6-1.7,0.9-2.3,1.2
			c-0.6,0.2-0.8,0.1-1.8,0.8C-1042.9-563.3-1044.3-562.5-1045.6-561.7L-1045.6-561.7z"/>
		<path class="st0" d="M-1042.1-574.2c0.2-0.1,0.3-0.1,0.5-0.2c0.2,0.4,0.5,0.5,0.8,0.4c0.2-0.1,0.5-0.4,0.3-0.8
			c0.2-0.1,0.3-0.1,0.5-0.2c0.4,1.5,0.7,3.1,1,4.6c0.2,1.1,0.5,1.3,0.7,1.8c0.2,0.6,0.3,1.2,0.7,2.5c-0.6-1.2-0.9-1.7-1.2-2.3
			c-0.2-0.6-0.1-0.8-0.8-1.8C-1040.4-571.6-1041.3-572.9-1042.1-574.2L-1042.1-574.2z"/>
		<path class="st0" d="M-1046.8-566.3c0-0.2,0-0.3,0-0.5c0.4,0,0.7-0.2,0.7-0.5c0-0.2-0.1-0.6-0.6-0.7c0-0.2,0.1-0.3,0.1-0.5
			c1.5,0.4,3,0.9,4.4,1.4c1,0.4,1.4,0.2,2,0.3c0.7,0.1,1.2,0.3,2.5,0.6c-1.4-0.1-1.9-0.1-2.6-0.1c-0.6-0.1-0.8-0.3-2-0.2
			C-1043.6-566.4-1045.2-566.3-1046.8-566.3L-1046.8-566.3z"/>
		<path class="st0" d="M-1046.4-568.7c0.1-0.2,0.1-0.3,0.2-0.5c0.4,0.1,0.7,0,0.8-0.3c0.1-0.2,0.1-0.6-0.4-0.8
			c0.1-0.2,0.1-0.3,0.3-0.5c1.3,0.8,2.7,1.7,3.9,2.5c0.9,0.6,1.3,0.5,1.8,0.8c0.6,0.3,1,0.6,2.3,1.2c-1.3-0.4-1.9-0.6-2.5-0.8
			c-0.6-0.2-0.7-0.5-1.9-0.7C-1043.4-568-1045-568.3-1046.4-568.7L-1046.4-568.7z"/>
		<path class="st0" d="M-1045.5-570.9c0.1-0.2,0.2-0.3,0.3-0.4c0.4,0.2,0.7,0.2,0.9-0.1c0.1-0.2,0.3-0.6-0.1-0.9
			c0.1-0.2,0.2-0.2,0.4-0.4c1.1,1.1,2.2,2.3,3.1,3.5c0.7,0.9,1.1,0.8,1.6,1.2c0.5,0.4,0.9,0.8,1.9,1.8c-1.2-0.8-1.6-1-2.2-1.4
			c-0.5-0.4-0.5-0.7-1.6-1.2C-1042.7-569.4-1044.2-570.1-1045.5-570.9L-1045.5-570.9z"/>
		<path class="st0" d="M-1044-572.8c0.2-0.2,0.2-0.2,0.4-0.3c0.3,0.3,0.6,0.3,0.9,0.2c0.2-0.2,0.4-0.5,0.1-0.9
			c0.2-0.1,0.3-0.2,0.5-0.3c0.8,1.3,1.5,2.8,2.1,4.2c0.5,1,0.9,1.1,1.2,1.6c0.4,0.6,0.6,1,1.3,2.2c-0.9-1-1.3-1.4-1.7-1.9
			c-0.4-0.5-0.3-0.8-1.2-1.6C-1041.7-570.6-1042.9-571.7-1044-572.8L-1044-572.8z"/>
	</g>
</g>
</svg>
