<?xml version="1.0" encoding="utf-8"?>
<!-- Generator: Adobe Illustrator 22.0.1, SVG Export Plug-In . SVG Version: 6.00 Build 0)  -->
<svg version="1.1" id="圖層_1" xmlns="http://www.w3.org/2000/svg" xmlns:xlink="http://www.w3.org/1999/xlink" x="0px" y="0px"
	 viewBox="0 0 82 82" style="enable-background:new 0 0 82 82;" xml:space="preserve">
<style type="text/css">
	.st0{fill:#FFFFFF;}
</style>
<path class="st0" d="M79.8,69.1l-7.6-34.4c-0.8-3.5-4-6-7.8-6H60V18.4c0-8.6-7-15.7-15.7-15.7h-6.9c-8.6,0-15.7,7-15.7,15.7v10.4
	h-4.4c-3.8,0-7,2.5-7.8,6L2.2,69.1c-1,4.6,2.7,9,7.8,9H72C77.2,78.1,80.8,73.7,79.8,69.1z M29.2,18.4c0-4.6,3.7-8.3,8.3-8.3h6.9
	c4.6,0,8.3,3.7,8.3,8.3v10.4H29.2V18.4z M25.5,48.6c-2.3,0-4.3-1.9-4.3-4.3s1.9-4.3,4.3-4.3s4.3,1.9,4.3,4.3S28,48.6,25.5,48.6z
	 M56.5,48.6c-2.4,0-4.3-1.9-4.3-4.3s1.9-4.3,4.3-4.3s4.3,1.9,4.3,4.3S58.8,48.6,56.5,48.6z"/>
</svg>
