<?xml version="1.0" encoding="utf-8"?>
<!-- Generator: Adobe Illustrator 22.0.1, SVG Export Plug-In . SVG Version: 6.00 Build 0)  -->
<svg version="1.1" id="圖層_1" xmlns="http://www.w3.org/2000/svg" xmlns:xlink="http://www.w3.org/1999/xlink" x="0px" y="0px"
	 viewBox="0 0 40 40" style="enable-background:new 0 0 40 40;" xml:space="preserve">
<style type="text/css">
	.st0{fill:none;stroke:#767B82;stroke-width:0.75;stroke-miterlimit:10;}
	.st1{fill:#FFFFFF;stroke:#767B82;stroke-width:0.75;stroke-miterlimit:10;}
	.st2{fill:none;stroke:#767B82;stroke-width:0.75;stroke-linecap:round;stroke-miterlimit:10;}
	.st3{fill:#767B82;}
	.st4{fill:#FFFFFF;}
</style>
<g>
	<path class="st0" d="M27.3,30.3L8.5,26.6c-1.4-0.3-2.4-1.7-2.1-3.1L9.9,6c0.3-1.4,1.7-2.4,3.1-2.1l18.8,3.7
		c1.4,0.3,2.4,1.7,2.1,3.1l-3.4,17.5C30.1,29.6,28.7,30.5,27.3,30.3z"/>
	<path class="st1" d="M27.6,36.1H9.2c-1.7,0-3-1.3-3-3L6.1,9.5c0-1.7,1.3-3,3-3l18.4-0.1c1.7,0,3,1.3,3,3l0.1,23.7
		C30.6,34.7,29.3,36.1,27.6,36.1z"/>
	<g>
		<line class="st2" x1="9" y1="21.6" x2="27.7" y2="21.6"/>
		<line class="st2" x1="9" y1="26.2" x2="27.7" y2="26.2"/>
		<line class="st2" x1="9" y1="30.8" x2="27.7" y2="30.8"/>
	</g>
</g>
<g>
	<circle class="st3" cx="13.4" cy="15" r="4.4"/>
	<g>
		<path class="st4" d="M13.1,18.4v-0.5c-1.1-0.1-1.7-0.7-1.8-1.6h0.7c0,0.5,0.4,0.9,1.1,1v-2l-0.3-0.1c-0.8-0.2-1.3-0.7-1.3-1.5
			c0-0.9,0.6-1.4,1.6-1.5v-0.5h0.5v0.5c1,0.1,1.6,0.7,1.6,1.5h-0.7c0-0.5-0.4-0.9-1-0.9v1.9l0.3,0.1c1,0.3,1.4,0.7,1.4,1.5
			c0,0.9-0.6,1.5-1.7,1.6v0.5H13.1z M13.1,14.6v-1.8c-0.5,0-0.9,0.4-0.9,0.9C12.2,14.1,12.5,14.5,13.1,14.6z M13.7,15.4v1.9
			c0.7,0,1.1-0.4,1.1-1C14.7,15.8,14.4,15.5,13.7,15.4z"/>
	</g>
</g>
</svg>
