<?xml version="1.0" encoding="utf-8"?>
<!-- Generator: Adobe Illustrator 22.0.1, SVG Export Plug-In . SVG Version: 6.00 Build 0)  -->
<svg version="1.1" id="圖層_1" xmlns="http://www.w3.org/2000/svg" xmlns:xlink="http://www.w3.org/1999/xlink" x="0px" y="0px"
	 viewBox="0 0 24 24" style="enable-background:new 0 0 24 24;" xml:space="preserve">
<style type="text/css">
	.st0{fill:#308CFE;}
</style>
<g>
	<path class="st0" d="M6.1,18.9c0,0.7,0.7,1.1,1.4,1.1S9,19.5,9,18.9V18H6.1V18.9z"/>
	<path class="st0" d="M15.1,18.9c0,0.7,0.7,1.1,1.4,1.1c0.9,0,1.4-0.5,1.4-1.1V18H15L15.1,18.9L15.1,18.9z"/>
	<path class="st0" d="M19.7,10.5L19.7,10.5l-1.6-5.9C18,4.3,17.6,4,17.2,4H6.8C6.4,4,6,4.3,5.9,4.7l-1.5,5.9H4.3
		c-0.8,0-1.4,0.7-1.4,1.4v4c0,0.8,0.7,1.4,1.4,1.4h15.3c0.8,0,1.4-0.7,1.4-1.4v-4C21,11.1,20.4,10.5,19.7,10.5z M6,9.8l1-4.1
		c0.1-0.3,0.3-0.5,0.5-0.5h8.8c0.3,0,0.5,0.2,0.6,0.5l1,4.1c0.1,0.4-0.2,0.8-0.6,0.8H6.5C6.2,10.5,5.9,10.2,6,9.8z M7.2,14.8
		c-0.5,0-0.9-0.4-0.9-0.9c0-0.6,0.4-0.9,0.9-0.9s0.9,0.4,0.9,0.9C8.1,14.4,7.7,14.8,7.2,14.8z M17.1,14.8c-0.5,0-0.9-0.4-0.9-0.9
		c0-0.6,0.4-0.9,0.9-0.9c0.5,0,0.9,0.4,0.9,0.9C18.1,14.4,17.6,14.8,17.1,14.8z"/>
</g>
</svg>
