<?xml version="1.0" encoding="utf-8"?>
<!-- Generator: Adobe Illustrator 22.0.1, SVG Export Plug-In . SVG Version: 6.00 Build 0)  -->
<svg version="1.1" id="圖層_1" xmlns="http://www.w3.org/2000/svg" xmlns:xlink="http://www.w3.org/1999/xlink" x="0px" y="0px"
	 viewBox="0 0 24 24" style="enable-background:new 0 0 24 24;" xml:space="preserve">
<style type="text/css">
	.st0{fill:#5F6368;}
</style>
<path class="st0" d="M14.7,10.4l-3.6-4.9c-0.3-0.4-0.6-0.6-1-0.6H9.6l2,5.6c-1.9,0-3.9,0.2-5.3,0.5L5.7,10c-0.3-0.3-0.6-0.4-1-0.4
	H4.2l0.6,1.7c-0.3,0.1-0.7,0.3-0.7,0.7c0,0.3,0.4,0.5,0.7,0.7l-0.6,1.8h0.5c0.4,0,0.8-0.2,1-0.6l0.7-1c1.4,0.3,3.3,0.4,5.1,0.5
	l-2,5.6H10c0.4,0,0.8-0.2,1-0.6l3.6-5c1.6,0,4.2,0,5-0.8c0.2-0.2,0.3-0.4,0.3-0.6C19.9,11.7,19.9,10.6,14.7,10.4z"/>
</svg>
