<?xml version="1.0" encoding="utf-8"?>
<!-- Generator: Adobe Illustrator 22.0.1, SVG Export Plug-In . SVG Version: 6.00 Build 0)  -->
<svg version="1.1" id="圖層_1" xmlns="http://www.w3.org/2000/svg" xmlns:xlink="http://www.w3.org/1999/xlink" x="0px" y="0px"
	 viewBox="0 0 24 24" style="enable-background:new 0 0 24 24;" xml:space="preserve">
<style type="text/css">
	.st0{fill:#308CFE;}
</style>
<path class="st0" d="M17.9,2.5H6C5.2,2.5,4.5,3.2,4.5,4v12.9c0,0.9,0.7,1.5,1.5,1.5h1.4L6.2,21c-0.1,0.2,0,0.5,0.3,0.5h0.9h9.3h0.9
	c0.3,0,0.4-0.3,0.3-0.5l-1.3-2.6H18c0.9,0,1.5-0.7,1.5-1.5V4.1C19.4,3.2,18.8,2.5,17.9,2.5z M9.1,3.8h5.8c0.3,0,0.6,0.3,0.6,0.6
	c0,0.3-0.2,0.6-0.6,0.6H9.1C8.8,5,8.5,4.7,8.5,4.4C8.5,4.1,8.7,3.8,9.1,3.8z M6.2,15c0-0.5,0.4-0.9,0.9-0.9C7.6,14.1,8,14.4,8,15
	c0,0.5-0.4,0.9-0.9,0.9C6.6,15.9,6.2,15.5,6.2,15z M15.9,19.9c0.1,0.2,0,0.6-0.3,0.6H8.4c-0.3,0-0.5-0.3-0.3-0.6l0.7-1.6h6.5
	L15.9,19.9z M16.8,15.9c-0.5,0-0.9-0.4-0.9-0.9c0-0.5,0.4-0.9,0.9-0.9c0.5,0,0.9,0.4,0.9,0.9C17.7,15.5,17.3,15.9,16.8,15.9z
	 M17.7,11.2c0,0.3-0.3,0.6-0.6,0.6H6.8c-0.3,0-0.6-0.3-0.6-0.6v-4c0-0.3,0.3-0.6,0.6-0.6h10.3c0.3,0,0.6,0.3,0.6,0.6
	C17.7,7.2,17.7,11.2,17.7,11.2z"/>
</svg>
