<?xml version="1.0" encoding="utf-8"?>
<!-- Generator: Adobe Illustrator 22.0.1, SVG Export Plug-In . SVG Version: 6.00 Build 0)  -->
<svg version="1.1" id="圖層_1" xmlns="http://www.w3.org/2000/svg" xmlns:xlink="http://www.w3.org/1999/xlink" x="0px" y="0px"
	 viewBox="0 0 24 24" style="enable-background:new 0 0 24 24;" xml:space="preserve">
<style type="text/css">
	.st0{fill:#308CFE;}
</style>
<g>
	<path class="st0" d="M18.8,8c0-0.9-0.7-1.6-1.6-1.6h-1.8V5c0-0.7-0.5-1.2-1.2-1.2H9.8C9.2,3.8,8.6,4.3,8.6,5v1.4H6.8
		C5.9,6.4,5.2,7.1,5.2,8v2C7.2,9,9.6,8.2,12,8.2c2.3,0,4.8,0.8,6.8,1.7V8z M10.5,4.5h3c0.3,0,0.6,0.3,0.6,0.6c0,0.3-0.3,0.6-0.6,0.6
		h-3c-0.3,0-0.6-0.3-0.6-0.6C9.9,4.8,10.1,4.5,10.5,4.5z"/>
	<g>
		<path class="st0" d="M2.6,14c0,0.7,1.9,3.7,2.9,4.6c1.6,1.5,2.2,1.6,5.3,1.6c0.3,0,0.6-0.2,0.6-0.6V9.9c0-0.3-0.3-0.6-0.6-0.6
			C6.8,9.8,2.6,12.9,2.6,14z"/>
		<path class="st0" d="M12.6,9.9v9.8c0,0.3,0.2,0.6,0.6,0.6c3.1,0,3.9-0.1,5.3-1.6c0.9-1,2.9-3.9,2.9-4.6c0-1.1-4.1-4.2-8.1-4.7
			C12.9,9.3,12.6,9.5,12.6,9.9z"/>
	</g>
</g>
</svg>
