<?xml version="1.0" encoding="utf-8"?>
<!-- Generator: Adobe Illustrator 22.0.1, SVG Export Plug-In . SVG Version: 6.00 Build 0)  -->
<svg version="1.1" id="圖層_1" xmlns="http://www.w3.org/2000/svg" xmlns:xlink="http://www.w3.org/1999/xlink" x="0px" y="0px"
	 viewBox="0 0 24 24" style="enable-background:new 0 0 24 24;" xml:space="preserve">
<style type="text/css">
	.st0{fill:#308CFE;}
</style>
<g>
	<g>
		<path class="st0" d="M5.9,18.8v0.9c0,0.7,0.7,1.3,1.5,1.3s1.5-0.6,1.5-1.3v-0.9H5.9z"/>
		<path class="st0" d="M15.1,18.8v0.9c0,0.7,0.7,1.3,1.5,1.3c0.8,0,1.5-0.6,1.5-1.3v-0.9H15.1z"/>
	</g>
	<path class="st0" d="M17.7,2.9H6.2c-0.8,0-1.5,0.6-1.5,1.5v12.4c0,0.8,0.6,1.5,1.5,1.5h11.6c0.8,0,1.5-0.6,1.5-1.5V4.4
		C19.2,3.6,18.5,2.9,17.7,2.9z M10,4.4c0-0.3,0.2-0.5,0.5-0.5h3c0.3,0,0.5,0.2,0.5,0.5v0.4c0,0.3-0.2,0.5-0.5,0.5h-3
		C10.2,5.2,10,5,10,4.8V4.4z M7.3,15.8c-0.4,0-0.9-0.4-0.9-0.9c0-0.4,0.4-0.9,0.9-0.9c0.4,0,0.9,0.4,0.9,0.9
		C8.1,15.4,7.8,15.8,7.3,15.8z M16.7,15.8c-0.4,0-0.9-0.4-0.9-0.9c0-0.4,0.4-0.9,0.9-0.9c0.4,0,0.9,0.4,0.9,0.9
		C17.5,15.4,17.1,15.8,16.7,15.8z M17.5,11.3c0,0.3-0.3,0.6-0.6,0.6H7c-0.3,0-0.6-0.3-0.6-0.6V7.5c0-0.3,0.3-0.6,0.6-0.6h9.9
		c0.3,0,0.6,0.3,0.6,0.6V11.3z"/>
</g>
</svg>
